<svg width="141" height="50" viewBox="0 0 141 50" fill="none" xmlns="http://www.w3.org/2000/svg">
<rect width="141" height="50" rx="25" fill="black"/>
<path d="M61.364 31.126C60.536 31.126 59.792 30.982 59.132 30.694C58.484 30.394 57.974 29.986 57.602 29.47C57.23 28.942 57.038 28.336 57.026 27.652H58.772C58.832 28.24 59.072 28.738 59.492 29.146C59.924 29.542 60.548 29.74 61.364 29.74C62.144 29.74 62.756 29.548 63.2 29.164C63.656 28.768 63.884 28.264 63.884 27.652C63.884 27.172 63.752 26.782 63.488 26.482C63.224 26.182 62.894 25.954 62.498 25.798C62.102 25.642 61.568 25.474 60.896 25.294C60.068 25.078 59.402 24.862 58.898 24.646C58.406 24.43 57.98 24.094 57.62 23.638C57.272 23.17 57.098 22.546 57.098 21.766C57.098 21.082 57.272 20.476 57.62 19.948C57.968 19.42 58.454 19.012 59.078 18.724C59.714 18.436 60.44 18.292 61.256 18.292C62.432 18.292 63.392 18.586 64.136 19.174C64.892 19.762 65.318 20.542 65.414 21.514H63.614C63.554 21.034 63.302 20.614 62.858 20.254C62.414 19.882 61.826 19.696 61.094 19.696C60.41 19.696 59.852 19.876 59.42 20.236C58.988 20.584 58.772 21.076 58.772 21.712C58.772 22.168 58.898 22.54 59.15 22.828C59.414 23.116 59.732 23.338 60.104 23.494C60.488 23.638 61.022 23.806 61.706 23.998C62.534 24.226 63.2 24.454 63.704 24.682C64.208 24.898 64.64 25.24 65 25.708C65.36 26.164 65.54 26.788 65.54 27.58C65.54 28.192 65.378 28.768 65.054 29.308C64.73 29.848 64.25 30.286 63.614 30.622C62.978 30.958 62.228 31.126 61.364 31.126ZM76.9505 25.69C76.9505 26.002 76.9325 26.332 76.8965 26.68H69.0125C69.0725 27.652 69.4025 28.414 70.0025 28.966C70.6145 29.506 71.3525 29.776 72.2165 29.776C72.9245 29.776 73.5125 29.614 73.9805 29.29C74.4605 28.954 74.7965 28.51 74.9885 27.958H76.7525C76.4885 28.906 75.9605 29.68 75.1685 30.28C74.3765 30.868 73.3925 31.162 72.2165 31.162C71.2805 31.162 70.4405 30.952 69.6965 30.532C68.9645 30.112 68.3885 29.518 67.9685 28.75C67.5485 27.97 67.3385 27.07 67.3385 26.05C67.3385 25.03 67.5425 24.136 67.9505 23.368C68.3585 22.6 68.9285 22.012 69.6605 21.604C70.4045 21.184 71.2565 20.974 72.2165 20.974C73.1525 20.974 73.9805 21.178 74.7005 21.586C75.4205 21.994 75.9725 22.558 76.3565 23.278C76.7525 23.986 76.9505 24.79 76.9505 25.69ZM75.2585 25.348C75.2585 24.724 75.1205 24.19 74.8445 23.746C74.5685 23.29 74.1905 22.948 73.7105 22.72C73.2425 22.48 72.7205 22.36 72.1445 22.36C71.3165 22.36 70.6085 22.624 70.0205 23.152C69.4445 23.68 69.1145 24.412 69.0305 25.348H75.2585ZM78.5006 26.032C78.5006 25.024 78.7046 24.142 79.1126 23.386C79.5206 22.618 80.0786 22.024 80.7866 21.604C81.5066 21.184 82.3046 20.974 83.1806 20.974C84.0446 20.974 84.7946 21.16 85.4306 21.532C86.0666 21.904 86.5406 22.372 86.8526 22.936V21.136H88.5086V31H86.8526V29.164C86.5286 29.74 86.0426 30.22 85.3946 30.604C84.7586 30.976 84.0146 31.162 83.1626 31.162C82.2866 31.162 81.4946 30.946 80.7866 30.514C80.0786 30.082 79.5206 29.476 79.1126 28.696C78.7046 27.916 78.5006 27.028 78.5006 26.032ZM86.8526 26.05C86.8526 25.306 86.7026 24.658 86.4026 24.106C86.1026 23.554 85.6946 23.134 85.1786 22.846C84.6746 22.546 84.1166 22.396 83.5046 22.396C82.8926 22.396 82.3346 22.54 81.8306 22.828C81.3266 23.116 80.9246 23.536 80.6246 24.088C80.3246 24.64 80.1746 25.288 80.1746 26.032C80.1746 26.788 80.3246 27.448 80.6246 28.012C80.9246 28.564 81.3266 28.99 81.8306 29.29C82.3346 29.578 82.8926 29.722 83.5046 29.722C84.1166 29.722 84.6746 29.578 85.1786 29.29C85.6946 28.99 86.1026 28.564 86.4026 28.012C86.7026 27.448 86.8526 26.794 86.8526 26.05ZM92.9146 22.738C93.2026 22.174 93.6106 21.736 94.1386 21.424C94.6786 21.112 95.3326 20.956 96.1006 20.956V22.648H95.6686C93.8326 22.648 92.9146 23.644 92.9146 25.636V31H91.2766V21.136H92.9146V22.738ZM97.3795 26.05C97.3795 25.03 97.5835 24.142 97.9915 23.386C98.3995 22.618 98.9635 22.024 99.6835 21.604C100.415 21.184 101.249 20.974 102.185 20.974C103.397 20.974 104.393 21.268 105.173 21.856C105.965 22.444 106.487 23.26 106.739 24.304H104.975C104.807 23.704 104.477 23.23 103.985 22.882C103.505 22.534 102.905 22.36 102.185 22.36C101.249 22.36 100.493 22.684 99.9175 23.332C99.3415 23.968 99.0535 24.874 99.0535 26.05C99.0535 27.238 99.3415 28.156 99.9175 28.804C100.493 29.452 101.249 29.776 102.185 29.776C102.905 29.776 103.505 29.608 103.985 29.272C104.465 28.936 104.795 28.456 104.975 27.832H106.739C106.475 28.84 105.947 29.65 105.155 30.262C104.363 30.862 103.373 31.162 102.185 31.162C101.249 31.162 100.415 30.952 99.6835 30.532C98.9635 30.112 98.3995 29.518 97.9915 28.75C97.5835 27.982 97.3795 27.082 97.3795 26.05ZM113.821 20.956C114.565 20.956 115.237 21.118 115.837 21.442C116.437 21.754 116.905 22.228 117.241 22.864C117.589 23.5 117.763 24.274 117.763 25.186V31H116.143V25.42C116.143 24.436 115.897 23.686 115.405 23.17C114.913 22.642 114.241 22.378 113.389 22.378C112.525 22.378 111.835 22.648 111.319 23.188C110.815 23.728 110.563 24.514 110.563 25.546V31H108.925V17.68H110.563V22.54C110.887 22.036 111.331 21.646 111.895 21.37C112.471 21.094 113.113 20.956 113.821 20.956Z" fill="white"/>
<path d="M28.4395 16.8341C28.7092 15.722 30.2908 15.722 30.5605 16.8341L31.3025 19.8941C31.3988 20.2912 31.7088 20.6012 32.1059 20.6975L35.1659 21.4395C36.278 21.7092 36.278 23.2908 35.1659 23.5605L32.1059 24.3025C31.7088 24.3988 31.3988 24.7088 31.3025 25.1059L30.5605 28.1659C30.2908 29.278 28.7092 29.278 28.4395 28.1659L27.6975 25.1059C27.6012 24.7088 27.2912 24.3988 26.8941 24.3025L23.8341 23.5605C22.722 23.2908 22.722 21.7092 23.8341 21.4395L26.8941 20.6975C27.2912 20.6012 27.6012 20.2912 27.6975 19.8941L28.4395 16.8341Z" fill="#FBAF57"/>
<path d="M37.3474 27.5133C37.5133 26.8289 38.4867 26.8289 38.6526 27.5133L39.1092 29.3964C39.1685 29.6407 39.3593 29.8315 39.6036 29.8908L41.4867 30.3474C42.1711 30.5133 42.1711 31.4867 41.4867 31.6526L39.6036 32.1092C39.3593 32.1685 39.1685 32.3593 39.1092 32.6036L38.6526 34.4867C38.4867 35.1711 37.5133 35.1711 37.3474 34.4867L36.8908 32.6036C36.8315 32.3593 36.6407 32.1685 36.3964 32.1092L34.5133 31.6526C33.8289 31.4867 33.8289 30.5133 34.5133 30.3474L36.3964 29.8908C36.6407 29.8315 36.8315 29.6407 36.8908 29.3964L37.3474 27.5133Z" fill="#FBAF57"/>
<path d="M40.5717 16.7118C40.6806 16.2627 41.3194 16.2627 41.4283 16.7118L41.7279 17.9476C41.7668 18.108 41.892 18.2332 42.0524 18.2721L43.2882 18.5717C43.7373 18.6806 43.7373 19.3194 43.2882 19.4283L42.0524 19.7279C41.892 19.7668 41.7668 19.892 41.7279 20.0524L41.4283 21.2882C41.3194 21.7373 40.6806 21.7373 40.5717 21.2882L40.2721 20.0524C40.2332 19.892 40.108 19.7668 39.9476 19.7279L38.7118 19.4283C38.2627 19.3194 38.2627 18.6806 38.7118 18.5717L39.9476 18.2721C40.108 18.2332 40.2332 18.108 40.2721 17.9476L40.5717 16.7118Z" fill="#FBAF57"/>
<path fill-rule="evenodd" clip-rule="evenodd" d="M41 16.9311L40.7554 17.9397C40.6577 18.3429 40.3429 18.6577 39.9397 18.7554L38.9311 19L39.9397 19.2446C40.3429 19.3423 40.6577 19.6571 40.7554 20.0603L41 21.0689L41.2446 20.0603C41.3423 19.6571 41.6571 19.3423 42.0603 19.2446L43.0689 19L42.0603 18.7554C41.6571 18.6577 41.3423 18.3429 41.2446 17.9397L41 16.9311ZM41.4895 16.385C41.365 15.8717 40.635 15.8717 40.5105 16.385L40.1681 17.7973C40.1236 17.9805 39.9805 18.1236 39.7973 18.1681L38.385 18.5105C37.8717 18.635 37.8717 19.365 38.385 19.4895L39.7973 19.8319C39.9805 19.8764 40.1236 20.0195 40.1681 20.2027L40.5105 21.615C40.635 22.1283 41.365 22.1283 41.4895 21.615L41.8319 20.2027C41.8764 20.0195 42.0195 19.8764 42.2027 19.8319L43.615 19.4895C44.1283 19.365 44.1283 18.635 43.615 18.5105L42.2027 18.1681C42.0195 18.1236 41.8764 17.9805 41.8319 17.7973L41.4895 16.385Z" fill="#FBAF57"/>
<path d="M29 36C28.4477 36 28 35.5523 28 35C28 34.4477 28.4477 34 29 34C29.5523 34 30 34.4477 30 35C30 35.5523 29.5523 36 29 36Z" fill="#FBAF57"/>
<path d="M24 32C23.4477 32 23 31.5523 23 31C23 30.4477 23.4477 30 24 30C24.5523 30 25 30.4477 25 31C25 31.5523 24.5523 32 24 32Z" fill="#FBAF57"/>
<path d="M35 16C34.4477 16 34 15.5523 34 15C34 14.4477 34.4477 14 35 14C35.5523 14 36 14.4477 36 15C36 15.5523 35.5523 16 35 16Z" fill="#FBAF57"/>
<path d="M44 27C43.4477 27 43 26.5523 43 26C43 25.4477 43.4477 25 44 25C44.5523 25 45 25.4477 45 26C45 26.5523 44.5523 27 44 27Z" fill="#FBAF57"/>
</svg>
