<svg width="696" height="374" viewBox="0 0 696 374" fill="none" xmlns="http://www.w3.org/2000/svg">
<path d="M57.0215 89.9219V98.5H55.9375V91.2754L53.752 92.0723V91.0938L56.8516 89.9219H57.0215ZM65.5645 93.5547V94.8555C65.5645 95.5547 65.502 96.1445 65.377 96.625C65.252 97.1055 65.0723 97.4922 64.8379 97.7852C64.6035 98.0781 64.3203 98.291 63.9883 98.4238C63.6602 98.5527 63.2891 98.6172 62.875 98.6172C62.5469 98.6172 62.2441 98.5762 61.9668 98.4941C61.6895 98.4121 61.4395 98.2812 61.2168 98.1016C60.998 97.918 60.8105 97.6797 60.6543 97.3867C60.498 97.0938 60.3789 96.7383 60.2969 96.3203C60.2148 95.9023 60.1738 95.4141 60.1738 94.8555V93.5547C60.1738 92.8555 60.2363 92.2695 60.3613 91.7969C60.4902 91.3242 60.6719 90.9453 60.9062 90.6602C61.1406 90.3711 61.4219 90.1641 61.75 90.0391C62.082 89.9141 62.4531 89.8516 62.8633 89.8516C63.1953 89.8516 63.5 89.8926 63.7773 89.9746C64.0586 90.0527 64.3086 90.1797 64.5273 90.3555C64.7461 90.5273 64.9316 90.7578 65.084 91.0469C65.2402 91.332 65.3594 91.6816 65.4414 92.0957C65.5234 92.5098 65.5645 92.9961 65.5645 93.5547ZM64.4746 95.0312V93.373C64.4746 92.9902 64.4512 92.6543 64.4043 92.3652C64.3613 92.0723 64.2969 91.8223 64.2109 91.6152C64.125 91.4082 64.0156 91.2402 63.8828 91.1113C63.7539 90.9824 63.6035 90.8887 63.4316 90.8301C63.2637 90.7676 63.0742 90.7363 62.8633 90.7363C62.6055 90.7363 62.377 90.7852 62.1777 90.8828C61.9785 90.9766 61.8105 91.127 61.6738 91.334C61.541 91.541 61.4395 91.8125 61.3691 92.1484C61.2988 92.4844 61.2637 92.8926 61.2637 93.373V95.0312C61.2637 95.4141 61.2852 95.752 61.3281 96.0449C61.375 96.3379 61.4434 96.5918 61.5332 96.8066C61.623 97.0176 61.7324 97.1914 61.8613 97.3281C61.9902 97.4648 62.1387 97.5664 62.3066 97.6328C62.4785 97.6953 62.668 97.7266 62.875 97.7266C63.1406 97.7266 63.373 97.6758 63.5723 97.5742C63.7715 97.4727 63.9375 97.3145 64.0703 97.0996C64.207 96.8809 64.3086 96.6016 64.375 96.2617C64.4414 95.918 64.4746 95.5078 64.4746 95.0312ZM72.3145 93.5547V94.8555C72.3145 95.5547 72.252 96.1445 72.127 96.625C72.002 97.1055 71.8223 97.4922 71.5879 97.7852C71.3535 98.0781 71.0703 98.291 70.7383 98.4238C70.4102 98.5527 70.0391 98.6172 69.625 98.6172C69.2969 98.6172 68.9941 98.5762 68.7168 98.4941C68.4395 98.4121 68.1895 98.2812 67.9668 98.1016C67.748 97.918 67.5605 97.6797 67.4043 97.3867C67.248 97.0938 67.1289 96.7383 67.0469 96.3203C66.9648 95.9023 66.9238 95.4141 66.9238 94.8555V93.5547C66.9238 92.8555 66.9863 92.2695 67.1113 91.7969C67.2402 91.3242 67.4219 90.9453 67.6562 90.6602C67.8906 90.3711 68.1719 90.1641 68.5 90.0391C68.832 89.9141 69.2031 89.8516 69.6133 89.8516C69.9453 89.8516 70.25 89.8926 70.5273 89.9746C70.8086 90.0527 71.0586 90.1797 71.2773 90.3555C71.4961 90.5273 71.6816 90.7578 71.834 91.0469C71.9902 91.332 72.1094 91.6816 72.1914 92.0957C72.2734 92.5098 72.3145 92.9961 72.3145 93.5547ZM71.2246 95.0312V93.373C71.2246 92.9902 71.2012 92.6543 71.1543 92.3652C71.1113 92.0723 71.0469 91.8223 70.9609 91.6152C70.875 91.4082 70.7656 91.2402 70.6328 91.1113C70.5039 90.9824 70.3535 90.8887 70.1816 90.8301C70.0137 90.7676 69.8242 90.7363 69.6133 90.7363C69.3555 90.7363 69.127 90.7852 68.9277 90.8828C68.7285 90.9766 68.5605 91.127 68.4238 91.334C68.291 91.541 68.1895 91.8125 68.1191 92.1484C68.0488 92.4844 68.0137 92.8926 68.0137 93.373V95.0312C68.0137 95.4141 68.0352 95.752 68.0781 96.0449C68.125 96.3379 68.1934 96.5918 68.2832 96.8066C68.373 97.0176 68.4824 97.1914 68.6113 97.3281C68.7402 97.4648 68.8887 97.5664 69.0566 97.6328C69.2285 97.6953 69.418 97.7266 69.625 97.7266C69.8906 97.7266 70.123 97.6758 70.3223 97.5742C70.5215 97.4727 70.6875 97.3145 70.8203 97.0996C70.957 96.8809 71.0586 96.6016 71.125 96.2617C71.1914 95.918 71.2246 95.5078 71.2246 95.0312Z" fill="black" fill-opacity="0.87"/>
<line x1="81" y1="94" x2="87" y2="94" stroke="black" stroke-opacity="0.87"/>
<path d="M61.2871 132.758H61.3984C62.0234 132.758 62.5312 132.67 62.9219 132.495C63.3125 132.319 63.6133 132.083 63.8242 131.786C64.0352 131.489 64.1797 131.155 64.2578 130.784C64.3359 130.409 64.375 130.024 64.375 129.629V128.323C64.375 127.936 64.3301 127.592 64.2402 127.292C64.1543 126.991 64.0332 126.739 63.877 126.536C63.7246 126.333 63.5508 126.178 63.3555 126.073C63.1602 125.967 62.9531 125.915 62.7344 125.915C62.4844 125.915 62.2598 125.965 62.0605 126.067C61.8652 126.165 61.6992 126.303 61.5625 126.483C61.4297 126.663 61.3281 126.874 61.2578 127.116C61.1875 127.358 61.1523 127.622 61.1523 127.907C61.1523 128.161 61.1836 128.407 61.2461 128.645C61.3086 128.883 61.4043 129.098 61.5332 129.29C61.6621 129.481 61.8223 129.633 62.0137 129.747C62.209 129.856 62.4375 129.911 62.6992 129.911C62.9414 129.911 63.168 129.864 63.3789 129.77C63.5938 129.672 63.7832 129.542 63.9473 129.377C64.1152 129.209 64.248 129.02 64.3457 128.809C64.4473 128.598 64.5059 128.377 64.5215 128.147H65.0371C65.0371 128.471 64.9727 128.792 64.8438 129.108C64.7188 129.42 64.543 129.706 64.3164 129.963C64.0898 130.221 63.8242 130.428 63.5195 130.584C63.2148 130.737 62.8828 130.813 62.5234 130.813C62.1016 130.813 61.7363 130.731 61.4277 130.567C61.1191 130.403 60.8652 130.184 60.666 129.911C60.4707 129.637 60.3242 129.333 60.2266 128.997C60.1328 128.657 60.0859 128.313 60.0859 127.965C60.0859 127.559 60.1426 127.178 60.2559 126.823C60.3691 126.467 60.5371 126.155 60.7598 125.885C60.9824 125.612 61.2578 125.399 61.5859 125.247C61.918 125.094 62.3008 125.018 62.7344 125.018C63.2227 125.018 63.6387 125.116 63.9824 125.311C64.3262 125.506 64.6055 125.768 64.8203 126.096C65.0391 126.424 65.1992 126.793 65.3008 127.204C65.4023 127.614 65.4531 128.036 65.4531 128.469V128.862C65.4531 129.303 65.4238 129.752 65.3652 130.209C65.3105 130.663 65.2031 131.096 65.043 131.51C64.8867 131.924 64.6582 132.295 64.3574 132.624C64.0566 132.948 63.6641 133.206 63.1797 133.397C62.6992 133.584 62.1055 133.678 61.3984 133.678H61.2871V132.758ZM72.3145 128.721V130.022C72.3145 130.721 72.252 131.311 72.127 131.792C72.002 132.272 71.8223 132.659 71.5879 132.952C71.3535 133.245 71.0703 133.458 70.7383 133.59C70.4102 133.719 70.0391 133.784 69.625 133.784C69.2969 133.784 68.9941 133.743 68.7168 133.661C68.4395 133.579 68.1895 133.448 67.9668 133.268C67.748 133.084 67.5605 132.846 67.4043 132.553C67.248 132.26 67.1289 131.905 67.0469 131.487C66.9648 131.069 66.9238 130.581 66.9238 130.022V128.721C66.9238 128.022 66.9863 127.436 67.1113 126.963C67.2402 126.491 67.4219 126.112 67.6562 125.827C67.8906 125.538 68.1719 125.331 68.5 125.206C68.832 125.081 69.2031 125.018 69.6133 125.018C69.9453 125.018 70.25 125.059 70.5273 125.141C70.8086 125.219 71.0586 125.346 71.2773 125.522C71.4961 125.694 71.6816 125.924 71.834 126.213C71.9902 126.499 72.1094 126.848 72.1914 127.262C72.2734 127.676 72.3145 128.163 72.3145 128.721ZM71.2246 130.198V128.54C71.2246 128.157 71.2012 127.821 71.1543 127.532C71.1113 127.239 71.0469 126.989 70.9609 126.782C70.875 126.575 70.7656 126.407 70.6328 126.278C70.5039 126.149 70.3535 126.055 70.1816 125.997C70.0137 125.934 69.8242 125.903 69.6133 125.903C69.3555 125.903 69.127 125.952 68.9277 126.049C68.7285 126.143 68.5605 126.293 68.4238 126.5C68.291 126.708 68.1895 126.979 68.1191 127.315C68.0488 127.651 68.0137 128.059 68.0137 128.54V130.198C68.0137 130.581 68.0352 130.918 68.0781 131.211C68.125 131.504 68.1934 131.758 68.2832 131.973C68.373 132.184 68.4824 132.358 68.6113 132.495C68.7402 132.631 68.8887 132.733 69.0566 132.799C69.2285 132.862 69.418 132.893 69.625 132.893C69.8906 132.893 70.123 132.842 70.3223 132.741C70.5215 132.639 70.6875 132.481 70.8203 132.266C70.957 132.047 71.0586 131.768 71.125 131.428C71.1914 131.084 71.2246 130.674 71.2246 130.198Z" fill="black" fill-opacity="0.87"/>
<line x1="81" y1="129.167" x2="87" y2="129.167" stroke="black" stroke-opacity="0.87"/>
<path d="M65.5879 166.525C65.5879 167.044 65.4668 167.486 65.2246 167.849C64.9863 168.208 64.6621 168.482 64.252 168.669C63.8457 168.857 63.3867 168.951 62.875 168.951C62.3633 168.951 61.9023 168.857 61.4922 168.669C61.082 168.482 60.7578 168.208 60.5195 167.849C60.2812 167.486 60.1621 167.044 60.1621 166.525C60.1621 166.185 60.2266 165.875 60.3555 165.593C60.4883 165.308 60.6738 165.06 60.9121 164.849C61.1543 164.638 61.4395 164.476 61.7676 164.363C62.0996 164.246 62.4648 164.187 62.8633 164.187C63.3867 164.187 63.8535 164.289 64.2637 164.492C64.6738 164.691 64.9961 164.966 65.2305 165.318C65.4688 165.669 65.5879 166.072 65.5879 166.525ZM64.498 166.501C64.498 166.185 64.4297 165.906 64.293 165.664C64.1562 165.417 63.9648 165.226 63.7188 165.089C63.4727 164.953 63.1875 164.884 62.8633 164.884C62.5312 164.884 62.2441 164.953 62.002 165.089C61.7637 165.226 61.5781 165.417 61.4453 165.664C61.3125 165.906 61.2461 166.185 61.2461 166.501C61.2461 166.83 61.3105 167.111 61.4395 167.345C61.5723 167.576 61.7598 167.753 62.002 167.878C62.248 168 62.5391 168.06 62.875 168.06C63.2109 168.06 63.5 168 63.7422 167.878C63.9844 167.753 64.1699 167.576 64.2988 167.345C64.4316 167.111 64.498 166.83 64.498 166.501ZM65.3887 162.523C65.3887 162.937 65.2793 163.31 65.0605 163.642C64.8418 163.974 64.543 164.236 64.1641 164.427C63.7852 164.619 63.3555 164.714 62.875 164.714C62.3867 164.714 61.9512 164.619 61.5684 164.427C61.1895 164.236 60.8926 163.974 60.6777 163.642C60.4629 163.31 60.3555 162.937 60.3555 162.523C60.3555 162.027 60.4629 161.605 60.6777 161.257C60.8965 160.91 61.1953 160.644 61.5742 160.46C61.9531 160.277 62.3848 160.185 62.8691 160.185C63.3574 160.185 63.791 160.277 64.1699 160.46C64.5488 160.644 64.8457 160.91 65.0605 161.257C65.2793 161.605 65.3887 162.027 65.3887 162.523ZM64.3047 162.541C64.3047 162.255 64.2441 162.003 64.123 161.785C64.002 161.566 63.834 161.394 63.6191 161.269C63.4043 161.14 63.1543 161.076 62.8691 161.076C62.584 161.076 62.334 161.136 62.1191 161.257C61.9082 161.375 61.7422 161.542 61.6211 161.761C61.5039 161.98 61.4453 162.24 61.4453 162.541C61.4453 162.833 61.5039 163.089 61.6211 163.308C61.7422 163.527 61.9102 163.697 62.125 163.818C62.3398 163.939 62.5898 164 62.875 164C63.1602 164 63.4082 163.939 63.6191 163.818C63.834 163.697 64.002 163.527 64.123 163.308C64.2441 163.089 64.3047 162.833 64.3047 162.541ZM72.3145 163.888V165.189C72.3145 165.888 72.252 166.478 72.127 166.958C72.002 167.439 71.8223 167.826 71.5879 168.119C71.3535 168.412 71.0703 168.625 70.7383 168.757C70.4102 168.886 70.0391 168.951 69.625 168.951C69.2969 168.951 68.9941 168.91 68.7168 168.828C68.4395 168.746 68.1895 168.615 67.9668 168.435C67.748 168.251 67.5605 168.013 67.4043 167.72C67.248 167.427 67.1289 167.072 67.0469 166.654C66.9648 166.236 66.9238 165.748 66.9238 165.189V163.888C66.9238 163.189 66.9863 162.603 67.1113 162.13C67.2402 161.658 67.4219 161.279 67.6562 160.994C67.8906 160.705 68.1719 160.498 68.5 160.373C68.832 160.248 69.2031 160.185 69.6133 160.185C69.9453 160.185 70.25 160.226 70.5273 160.308C70.8086 160.386 71.0586 160.513 71.2773 160.689C71.4961 160.861 71.6816 161.091 71.834 161.38C71.9902 161.666 72.1094 162.015 72.1914 162.429C72.2734 162.843 72.3145 163.33 72.3145 163.888ZM71.2246 165.365V163.707C71.2246 163.324 71.2012 162.988 71.1543 162.699C71.1113 162.406 71.0469 162.156 70.9609 161.949C70.875 161.742 70.7656 161.574 70.6328 161.445C70.5039 161.316 70.3535 161.222 70.1816 161.164C70.0137 161.101 69.8242 161.07 69.6133 161.07C69.3555 161.07 69.127 161.119 68.9277 161.216C68.7285 161.31 68.5605 161.46 68.4238 161.667C68.291 161.875 68.1895 162.146 68.1191 162.482C68.0488 162.818 68.0137 163.226 68.0137 163.707V165.365C68.0137 165.748 68.0352 166.085 68.0781 166.378C68.125 166.671 68.1934 166.925 68.2832 167.14C68.373 167.351 68.4824 167.525 68.6113 167.662C68.7402 167.798 68.8887 167.9 69.0566 167.966C69.2285 168.029 69.418 168.06 69.625 168.06C69.8906 168.06 70.123 168.009 70.3223 167.908C70.5215 167.806 70.6875 167.648 70.8203 167.433C70.957 167.214 71.0586 166.935 71.125 166.595C71.1914 166.251 71.2246 165.841 71.2246 165.365Z" fill="black" fill-opacity="0.87"/>
<line x1="81" y1="164.333" x2="87" y2="164.333" stroke="black" stroke-opacity="0.87"/>
<path d="M64.3691 195.457H64.4629V196.377H64.3691C63.7949 196.377 63.3145 196.471 62.9277 196.658C62.541 196.842 62.2344 197.09 62.0078 197.402C61.7812 197.711 61.6172 198.059 61.5156 198.445C61.418 198.832 61.3691 199.225 61.3691 199.623V200.877C61.3691 201.256 61.4141 201.592 61.5039 201.885C61.5938 202.174 61.7168 202.418 61.873 202.617C62.0293 202.816 62.2051 202.967 62.4004 203.068C62.5996 203.17 62.8066 203.221 63.0215 203.221C63.2715 203.221 63.4941 203.174 63.6895 203.08C63.8848 202.982 64.0488 202.848 64.1816 202.676C64.3184 202.5 64.4219 202.293 64.4922 202.055C64.5625 201.816 64.5977 201.555 64.5977 201.27C64.5977 201.016 64.5664 200.771 64.5039 200.537C64.4414 200.299 64.3457 200.088 64.2168 199.904C64.0879 199.717 63.9258 199.57 63.7305 199.465C63.5391 199.355 63.3105 199.301 63.0449 199.301C62.7441 199.301 62.4629 199.375 62.2012 199.523C61.9434 199.668 61.7305 199.859 61.5625 200.098C61.3984 200.332 61.3047 200.588 61.2812 200.865L60.707 200.859C60.7617 200.422 60.8633 200.049 61.0117 199.74C61.1641 199.428 61.3516 199.174 61.5742 198.979C61.8008 198.779 62.0527 198.635 62.3301 198.545C62.6113 198.451 62.9082 198.404 63.2207 198.404C63.6465 198.404 64.0137 198.484 64.3223 198.645C64.6309 198.805 64.8848 199.02 65.084 199.289C65.2832 199.555 65.4297 199.855 65.5234 200.191C65.6211 200.523 65.6699 200.865 65.6699 201.217C65.6699 201.619 65.6133 201.996 65.5 202.348C65.3867 202.699 65.2168 203.008 64.9902 203.273C64.7676 203.539 64.4922 203.746 64.1641 203.895C63.8359 204.043 63.4551 204.117 63.0215 204.117C62.5605 204.117 62.1582 204.023 61.8145 203.836C61.4707 203.645 61.1855 203.391 60.959 203.074C60.7324 202.758 60.5625 202.406 60.4492 202.02C60.3359 201.633 60.2793 201.24 60.2793 200.842V200.332C60.2793 199.73 60.3398 199.141 60.4609 198.562C60.582 197.984 60.791 197.461 61.0879 196.992C61.3887 196.523 61.8047 196.15 62.3359 195.873C62.8672 195.596 63.5449 195.457 64.3691 195.457ZM72.3145 199.055V200.355C72.3145 201.055 72.252 201.645 72.127 202.125C72.002 202.605 71.8223 202.992 71.5879 203.285C71.3535 203.578 71.0703 203.791 70.7383 203.924C70.4102 204.053 70.0391 204.117 69.625 204.117C69.2969 204.117 68.9941 204.076 68.7168 203.994C68.4395 203.912 68.1895 203.781 67.9668 203.602C67.748 203.418 67.5605 203.18 67.4043 202.887C67.248 202.594 67.1289 202.238 67.0469 201.82C66.9648 201.402 66.9238 200.914 66.9238 200.355V199.055C66.9238 198.355 66.9863 197.77 67.1113 197.297C67.2402 196.824 67.4219 196.445 67.6562 196.16C67.8906 195.871 68.1719 195.664 68.5 195.539C68.832 195.414 69.2031 195.352 69.6133 195.352C69.9453 195.352 70.25 195.393 70.5273 195.475C70.8086 195.553 71.0586 195.68 71.2773 195.855C71.4961 196.027 71.6816 196.258 71.834 196.547C71.9902 196.832 72.1094 197.182 72.1914 197.596C72.2734 198.01 72.3145 198.496 72.3145 199.055ZM71.2246 200.531V198.873C71.2246 198.49 71.2012 198.154 71.1543 197.865C71.1113 197.572 71.0469 197.322 70.9609 197.115C70.875 196.908 70.7656 196.74 70.6328 196.611C70.5039 196.482 70.3535 196.389 70.1816 196.33C70.0137 196.268 69.8242 196.236 69.6133 196.236C69.3555 196.236 69.127 196.285 68.9277 196.383C68.7285 196.477 68.5605 196.627 68.4238 196.834C68.291 197.041 68.1895 197.312 68.1191 197.648C68.0488 197.984 68.0137 198.393 68.0137 198.873V200.531C68.0137 200.914 68.0352 201.252 68.0781 201.545C68.125 201.838 68.1934 202.092 68.2832 202.307C68.373 202.518 68.4824 202.691 68.6113 202.828C68.7402 202.965 68.8887 203.066 69.0566 203.133C69.2285 203.195 69.418 203.227 69.625 203.227C69.8906 203.227 70.123 203.176 70.3223 203.074C70.5215 202.973 70.6875 202.814 70.8203 202.6C70.957 202.381 71.0586 202.102 71.125 201.762C71.1914 201.418 71.2246 201.008 71.2246 200.531Z" fill="black" fill-opacity="0.87"/>
<line x1="81" y1="199.5" x2="87" y2="199.5" stroke="black" stroke-opacity="0.87"/>
<path d="M65.9746 236.295V237.186H59.8105V236.547L63.6309 230.635H64.5156L63.5664 232.346L61.041 236.295H65.9746ZM64.7852 230.635V239.167H63.7012V230.635H64.7852ZM72.3145 234.221V235.522C72.3145 236.221 72.252 236.811 72.127 237.292C72.002 237.772 71.8223 238.159 71.5879 238.452C71.3535 238.745 71.0703 238.958 70.7383 239.09C70.4102 239.219 70.0391 239.284 69.625 239.284C69.2969 239.284 68.9941 239.243 68.7168 239.161C68.4395 239.079 68.1895 238.948 67.9668 238.768C67.748 238.584 67.5605 238.346 67.4043 238.053C67.248 237.76 67.1289 237.405 67.0469 236.987C66.9648 236.569 66.9238 236.081 66.9238 235.522V234.221C66.9238 233.522 66.9863 232.936 67.1113 232.463C67.2402 231.991 67.4219 231.612 67.6562 231.327C67.8906 231.038 68.1719 230.831 68.5 230.706C68.832 230.581 69.2031 230.518 69.6133 230.518C69.9453 230.518 70.25 230.559 70.5273 230.641C70.8086 230.719 71.0586 230.846 71.2773 231.022C71.4961 231.194 71.6816 231.424 71.834 231.713C71.9902 231.999 72.1094 232.348 72.1914 232.762C72.2734 233.176 72.3145 233.663 72.3145 234.221ZM71.2246 235.698V234.04C71.2246 233.657 71.2012 233.321 71.1543 233.032C71.1113 232.739 71.0469 232.489 70.9609 232.282C70.875 232.075 70.7656 231.907 70.6328 231.778C70.5039 231.649 70.3535 231.555 70.1816 231.497C70.0137 231.434 69.8242 231.403 69.6133 231.403C69.3555 231.403 69.127 231.452 68.9277 231.549C68.7285 231.643 68.5605 231.793 68.4238 232C68.291 232.208 68.1895 232.479 68.1191 232.815C68.0488 233.151 68.0137 233.559 68.0137 234.04V235.698C68.0137 236.081 68.0352 236.418 68.0781 236.711C68.125 237.004 68.1934 237.258 68.2832 237.473C68.373 237.684 68.4824 237.858 68.6113 237.995C68.7402 238.131 68.8887 238.233 69.0566 238.299C69.2285 238.362 69.418 238.393 69.625 238.393C69.8906 238.393 70.123 238.342 70.3223 238.241C70.5215 238.139 70.6875 237.981 70.8203 237.766C70.957 237.547 71.0586 237.268 71.125 236.928C71.1914 236.584 71.2246 236.174 71.2246 235.698Z" fill="black" fill-opacity="0.87"/>
<line x1="81" y1="234.667" x2="87" y2="234.667" stroke="black" stroke-opacity="0.87"/>
<path d="M65.7988 273.443V274.333H60.2148V273.554L63.0098 270.443C63.3535 270.06 63.6191 269.736 63.8066 269.47C63.998 269.201 64.1309 268.96 64.2051 268.75C64.2832 268.535 64.3223 268.316 64.3223 268.093C64.3223 267.812 64.2637 267.558 64.1465 267.332C64.0332 267.101 63.8652 266.917 63.6426 266.781C63.4199 266.644 63.1504 266.576 62.834 266.576C62.4551 266.576 62.1387 266.65 61.8848 266.798C61.6348 266.943 61.4473 267.146 61.3223 267.408C61.1973 267.669 61.1348 267.97 61.1348 268.31H60.0508C60.0508 267.83 60.1562 267.39 60.3672 266.992C60.5781 266.593 60.8906 266.277 61.3047 266.042C61.7188 265.804 62.2285 265.685 62.834 265.685C63.373 265.685 63.834 265.781 64.2168 265.972C64.5996 266.16 64.8926 266.425 65.0957 266.769C65.3027 267.109 65.4062 267.507 65.4062 267.964C65.4062 268.214 65.3633 268.468 65.2773 268.726C65.1953 268.98 65.0801 269.234 64.9316 269.488C64.7871 269.742 64.6172 269.992 64.4219 270.238C64.2305 270.484 64.0254 270.726 63.8066 270.964L61.5215 273.443H65.7988ZM72.3145 269.388V270.689C72.3145 271.388 72.252 271.978 72.127 272.458C72.002 272.939 71.8223 273.326 71.5879 273.619C71.3535 273.912 71.0703 274.125 70.7383 274.257C70.4102 274.386 70.0391 274.451 69.625 274.451C69.2969 274.451 68.9941 274.41 68.7168 274.328C68.4395 274.246 68.1895 274.115 67.9668 273.935C67.748 273.751 67.5605 273.513 67.4043 273.22C67.248 272.927 67.1289 272.572 67.0469 272.154C66.9648 271.736 66.9238 271.248 66.9238 270.689V269.388C66.9238 268.689 66.9863 268.103 67.1113 267.63C67.2402 267.158 67.4219 266.779 67.6562 266.494C67.8906 266.205 68.1719 265.998 68.5 265.873C68.832 265.748 69.2031 265.685 69.6133 265.685C69.9453 265.685 70.25 265.726 70.5273 265.808C70.8086 265.886 71.0586 266.013 71.2773 266.189C71.4961 266.361 71.6816 266.591 71.834 266.88C71.9902 267.166 72.1094 267.515 72.1914 267.929C72.2734 268.343 72.3145 268.83 72.3145 269.388ZM71.2246 270.865V269.207C71.2246 268.824 71.2012 268.488 71.1543 268.199C71.1113 267.906 71.0469 267.656 70.9609 267.449C70.875 267.242 70.7656 267.074 70.6328 266.945C70.5039 266.816 70.3535 266.722 70.1816 266.664C70.0137 266.601 69.8242 266.57 69.6133 266.57C69.3555 266.57 69.127 266.619 68.9277 266.716C68.7285 266.81 68.5605 266.96 68.4238 267.167C68.291 267.375 68.1895 267.646 68.1191 267.982C68.0488 268.318 68.0137 268.726 68.0137 269.207V270.865C68.0137 271.248 68.0352 271.585 68.0781 271.878C68.125 272.171 68.1934 272.425 68.2832 272.64C68.373 272.851 68.4824 273.025 68.6113 273.162C68.7402 273.298 68.8887 273.4 69.0566 273.466C69.2285 273.529 69.418 273.56 69.625 273.56C69.8906 273.56 70.123 273.509 70.3223 273.408C70.5215 273.306 70.6875 273.148 70.8203 272.933C70.957 272.714 71.0586 272.435 71.125 272.095C71.1914 271.751 71.2246 271.341 71.2246 270.865Z" fill="black" fill-opacity="0.87"/>
<line x1="81" y1="269.833" x2="87" y2="269.833" stroke="black" stroke-opacity="0.87"/>
<path d="M72.3145 304.555V305.855C72.3145 306.555 72.252 307.145 72.127 307.625C72.002 308.105 71.8223 308.492 71.5879 308.785C71.3535 309.078 71.0703 309.291 70.7383 309.424C70.4102 309.553 70.0391 309.617 69.625 309.617C69.2969 309.617 68.9941 309.576 68.7168 309.494C68.4395 309.412 68.1895 309.281 67.9668 309.102C67.748 308.918 67.5605 308.68 67.4043 308.387C67.248 308.094 67.1289 307.738 67.0469 307.32C66.9648 306.902 66.9238 306.414 66.9238 305.855V304.555C66.9238 303.855 66.9863 303.27 67.1113 302.797C67.2402 302.324 67.4219 301.945 67.6562 301.66C67.8906 301.371 68.1719 301.164 68.5 301.039C68.832 300.914 69.2031 300.852 69.6133 300.852C69.9453 300.852 70.25 300.893 70.5273 300.975C70.8086 301.053 71.0586 301.18 71.2773 301.355C71.4961 301.527 71.6816 301.758 71.834 302.047C71.9902 302.332 72.1094 302.682 72.1914 303.096C72.2734 303.51 72.3145 303.996 72.3145 304.555ZM71.2246 306.031V304.373C71.2246 303.99 71.2012 303.654 71.1543 303.365C71.1113 303.072 71.0469 302.822 70.9609 302.615C70.875 302.408 70.7656 302.24 70.6328 302.111C70.5039 301.982 70.3535 301.889 70.1816 301.83C70.0137 301.768 69.8242 301.736 69.6133 301.736C69.3555 301.736 69.127 301.785 68.9277 301.883C68.7285 301.977 68.5605 302.127 68.4238 302.334C68.291 302.541 68.1895 302.812 68.1191 303.148C68.0488 303.484 68.0137 303.893 68.0137 304.373V306.031C68.0137 306.414 68.0352 306.752 68.0781 307.045C68.125 307.338 68.1934 307.592 68.2832 307.807C68.373 308.018 68.4824 308.191 68.6113 308.328C68.7402 308.465 68.8887 308.566 69.0566 308.633C69.2285 308.695 69.418 308.727 69.625 308.727C69.8906 308.727 70.123 308.676 70.3223 308.574C70.5215 308.473 70.6875 308.314 70.8203 308.1C70.957 307.881 71.0586 307.602 71.125 307.262C71.1914 306.918 71.2246 306.508 71.2246 306.031Z" fill="black" fill-opacity="0.87"/>
<line x1="81" y1="305" x2="87" y2="305" stroke="black" stroke-opacity="0.87"/>
<path d="M7.83584 203.427V204.5H2.85928V203.427H7.83584ZM3.11905 194.547V204.5H1.79971V194.547H3.11905ZM13.6425 203.235V199.428C13.6425 199.136 13.5833 198.883 13.4648 198.669C13.3508 198.45 13.1777 198.282 12.9452 198.163C12.7128 198.045 12.4257 197.985 12.0839 197.985C11.7649 197.985 11.4846 198.04 11.2431 198.149C11.0061 198.259 10.8193 198.402 10.6825 198.58C10.5504 198.758 10.4843 198.949 10.4843 199.154H9.21965C9.21965 198.89 9.28801 198.628 9.42473 198.368C9.56145 198.108 9.75741 197.874 10.0126 197.664C10.2724 197.45 10.5823 197.281 10.9423 197.158C11.3069 197.031 11.7125 196.967 12.1591 196.967C12.6969 196.967 13.1708 197.058 13.581 197.24C13.9957 197.423 14.3193 197.698 14.5517 198.067C14.7887 198.432 14.9072 198.89 14.9072 199.441V202.887C14.9072 203.133 14.9277 203.395 14.9687 203.673C15.0143 203.951 15.0803 204.19 15.1669 204.391V204.5H13.8476C13.7838 204.354 13.7337 204.16 13.6972 203.919C13.6607 203.673 13.6425 203.445 13.6425 203.235ZM13.8613 200.016L13.8749 200.904H12.5966C12.2366 200.904 11.9153 200.934 11.6327 200.993C11.3502 201.048 11.1132 201.132 10.9218 201.246C10.7304 201.36 10.5846 201.504 10.4843 201.677C10.384 201.845 10.3339 202.044 10.3339 202.271C10.3339 202.504 10.3863 202.716 10.4911 202.907C10.596 203.099 10.7532 203.251 10.9628 203.365C11.177 203.475 11.4391 203.529 11.749 203.529C12.1363 203.529 12.4781 203.447 12.7743 203.283C13.0706 203.119 13.3053 202.919 13.4784 202.682C13.6562 202.445 13.7519 202.215 13.7656 201.991L14.3056 202.6C14.2737 202.791 14.1871 203.003 14.0458 203.235C13.9045 203.468 13.7154 203.691 13.4784 203.905C13.246 204.115 12.968 204.29 12.6445 204.432C12.3254 204.568 11.9654 204.637 11.5644 204.637C11.0631 204.637 10.6233 204.539 10.245 204.343C9.87135 204.147 9.57968 203.885 9.37004 203.557C9.16497 203.224 9.06243 202.853 9.06243 202.442C9.06243 202.046 9.1399 201.697 9.29485 201.396C9.4498 201.091 9.6731 200.838 9.96477 200.638C10.2564 200.433 10.6073 200.278 11.0175 200.173C11.4277 200.068 11.8857 200.016 12.3915 200.016H13.8613ZM17.0156 194H18.2871V203.064L18.1777 204.5H17.0156V194ZM23.2841 200.74V200.884C23.2841 201.422 23.2203 201.921 23.0927 202.381C22.9651 202.837 22.7783 203.233 22.5322 203.57C22.2861 203.908 21.9853 204.17 21.6298 204.356C21.2744 204.543 20.8665 204.637 20.4062 204.637C19.9368 204.637 19.5244 204.557 19.1689 204.397C18.818 204.233 18.5218 203.999 18.2802 203.693C18.0387 203.388 17.845 203.019 17.6992 202.586C17.5579 202.153 17.4599 201.665 17.4052 201.123V200.494C17.4599 199.947 17.5579 199.457 17.6992 199.024C17.845 198.591 18.0387 198.222 18.2802 197.917C18.5218 197.607 18.818 197.372 19.1689 197.213C19.5198 197.049 19.9277 196.967 20.3925 196.967C20.8574 196.967 21.2698 197.058 21.6298 197.24C21.9899 197.418 22.2906 197.673 22.5322 198.006C22.7783 198.339 22.9651 198.737 23.0927 199.202C23.2203 199.662 23.2841 200.175 23.2841 200.74ZM22.0126 200.884V200.74C22.0126 200.371 21.9785 200.025 21.9101 199.701C21.8417 199.373 21.7324 199.086 21.582 198.84C21.4316 198.589 21.2333 198.393 20.9873 198.252C20.7412 198.106 20.4381 198.033 20.0781 198.033C19.7591 198.033 19.4811 198.088 19.2441 198.197C19.0117 198.307 18.8134 198.455 18.6494 198.642C18.4853 198.824 18.3509 199.034 18.246 199.271C18.1458 199.503 18.0706 199.744 18.0205 199.995V201.643C18.0934 201.962 18.2119 202.269 18.3759 202.565C18.5445 202.857 18.7679 203.096 19.0458 203.283C19.3284 203.47 19.677 203.563 20.0917 203.563C20.4335 203.563 20.7252 203.495 20.9667 203.358C21.2128 203.217 21.4111 203.023 21.5615 202.777C21.7164 202.531 21.8304 202.246 21.9033 201.923C21.9762 201.599 22.0126 201.253 22.0126 200.884ZM28.0791 204.637C27.5641 204.637 27.097 204.55 26.6777 204.377C26.263 204.199 25.9052 203.951 25.6045 203.632C25.3082 203.313 25.0804 202.935 24.9209 202.497C24.7614 202.06 24.6816 201.581 24.6816 201.062V200.774C24.6816 200.173 24.7705 199.637 24.9482 199.168C25.126 198.694 25.3675 198.293 25.6728 197.965C25.9782 197.637 26.3245 197.388 26.7119 197.22C27.0993 197.051 27.5003 196.967 27.915 196.967C28.4437 196.967 28.8994 197.058 29.2822 197.24C29.6696 197.423 29.9863 197.678 30.2324 198.006C30.4785 198.329 30.6608 198.712 30.7793 199.154C30.8978 199.592 30.957 200.07 30.957 200.59V201.157H25.4336V200.125H29.6924V200.029C29.6741 199.701 29.6058 199.382 29.4873 199.072C29.3733 198.762 29.1911 198.507 28.9404 198.307C28.6898 198.106 28.348 198.006 27.915 198.006C27.6279 198.006 27.3636 198.067 27.122 198.19C26.8805 198.309 26.6732 198.487 26.5 198.724C26.3268 198.961 26.1924 199.25 26.0967 199.592C26.001 199.934 25.9531 200.328 25.9531 200.774V201.062C25.9531 201.412 26.001 201.743 26.0967 202.053C26.1969 202.358 26.3405 202.627 26.5273 202.859C26.7187 203.092 26.9489 203.274 27.2177 203.406C27.4912 203.538 27.8011 203.604 28.1474 203.604C28.5941 203.604 28.9723 203.513 29.2822 203.331C29.5921 203.149 29.8633 202.905 30.0957 202.6L30.8613 203.208C30.7018 203.45 30.499 203.68 30.2529 203.898C30.0068 204.117 29.7038 204.295 29.3437 204.432C28.9883 204.568 28.5667 204.637 28.0791 204.637ZM33.9336 194V204.5H32.6621V194H33.9336Z" fill="black" fill-opacity="0.87"/>
<rect x="87" y="93.5" width="1" height="212" fill="black" fill-opacity="0.87"/>
<path d="M102 106.5C102 99.8726 107.373 94.5 114 94.5H169.667C176.294 94.5 181.667 99.8726 181.667 106.5V304.5H102V106.5Z" fill="black" fill-opacity="0.01"/>
<path d="M102 252H181.667V304.5H102V252Z" fill="url(#paint0_linear_4976_58508)" fill-opacity="0.65"/>
<path d="M183.667 106.5C183.667 99.8726 189.039 94.5 195.667 94.5H251.333C257.961 94.5 263.333 99.8726 263.333 106.5V304.5H183.667V106.5Z" fill="black" fill-opacity="0.01"/>
<path d="M183.667 199.5H263.333V304.5H183.667V199.5Z" fill="url(#paint1_linear_4976_58508)" fill-opacity="0.65"/>
<path d="M293.333 106.5C293.333 99.8726 298.706 94.5 305.333 94.5H361C367.627 94.5 373 99.8726 373 106.5V304.5H293.333V106.5Z" fill="black" fill-opacity="0.01"/>
<path d="M293.333 252H373V304.5H293.333V252Z" fill="url(#paint2_linear_4976_58508)" fill-opacity="0.65"/>
<path d="M375 106.5C375 99.8726 380.373 94.5 387 94.5H442.667C449.294 94.5 454.667 99.8726 454.667 106.5V304.5H375V106.5Z" fill="black" fill-opacity="0.01"/>
<path d="M375 199.5H454.667V304.5H375V199.5Z" fill="url(#paint3_linear_4976_58508)" fill-opacity="0.65"/>
<path d="M484.667 106.5C484.667 99.8726 490.039 94.5 496.667 94.5H552.333C558.961 94.5 564.333 99.8726 564.333 106.5V304.5H484.667V106.5Z" fill="black" fill-opacity="0.01"/>
<path d="M484.667 283.5H564.333V304.5H484.667V283.5Z" fill="url(#paint4_linear_4976_58508)" fill-opacity="0.65"/>
<path d="M566.333 106.5C566.333 99.8726 571.706 94.5 578.333 94.5H634C640.627 94.5 646 99.8726 646 106.5V304.5H566.333V106.5Z" fill="black" fill-opacity="0.01"/>
<path d="M566.333 252H646V304.5H566.333V252Z" fill="url(#paint5_linear_4976_58508)" fill-opacity="0.65"/>
<rect x="87" y="304.5" width="574" height="1" fill="black" fill-opacity="0.87"/>
<rect x="81" y="304.5" width="6" height="1" fill="black" fill-opacity="0.87"/>
<rect x="200.8" y="305.5" width="1" height="6" fill="black" fill-opacity="0.87"/>
<path d="M77.3882 325.427V326.5H72.1177V325.427H77.3882ZM72.3843 316.547V326.5H71.065V316.547H72.3843ZM76.6909 320.826V321.899H72.1177V320.826H76.6909ZM77.3199 316.547V317.627H72.1177V316.547H77.3199ZM80.2652 320.683V326.5H79.0006V319.104H80.1969L80.2652 320.683ZM79.9645 322.521L79.4381 322.501C79.4427 321.995 79.5178 321.528 79.6637 321.1C79.8095 320.667 80.0146 320.291 80.2789 319.972C80.5432 319.653 80.8577 319.407 81.2223 319.233C81.5914 319.056 81.9993 318.967 82.4459 318.967C82.8105 318.967 83.1386 319.017 83.4303 319.117C83.722 319.213 83.9703 319.368 84.1754 319.582C84.385 319.796 84.5445 320.074 84.6539 320.416C84.7633 320.753 84.818 321.166 84.818 321.653V326.5H83.5465V321.64C83.5465 321.252 83.4895 320.942 83.3756 320.71C83.2617 320.473 83.0953 320.302 82.8766 320.197C82.6578 320.088 82.3889 320.033 82.0699 320.033C81.7555 320.033 81.4684 320.099 81.2086 320.231C80.9534 320.364 80.7324 320.546 80.5455 320.778C80.3632 321.011 80.2197 321.277 80.1149 321.578C80.0146 321.874 79.9645 322.189 79.9645 322.521ZM91.7009 319.104H92.8493V326.343C92.8493 326.994 92.7171 327.55 92.4528 328.011C92.1885 328.471 91.8194 328.82 91.3454 329.057C90.876 329.298 90.3337 329.419 89.7184 329.419C89.4632 329.419 89.1625 329.378 88.8161 329.296C88.4743 329.218 88.1371 329.084 87.8044 328.893C87.4763 328.706 87.2005 328.453 86.9772 328.134L87.6403 327.382C87.9502 327.756 88.2738 328.015 88.611 328.161C88.9528 328.307 89.2901 328.38 89.6227 328.38C90.0238 328.38 90.3701 328.305 90.6618 328.154C90.9535 328.004 91.1791 327.781 91.3386 327.484C91.5026 327.193 91.5847 326.833 91.5847 326.404V320.73L91.7009 319.104ZM86.6081 322.884V322.74C86.6081 322.175 86.6742 321.662 86.8063 321.202C86.9431 320.737 87.1367 320.339 87.3874 320.006C87.6426 319.673 87.9502 319.418 88.3102 319.24C88.6703 319.058 89.0759 318.967 89.527 318.967C89.9919 318.967 90.3975 319.049 90.7438 319.213C91.0948 319.372 91.391 319.607 91.6325 319.917C91.8786 320.222 92.0723 320.591 92.2136 321.024C92.3548 321.457 92.4528 321.947 92.5075 322.494V323.123C92.4574 323.665 92.3594 324.153 92.2136 324.586C92.0723 325.019 91.8786 325.388 91.6325 325.693C91.391 325.999 91.0948 326.233 90.7438 326.397C90.3929 326.557 89.9828 326.637 89.5134 326.637C89.0713 326.637 88.6703 326.543 88.3102 326.356C87.9548 326.17 87.6494 325.908 87.3942 325.57C87.139 325.233 86.9431 324.837 86.8063 324.381C86.6742 323.921 86.6081 323.422 86.6081 322.884ZM87.8727 322.74V322.884C87.8727 323.253 87.9092 323.599 87.9821 323.923C88.0596 324.246 88.1758 324.531 88.3308 324.777C88.4903 325.023 88.6931 325.217 88.9392 325.358C89.1852 325.495 89.4792 325.563 89.821 325.563C90.2403 325.563 90.5866 325.475 90.8601 325.297C91.1335 325.119 91.35 324.884 91.5095 324.593C91.6735 324.301 91.8011 323.984 91.8923 323.643V321.995C91.8421 321.744 91.7647 321.503 91.6599 321.271C91.5596 321.034 91.4274 320.824 91.2634 320.642C91.1039 320.455 90.9056 320.307 90.6686 320.197C90.4317 320.088 90.1537 320.033 89.8347 320.033C89.4883 320.033 89.1898 320.106 88.9392 320.252C88.6931 320.393 88.4903 320.589 88.3308 320.84C88.1758 321.086 88.0596 321.373 87.9821 321.701C87.9092 322.025 87.8727 322.371 87.8727 322.74ZM99.3015 325.235V321.428C99.3015 321.136 99.2423 320.883 99.1238 320.669C99.0099 320.45 98.8367 320.282 98.6043 320.163C98.3718 320.045 98.0847 319.985 97.7429 319.985C97.4239 319.985 97.1437 320.04 96.9021 320.149C96.6651 320.259 96.4783 320.402 96.3416 320.58C96.2094 320.758 96.1433 320.949 96.1433 321.154H94.8787C94.8787 320.89 94.947 320.628 95.0838 320.368C95.2205 320.108 95.4164 319.874 95.6717 319.664C95.9314 319.45 96.2413 319.281 96.6013 319.158C96.9659 319.031 97.3715 318.967 97.8181 318.967C98.3559 318.967 98.8299 319.058 99.24 319.24C99.6547 319.423 99.9783 319.698 100.211 320.067C100.448 320.432 100.566 320.89 100.566 321.441V324.887C100.566 325.133 100.587 325.395 100.628 325.673C100.673 325.951 100.739 326.19 100.826 326.391V326.5H99.5066C99.4428 326.354 99.3927 326.16 99.3562 325.919C99.3198 325.673 99.3015 325.445 99.3015 325.235ZM99.5203 322.016L99.534 322.904H98.2556C97.8956 322.904 97.5743 322.934 97.2918 322.993C97.0092 323.048 96.7722 323.132 96.5808 323.246C96.3894 323.36 96.2436 323.504 96.1433 323.677C96.0431 323.845 95.9929 324.044 95.9929 324.271C95.9929 324.504 96.0453 324.716 96.1502 324.907C96.255 325.099 96.4122 325.251 96.6218 325.365C96.836 325.475 97.0981 325.529 97.408 325.529C97.7953 325.529 98.1371 325.447 98.4334 325.283C98.7296 325.119 98.9643 324.919 99.1375 324.682C99.3152 324.445 99.4109 324.215 99.4246 323.991L99.9646 324.6C99.9327 324.791 99.8461 325.003 99.7049 325.235C99.5636 325.468 99.3745 325.691 99.1375 325.905C98.9051 326.115 98.6271 326.29 98.3035 326.432C97.9845 326.568 97.6245 326.637 97.2234 326.637C96.7221 326.637 96.2823 326.539 95.9041 326.343C95.5304 326.147 95.2387 325.885 95.0291 325.557C94.824 325.224 94.7215 324.853 94.7215 324.442C94.7215 324.046 94.7989 323.697 94.9539 323.396C95.1088 323.091 95.3321 322.838 95.6238 322.638C95.9155 322.433 96.2664 322.278 96.6765 322.173C97.0867 322.068 97.5447 322.016 98.0506 322.016H99.5203ZM107.517 319.104H108.666V326.343C108.666 326.994 108.534 327.55 108.269 328.011C108.005 328.471 107.636 328.82 107.162 329.057C106.693 329.298 106.15 329.419 105.535 329.419C105.28 329.419 104.979 329.378 104.633 329.296C104.291 329.218 103.954 329.084 103.621 328.893C103.293 328.706 103.017 328.453 102.794 328.134L103.457 327.382C103.767 327.756 104.09 328.015 104.428 328.161C104.769 328.307 105.107 328.38 105.439 328.38C105.84 328.38 106.187 328.305 106.478 328.154C106.77 328.004 106.996 327.781 107.155 327.484C107.319 327.193 107.401 326.833 107.401 326.404V320.73L107.517 319.104ZM102.425 322.884V322.74C102.425 322.175 102.491 321.662 102.623 321.202C102.76 320.737 102.953 320.339 103.204 320.006C103.459 319.673 103.767 319.418 104.127 319.24C104.487 319.058 104.892 318.967 105.344 318.967C105.808 318.967 106.214 319.049 106.56 319.213C106.911 319.372 107.208 319.607 107.449 319.917C107.695 320.222 107.889 320.591 108.03 321.024C108.171 321.457 108.269 321.947 108.324 322.494V323.123C108.274 323.665 108.176 324.153 108.03 324.586C107.889 325.019 107.695 325.388 107.449 325.693C107.208 325.999 106.911 326.233 106.56 326.397C106.209 326.557 105.799 326.637 105.33 326.637C104.888 326.637 104.487 326.543 104.127 326.356C103.771 326.17 103.466 325.908 103.211 325.57C102.956 325.233 102.76 324.837 102.623 324.381C102.491 323.921 102.425 323.422 102.425 322.884ZM103.689 322.74V322.884C103.689 323.253 103.726 323.599 103.799 323.923C103.876 324.246 103.992 324.531 104.147 324.777C104.307 325.023 104.51 325.217 104.756 325.358C105.002 325.495 105.296 325.563 105.638 325.563C106.057 325.563 106.403 325.475 106.677 325.297C106.95 325.119 107.167 324.884 107.326 324.593C107.49 324.301 107.618 323.984 107.709 323.643V321.995C107.659 321.744 107.581 321.503 107.476 321.271C107.376 321.034 107.244 320.824 107.08 320.642C106.92 320.455 106.722 320.307 106.485 320.197C106.248 320.088 105.97 320.033 105.651 320.033C105.305 320.033 105.006 320.106 104.756 320.252C104.51 320.393 104.307 320.589 104.147 320.84C103.992 321.086 103.876 321.373 103.799 321.701C103.726 322.025 103.689 322.371 103.689 322.74ZM113.826 326.637C113.311 326.637 112.844 326.55 112.425 326.377C112.01 326.199 111.652 325.951 111.351 325.632C111.055 325.313 110.827 324.935 110.668 324.497C110.508 324.06 110.429 323.581 110.429 323.062V322.774C110.429 322.173 110.518 321.637 110.695 321.168C110.873 320.694 111.115 320.293 111.42 319.965C111.725 319.637 112.072 319.388 112.459 319.22C112.846 319.051 113.247 318.967 113.662 318.967C114.191 318.967 114.646 319.058 115.029 319.24C115.417 319.423 115.733 319.678 115.979 320.006C116.226 320.329 116.408 320.712 116.526 321.154C116.645 321.592 116.704 322.07 116.704 322.59V323.157H111.181V322.125H115.439V322.029C115.421 321.701 115.353 321.382 115.234 321.072C115.12 320.762 114.938 320.507 114.687 320.307C114.437 320.106 114.095 320.006 113.662 320.006C113.375 320.006 113.111 320.067 112.869 320.19C112.628 320.309 112.42 320.487 112.247 320.724C112.074 320.961 111.939 321.25 111.844 321.592C111.748 321.934 111.7 322.328 111.7 322.774V323.062C111.7 323.412 111.748 323.743 111.844 324.053C111.944 324.358 112.087 324.627 112.274 324.859C112.466 325.092 112.696 325.274 112.965 325.406C113.238 325.538 113.548 325.604 113.894 325.604C114.341 325.604 114.719 325.513 115.029 325.331C115.339 325.149 115.61 324.905 115.843 324.6L116.608 325.208C116.449 325.45 116.246 325.68 116 325.898C115.754 326.117 115.451 326.295 115.091 326.432C114.735 326.568 114.314 326.637 113.826 326.637ZM119.608 320.573V326.5H118.337V319.104H119.54L119.608 320.573ZM119.349 322.521L118.761 322.501C118.765 321.995 118.831 321.528 118.959 321.1C119.087 320.667 119.276 320.291 119.526 319.972C119.777 319.653 120.089 319.407 120.463 319.233C120.837 319.056 121.27 318.967 121.762 318.967C122.108 318.967 122.427 319.017 122.719 319.117C123.01 319.213 123.263 319.366 123.478 319.575C123.692 319.785 123.858 320.054 123.977 320.382C124.095 320.71 124.154 321.106 124.154 321.571V326.5H122.89V321.633C122.89 321.245 122.824 320.936 122.691 320.703C122.564 320.471 122.382 320.302 122.145 320.197C121.908 320.088 121.63 320.033 121.311 320.033C120.937 320.033 120.625 320.099 120.374 320.231C120.123 320.364 119.923 320.546 119.772 320.778C119.622 321.011 119.513 321.277 119.444 321.578C119.381 321.874 119.349 322.189 119.349 322.521ZM124.141 321.824L123.293 322.084C123.298 321.678 123.364 321.289 123.491 320.915C123.623 320.541 123.813 320.209 124.059 319.917C124.309 319.625 124.617 319.395 124.981 319.227C125.346 319.053 125.763 318.967 126.232 318.967C126.629 318.967 126.98 319.019 127.285 319.124C127.595 319.229 127.855 319.391 128.064 319.609C128.279 319.824 128.44 320.099 128.55 320.437C128.659 320.774 128.714 321.175 128.714 321.64V326.5H127.442V321.626C127.442 321.211 127.376 320.89 127.244 320.662C127.117 320.43 126.934 320.268 126.697 320.177C126.465 320.081 126.187 320.033 125.863 320.033C125.585 320.033 125.339 320.081 125.125 320.177C124.911 320.272 124.731 320.405 124.585 320.573C124.439 320.737 124.327 320.926 124.25 321.141C124.177 321.355 124.141 321.583 124.141 321.824ZM133.867 326.637C133.352 326.637 132.885 326.55 132.466 326.377C132.051 326.199 131.693 325.951 131.393 325.632C131.096 325.313 130.869 324.935 130.709 324.497C130.55 324.06 130.47 323.581 130.47 323.062V322.774C130.47 322.173 130.559 321.637 130.736 321.168C130.914 320.694 131.156 320.293 131.461 319.965C131.766 319.637 132.113 319.388 132.5 319.22C132.887 319.051 133.288 318.967 133.703 318.967C134.232 318.967 134.688 319.058 135.07 319.24C135.458 319.423 135.775 319.678 136.021 320.006C136.267 320.329 136.449 320.712 136.567 321.154C136.686 321.592 136.745 322.07 136.745 322.59V323.157H131.222V322.125H135.481V322.029C135.462 321.701 135.394 321.382 135.275 321.072C135.162 320.762 134.979 320.507 134.729 320.307C134.478 320.106 134.136 320.006 133.703 320.006C133.416 320.006 133.152 320.067 132.91 320.19C132.669 320.309 132.461 320.487 132.288 320.724C132.115 320.961 131.981 321.25 131.885 321.592C131.789 321.934 131.741 322.328 131.741 322.774V323.062C131.741 323.412 131.789 323.743 131.885 324.053C131.985 324.358 132.129 324.627 132.316 324.859C132.507 325.092 132.737 325.274 133.006 325.406C133.279 325.538 133.589 325.604 133.936 325.604C134.382 325.604 134.761 325.513 135.07 325.331C135.38 325.149 135.651 324.905 135.884 324.6L136.65 325.208C136.49 325.45 136.287 325.68 136.041 325.898C135.795 326.117 135.492 326.295 135.132 326.432C134.776 326.568 134.355 326.637 133.867 326.637ZM139.656 320.683V326.5H138.392V319.104H139.588L139.656 320.683ZM139.356 322.521L138.829 322.501C138.834 321.995 138.909 321.528 139.055 321.1C139.201 320.667 139.406 320.291 139.67 319.972C139.934 319.653 140.249 319.407 140.613 319.233C140.983 319.056 141.39 318.967 141.837 318.967C142.202 318.967 142.53 319.017 142.821 319.117C143.113 319.213 143.361 319.368 143.567 319.582C143.776 319.796 143.936 320.074 144.045 320.416C144.154 320.753 144.209 321.166 144.209 321.653V326.5H142.938V321.64C142.938 321.252 142.881 320.942 142.767 320.71C142.653 320.473 142.486 320.302 142.268 320.197C142.049 320.088 141.78 320.033 141.461 320.033C141.147 320.033 140.86 320.099 140.6 320.231C140.345 320.364 140.124 320.546 139.937 320.778C139.754 321.011 139.611 321.277 139.506 321.578C139.406 321.874 139.356 322.189 139.356 322.521ZM149.397 319.104V320.074H145.398V319.104H149.397ZM146.751 317.306H148.016V324.668C148.016 324.919 148.055 325.108 148.132 325.235C148.21 325.363 148.31 325.447 148.433 325.488C148.556 325.529 148.688 325.55 148.829 325.55C148.934 325.55 149.044 325.541 149.157 325.522C149.276 325.5 149.365 325.481 149.424 325.468L149.431 326.5C149.331 326.532 149.198 326.562 149.034 326.589C148.875 326.621 148.681 326.637 148.453 326.637C148.143 326.637 147.859 326.575 147.599 326.452C147.339 326.329 147.132 326.124 146.977 325.837C146.826 325.545 146.751 325.153 146.751 324.661V317.306ZM160.189 323.984C160.189 323.752 160.152 323.547 160.08 323.369C160.011 323.187 159.888 323.023 159.71 322.877C159.537 322.731 159.296 322.592 158.986 322.46C158.68 322.328 158.293 322.193 157.824 322.057C157.331 321.911 156.887 321.749 156.491 321.571C156.094 321.389 155.755 321.182 155.472 320.949C155.19 320.717 154.973 320.45 154.823 320.149C154.672 319.849 154.597 319.505 154.597 319.117C154.597 318.73 154.677 318.372 154.836 318.044C154.996 317.716 155.224 317.431 155.52 317.189C155.821 316.943 156.178 316.752 156.593 316.615C157.008 316.479 157.47 316.41 157.981 316.41C158.728 316.41 159.362 316.554 159.881 316.841C160.405 317.123 160.804 317.495 161.078 317.955C161.351 318.411 161.488 318.898 161.488 319.418H160.175C160.175 319.044 160.095 318.714 159.936 318.427C159.776 318.135 159.535 317.907 159.211 317.743C158.888 317.575 158.478 317.49 157.981 317.49C157.511 317.49 157.124 317.561 156.819 317.702C156.513 317.843 156.286 318.035 156.135 318.276C155.989 318.518 155.916 318.794 155.916 319.104C155.916 319.313 155.96 319.505 156.046 319.678C156.137 319.846 156.276 320.004 156.463 320.149C156.655 320.295 156.896 320.43 157.188 320.553C157.484 320.676 157.837 320.794 158.247 320.908C158.813 321.068 159.3 321.245 159.71 321.441C160.121 321.637 160.458 321.858 160.722 322.104C160.991 322.346 161.189 322.622 161.317 322.932C161.449 323.237 161.515 323.583 161.515 323.971C161.515 324.376 161.433 324.743 161.269 325.071C161.105 325.399 160.87 325.68 160.565 325.912C160.26 326.145 159.893 326.325 159.464 326.452C159.04 326.575 158.566 326.637 158.042 326.637C157.582 326.637 157.129 326.573 156.682 326.445C156.24 326.318 155.837 326.126 155.472 325.871C155.112 325.616 154.823 325.301 154.604 324.928C154.39 324.549 154.283 324.112 154.283 323.615H155.595C155.595 323.957 155.661 324.251 155.793 324.497C155.926 324.739 156.106 324.939 156.333 325.099C156.566 325.258 156.828 325.377 157.12 325.454C157.416 325.527 157.723 325.563 158.042 325.563C158.503 325.563 158.892 325.5 159.211 325.372C159.53 325.244 159.772 325.062 159.936 324.825C160.105 324.588 160.189 324.308 160.189 323.984ZM166.245 326.637C165.73 326.637 165.263 326.55 164.843 326.377C164.429 326.199 164.071 325.951 163.77 325.632C163.474 325.313 163.246 324.935 163.086 324.497C162.927 324.06 162.847 323.581 162.847 323.062V322.774C162.847 322.173 162.936 321.637 163.114 321.168C163.291 320.694 163.533 320.293 163.838 319.965C164.144 319.637 164.49 319.388 164.877 319.22C165.265 319.051 165.666 318.967 166.081 318.967C166.609 318.967 167.065 319.058 167.448 319.24C167.835 319.423 168.152 319.678 168.398 320.006C168.644 320.329 168.826 320.712 168.945 321.154C169.063 321.592 169.123 322.07 169.123 322.59V323.157H163.599V322.125H167.858V322.029C167.84 321.701 167.771 321.382 167.653 321.072C167.539 320.762 167.357 320.507 167.106 320.307C166.855 320.106 166.514 320.006 166.081 320.006C165.793 320.006 165.529 320.067 165.288 320.19C165.046 320.309 164.839 320.487 164.666 320.724C164.492 320.961 164.358 321.25 164.262 321.592C164.166 321.934 164.119 322.328 164.119 322.774V323.062C164.119 323.412 164.166 323.743 164.262 324.053C164.362 324.358 164.506 324.627 164.693 324.859C164.884 325.092 165.114 325.274 165.383 325.406C165.657 325.538 165.967 325.604 166.313 325.604C166.76 325.604 167.138 325.513 167.448 325.331C167.758 325.149 168.029 324.905 168.261 324.6L169.027 325.208C168.867 325.45 168.665 325.68 168.418 325.898C168.172 326.117 167.869 326.295 167.509 326.432C167.154 326.568 166.732 326.637 166.245 326.637ZM173.729 325.598C174.03 325.598 174.308 325.536 174.563 325.413C174.818 325.29 175.028 325.121 175.192 324.907C175.356 324.688 175.449 324.44 175.472 324.162H176.675C176.653 324.6 176.504 325.007 176.231 325.386C175.962 325.759 175.609 326.062 175.171 326.295C174.734 326.523 174.253 326.637 173.729 326.637C173.173 326.637 172.688 326.539 172.273 326.343C171.863 326.147 171.521 325.878 171.248 325.536C170.979 325.194 170.776 324.802 170.639 324.36C170.507 323.914 170.441 323.442 170.441 322.945V322.658C170.441 322.161 170.507 321.692 170.639 321.25C170.776 320.803 170.979 320.409 171.248 320.067C171.521 319.726 171.863 319.457 172.273 319.261C172.688 319.065 173.173 318.967 173.729 318.967C174.308 318.967 174.814 319.085 175.247 319.322C175.68 319.555 176.019 319.874 176.265 320.279C176.516 320.68 176.653 321.136 176.675 321.646H175.472C175.449 321.341 175.363 321.065 175.212 320.819C175.067 320.573 174.866 320.377 174.611 320.231C174.36 320.081 174.066 320.006 173.729 320.006C173.342 320.006 173.016 320.083 172.752 320.238C172.492 320.389 172.284 320.594 172.129 320.854C171.979 321.109 171.87 321.394 171.801 321.708C171.738 322.018 171.706 322.335 171.706 322.658V322.945C171.706 323.269 171.738 323.588 171.801 323.902C171.865 324.217 171.972 324.502 172.123 324.757C172.278 325.012 172.485 325.217 172.745 325.372C173.009 325.522 173.337 325.598 173.729 325.598ZM181.364 319.104V320.074H177.365V319.104H181.364ZM178.718 317.306H179.983V324.668C179.983 324.919 180.022 325.108 180.099 325.235C180.177 325.363 180.277 325.447 180.4 325.488C180.523 325.529 180.655 325.55 180.797 325.55C180.901 325.55 181.011 325.541 181.125 325.522C181.243 325.5 181.332 325.481 181.391 325.468L181.398 326.5C181.298 326.532 181.166 326.562 181.002 326.589C180.842 326.621 180.648 326.637 180.421 326.637C180.111 326.637 179.826 326.575 179.566 326.452C179.306 326.329 179.099 326.124 178.944 325.837C178.794 325.545 178.718 325.153 178.718 324.661V317.306ZM184.391 319.104V326.5H183.12V319.104H184.391ZM183.024 317.142C183.024 316.937 183.086 316.763 183.209 316.622C183.336 316.481 183.523 316.41 183.769 316.41C184.011 316.41 184.195 316.481 184.323 316.622C184.455 316.763 184.521 316.937 184.521 317.142C184.521 317.338 184.455 317.506 184.323 317.647C184.195 317.784 184.011 317.853 183.769 317.853C183.523 317.853 183.336 317.784 183.209 317.647C183.086 317.506 183.024 317.338 183.024 317.142ZM186.257 322.884V322.727C186.257 322.193 186.334 321.699 186.489 321.243C186.644 320.783 186.867 320.384 187.159 320.047C187.451 319.705 187.804 319.441 188.219 319.254C188.633 319.062 189.098 318.967 189.613 318.967C190.133 318.967 190.6 319.062 191.014 319.254C191.434 319.441 191.789 319.705 192.081 320.047C192.377 320.384 192.603 320.783 192.758 321.243C192.913 321.699 192.99 322.193 192.99 322.727V322.884C192.99 323.417 192.913 323.911 192.758 324.367C192.603 324.823 192.377 325.222 192.081 325.563C191.789 325.901 191.436 326.165 191.021 326.356C190.611 326.543 190.146 326.637 189.627 326.637C189.107 326.637 188.64 326.543 188.225 326.356C187.811 326.165 187.455 325.901 187.159 325.563C186.867 325.222 186.644 324.823 186.489 324.367C186.334 323.911 186.257 323.417 186.257 322.884ZM187.521 322.727V322.884C187.521 323.253 187.565 323.602 187.651 323.93C187.738 324.253 187.868 324.54 188.041 324.791C188.219 325.042 188.44 325.24 188.704 325.386C188.968 325.527 189.276 325.598 189.627 325.598C189.973 325.598 190.276 325.527 190.536 325.386C190.8 325.24 191.019 325.042 191.192 324.791C191.365 324.54 191.495 324.253 191.582 323.93C191.673 323.602 191.719 323.253 191.719 322.884V322.727C191.719 322.362 191.673 322.018 191.582 321.694C191.495 321.366 191.363 321.077 191.185 320.826C191.012 320.571 190.793 320.37 190.529 320.225C190.269 320.079 189.964 320.006 189.613 320.006C189.267 320.006 188.961 320.079 188.697 320.225C188.437 320.37 188.219 320.571 188.041 320.826C187.868 321.077 187.738 321.366 187.651 321.694C187.565 322.018 187.521 322.362 187.521 322.727ZM196.011 320.683V326.5H194.746V319.104H195.942L196.011 320.683ZM195.71 322.521L195.183 322.501C195.188 321.995 195.263 321.528 195.409 321.1C195.555 320.667 195.76 320.291 196.024 319.972C196.289 319.653 196.603 319.407 196.968 319.233C197.337 319.056 197.745 318.967 198.191 318.967C198.556 318.967 198.884 319.017 199.176 319.117C199.467 319.213 199.716 319.368 199.921 319.582C200.13 319.796 200.29 320.074 200.399 320.416C200.509 320.753 200.563 321.166 200.563 321.653V326.5H199.292V321.64C199.292 321.252 199.235 320.942 199.121 320.71C199.007 320.473 198.841 320.302 198.622 320.197C198.403 320.088 198.134 320.033 197.815 320.033C197.501 320.033 197.214 320.099 196.954 320.231C196.699 320.364 196.478 320.546 196.291 320.778C196.109 321.011 195.965 321.277 195.86 321.578C195.76 321.874 195.71 322.189 195.71 322.521Z" fill="black" fill-opacity="0.87"/>
<rect x="315.6" y="315.5" width="1" height="6" fill="black" fill-opacity="0.87"/>
<rect x="430.4" y="305.5" width="1" height="6" fill="black" fill-opacity="0.87"/>
<path d="M365.129 321.252V324.375C365.024 324.531 364.856 324.707 364.625 324.902C364.395 325.094 364.076 325.262 363.67 325.406C363.268 325.547 362.748 325.617 362.111 325.617C361.592 325.617 361.113 325.527 360.676 325.348C360.242 325.164 359.865 324.898 359.545 324.551C359.229 324.199 358.983 323.773 358.807 323.273C358.635 322.77 358.549 322.199 358.549 321.562V320.9C358.549 320.264 358.623 319.695 358.772 319.195C358.924 318.695 359.147 318.271 359.44 317.924C359.733 317.572 360.092 317.307 360.518 317.127C360.943 316.943 361.432 316.852 361.983 316.852C362.635 316.852 363.18 316.965 363.617 317.191C364.059 317.414 364.402 317.723 364.649 318.117C364.899 318.512 365.059 318.961 365.129 319.465H363.998C363.947 319.156 363.846 318.875 363.693 318.621C363.545 318.367 363.332 318.164 363.055 318.012C362.777 317.855 362.42 317.777 361.983 317.777C361.588 317.777 361.246 317.85 360.957 317.994C360.668 318.139 360.43 318.346 360.242 318.615C360.055 318.885 359.914 319.211 359.82 319.594C359.731 319.977 359.686 320.408 359.686 320.889V321.562C359.686 322.055 359.742 322.494 359.856 322.881C359.973 323.268 360.139 323.598 360.354 323.871C360.568 324.141 360.824 324.346 361.121 324.486C361.422 324.627 361.754 324.697 362.117 324.697C362.52 324.697 362.846 324.664 363.096 324.598C363.346 324.527 363.541 324.445 363.682 324.352C363.822 324.254 363.93 324.162 364.004 324.076V322.166H362.029V321.252H365.129ZM367.924 320.156V325.5H366.84V319.16H367.895L367.924 320.156ZM369.904 319.125L369.899 320.133C369.809 320.113 369.723 320.102 369.641 320.098C369.563 320.09 369.473 320.086 369.371 320.086C369.121 320.086 368.9 320.125 368.709 320.203C368.518 320.281 368.356 320.391 368.223 320.531C368.09 320.672 367.984 320.84 367.906 321.035C367.832 321.227 367.783 321.438 367.76 321.668L367.455 321.844C367.455 321.461 367.492 321.102 367.567 320.766C367.645 320.43 367.764 320.133 367.924 319.875C368.084 319.613 368.287 319.41 368.533 319.266C368.783 319.117 369.08 319.043 369.424 319.043C369.502 319.043 369.592 319.053 369.693 319.072C369.795 319.088 369.865 319.105 369.904 319.125ZM370.502 322.4V322.266C370.502 321.809 370.568 321.385 370.701 320.994C370.834 320.6 371.025 320.258 371.275 319.969C371.525 319.676 371.828 319.449 372.184 319.289C372.539 319.125 372.938 319.043 373.379 319.043C373.824 319.043 374.225 319.125 374.58 319.289C374.94 319.449 375.244 319.676 375.494 319.969C375.748 320.258 375.942 320.6 376.074 320.994C376.207 321.385 376.274 321.809 376.274 322.266V322.4C376.274 322.857 376.207 323.281 376.074 323.672C375.942 324.062 375.748 324.404 375.494 324.697C375.244 324.986 374.942 325.213 374.586 325.377C374.234 325.537 373.836 325.617 373.391 325.617C372.945 325.617 372.545 325.537 372.19 325.377C371.834 325.213 371.529 324.986 371.275 324.697C371.025 324.404 370.834 324.062 370.701 323.672C370.568 323.281 370.502 322.857 370.502 322.4ZM371.586 322.266V322.4C371.586 322.717 371.623 323.016 371.697 323.297C371.772 323.574 371.883 323.82 372.031 324.035C372.184 324.25 372.373 324.42 372.6 324.545C372.826 324.666 373.09 324.727 373.391 324.727C373.688 324.727 373.947 324.666 374.17 324.545C374.397 324.42 374.584 324.25 374.733 324.035C374.881 323.82 374.992 323.574 375.067 323.297C375.145 323.016 375.184 322.717 375.184 322.4V322.266C375.184 321.953 375.145 321.658 375.067 321.381C374.992 321.1 374.879 320.852 374.727 320.637C374.578 320.418 374.391 320.246 374.164 320.121C373.942 319.996 373.68 319.934 373.379 319.934C373.082 319.934 372.82 319.996 372.594 320.121C372.371 320.246 372.184 320.418 372.031 320.637C371.883 320.852 371.772 321.1 371.697 321.381C371.623 321.658 371.586 321.953 371.586 322.266ZM381.512 324.035V319.16H382.602V325.5H381.565L381.512 324.035ZM381.717 322.699L382.168 322.688C382.168 323.109 382.123 323.5 382.033 323.859C381.947 324.215 381.807 324.523 381.611 324.785C381.416 325.047 381.16 325.252 380.844 325.4C380.527 325.545 380.143 325.617 379.69 325.617C379.381 325.617 379.098 325.572 378.84 325.482C378.586 325.393 378.367 325.254 378.184 325.066C378 324.879 377.858 324.635 377.756 324.334C377.658 324.033 377.609 323.672 377.609 323.25V319.16H378.693V323.262C378.693 323.547 378.725 323.783 378.787 323.971C378.854 324.154 378.942 324.301 379.051 324.41C379.164 324.516 379.289 324.59 379.426 324.633C379.567 324.676 379.711 324.697 379.859 324.697C380.32 324.697 380.686 324.609 380.955 324.434C381.225 324.254 381.418 324.014 381.535 323.713C381.656 323.408 381.717 323.07 381.717 322.699ZM385.338 320.379V327.938H384.248V319.16H385.244L385.338 320.379ZM389.609 322.277V322.4C389.609 322.861 389.555 323.289 389.445 323.684C389.336 324.074 389.176 324.414 388.965 324.703C388.758 324.992 388.502 325.217 388.197 325.377C387.893 325.537 387.543 325.617 387.149 325.617C386.746 325.617 386.391 325.551 386.082 325.418C385.774 325.285 385.512 325.092 385.297 324.838C385.082 324.584 384.91 324.279 384.781 323.924C384.656 323.568 384.57 323.168 384.524 322.723V322.066C384.57 321.598 384.658 321.178 384.787 320.807C384.916 320.436 385.086 320.119 385.297 319.857C385.512 319.592 385.772 319.391 386.076 319.254C386.381 319.113 386.733 319.043 387.131 319.043C387.529 319.043 387.883 319.121 388.192 319.277C388.5 319.43 388.76 319.648 388.971 319.934C389.182 320.219 389.34 320.561 389.445 320.959C389.555 321.354 389.609 321.793 389.609 322.277ZM388.52 322.4V322.277C388.52 321.961 388.486 321.664 388.42 321.387C388.354 321.105 388.25 320.859 388.109 320.648C387.973 320.434 387.797 320.266 387.582 320.145C387.367 320.02 387.111 319.957 386.815 319.957C386.541 319.957 386.303 320.004 386.1 320.098C385.9 320.191 385.731 320.318 385.59 320.479C385.449 320.635 385.334 320.814 385.244 321.018C385.158 321.217 385.094 321.424 385.051 321.639V323.156C385.129 323.43 385.238 323.688 385.379 323.93C385.52 324.168 385.707 324.361 385.942 324.51C386.176 324.654 386.471 324.727 386.826 324.727C387.119 324.727 387.371 324.666 387.582 324.545C387.797 324.42 387.973 324.25 388.109 324.035C388.25 323.82 388.354 323.574 388.42 323.297C388.486 323.016 388.52 322.717 388.52 322.4Z" fill="black" fill-opacity="0.87"/>
<rect x="545.2" y="315.5" width="1" height="6" fill="black" fill-opacity="0.87"/>
<rect x="660" y="305.5" width="1" height="6" fill="black" fill-opacity="0.87"/>
<path d="M594.729 321.252V324.375C594.623 324.531 594.455 324.707 594.225 324.902C593.994 325.094 593.676 325.262 593.27 325.406C592.868 325.547 592.348 325.617 591.711 325.617C591.192 325.617 590.713 325.527 590.276 325.348C589.842 325.164 589.465 324.898 589.145 324.551C588.828 324.199 588.582 323.773 588.407 323.273C588.235 322.77 588.149 322.199 588.149 321.562V320.9C588.149 320.264 588.223 319.695 588.371 319.195C588.524 318.695 588.746 318.271 589.039 317.924C589.332 317.572 589.692 317.307 590.118 317.127C590.543 316.943 591.032 316.852 591.582 316.852C592.235 316.852 592.78 316.965 593.217 317.191C593.659 317.414 594.002 317.723 594.248 318.117C594.498 318.512 594.659 318.961 594.729 319.465H593.598C593.547 319.156 593.446 318.875 593.293 318.621C593.145 318.367 592.932 318.164 592.655 318.012C592.377 317.855 592.02 317.777 591.582 317.777C591.188 317.777 590.846 317.85 590.557 317.994C590.268 318.139 590.03 318.346 589.842 318.615C589.655 318.885 589.514 319.211 589.42 319.594C589.33 319.977 589.285 320.408 589.285 320.889V321.562C589.285 322.055 589.342 322.494 589.455 322.881C589.573 323.268 589.739 323.598 589.953 323.871C590.168 324.141 590.424 324.346 590.721 324.486C591.022 324.627 591.354 324.697 591.717 324.697C592.119 324.697 592.446 324.664 592.696 324.598C592.946 324.527 593.141 324.445 593.282 324.352C593.422 324.254 593.53 324.162 593.604 324.076V322.166H591.629V321.252H594.729ZM597.524 320.156V325.5H596.44V319.16H597.494L597.524 320.156ZM599.504 319.125L599.498 320.133C599.409 320.113 599.323 320.102 599.241 320.098C599.162 320.09 599.073 320.086 598.971 320.086C598.721 320.086 598.5 320.125 598.309 320.203C598.118 320.281 597.955 320.391 597.823 320.531C597.69 320.672 597.584 320.84 597.506 321.035C597.432 321.227 597.383 321.438 597.36 321.668L597.055 321.844C597.055 321.461 597.092 321.102 597.166 320.766C597.244 320.43 597.364 320.133 597.524 319.875C597.684 319.613 597.887 319.41 598.133 319.266C598.383 319.117 598.68 319.043 599.024 319.043C599.102 319.043 599.192 319.053 599.293 319.072C599.395 319.088 599.465 319.105 599.504 319.125ZM600.102 322.4V322.266C600.102 321.809 600.168 321.385 600.301 320.994C600.434 320.6 600.625 320.258 600.875 319.969C601.125 319.676 601.428 319.449 601.784 319.289C602.139 319.125 602.537 319.043 602.979 319.043C603.424 319.043 603.825 319.125 604.18 319.289C604.539 319.449 604.844 319.676 605.094 319.969C605.348 320.258 605.541 320.6 605.674 320.994C605.807 321.385 605.873 321.809 605.873 322.266V322.4C605.873 322.857 605.807 323.281 605.674 323.672C605.541 324.062 605.348 324.404 605.094 324.697C604.844 324.986 604.541 325.213 604.186 325.377C603.834 325.537 603.436 325.617 602.991 325.617C602.545 325.617 602.145 325.537 601.789 325.377C601.434 325.213 601.129 324.986 600.875 324.697C600.625 324.404 600.434 324.062 600.301 323.672C600.168 323.281 600.102 322.857 600.102 322.4ZM601.186 322.266V322.4C601.186 322.717 601.223 323.016 601.297 323.297C601.371 323.574 601.483 323.82 601.631 324.035C601.784 324.25 601.973 324.42 602.2 324.545C602.426 324.666 602.69 324.727 602.991 324.727C603.287 324.727 603.547 324.666 603.77 324.545C603.996 324.42 604.184 324.25 604.332 324.035C604.481 323.82 604.592 323.574 604.666 323.297C604.744 323.016 604.784 322.717 604.784 322.4V322.266C604.784 321.953 604.744 321.658 604.666 321.381C604.592 321.1 604.479 320.852 604.327 320.637C604.178 320.418 603.991 320.246 603.764 320.121C603.541 319.996 603.28 319.934 602.979 319.934C602.682 319.934 602.42 319.996 602.194 320.121C601.971 320.246 601.784 320.418 601.631 320.637C601.483 320.852 601.371 321.1 601.297 321.381C601.223 321.658 601.186 321.953 601.186 322.266ZM611.112 324.035V319.16H612.202V325.5H611.164L611.112 324.035ZM611.317 322.699L611.768 322.688C611.768 323.109 611.723 323.5 611.633 323.859C611.547 324.215 611.407 324.523 611.211 324.785C611.016 325.047 610.76 325.252 610.444 325.4C610.127 325.545 609.743 325.617 609.289 325.617C608.981 325.617 608.698 325.572 608.44 325.482C608.186 325.393 607.967 325.254 607.784 325.066C607.6 324.879 607.457 324.635 607.356 324.334C607.258 324.033 607.209 323.672 607.209 323.25V319.16H608.293V323.262C608.293 323.547 608.325 323.783 608.387 323.971C608.453 324.154 608.541 324.301 608.651 324.41C608.764 324.516 608.889 324.59 609.026 324.633C609.166 324.676 609.311 324.697 609.459 324.697C609.92 324.697 610.285 324.609 610.555 324.434C610.825 324.254 611.018 324.014 611.135 323.713C611.256 323.408 611.317 323.07 611.317 322.699ZM614.938 320.379V327.938H613.848V319.16H614.844L614.938 320.379ZM619.209 322.277V322.4C619.209 322.861 619.155 323.289 619.045 323.684C618.936 324.074 618.776 324.414 618.565 324.703C618.358 324.992 618.102 325.217 617.797 325.377C617.493 325.537 617.143 325.617 616.748 325.617C616.346 325.617 615.991 325.551 615.682 325.418C615.373 325.285 615.112 325.092 614.897 324.838C614.682 324.584 614.51 324.279 614.381 323.924C614.256 323.568 614.17 323.168 614.123 322.723V322.066C614.17 321.598 614.258 321.178 614.387 320.807C614.516 320.436 614.686 320.119 614.897 319.857C615.112 319.592 615.371 319.391 615.676 319.254C615.981 319.113 616.332 319.043 616.731 319.043C617.129 319.043 617.483 319.121 617.791 319.277C618.1 319.43 618.36 319.648 618.571 319.934C618.782 320.219 618.94 320.561 619.045 320.959C619.155 321.354 619.209 321.793 619.209 322.277ZM618.119 322.4V322.277C618.119 321.961 618.086 321.664 618.02 321.387C617.953 321.105 617.85 320.859 617.709 320.648C617.573 320.434 617.397 320.266 617.182 320.145C616.967 320.02 616.711 319.957 616.414 319.957C616.141 319.957 615.903 320.004 615.7 320.098C615.5 320.191 615.33 320.318 615.19 320.479C615.049 320.635 614.934 320.814 614.844 321.018C614.758 321.217 614.694 321.424 614.651 321.639V323.156C614.729 323.43 614.838 323.688 614.979 323.93C615.119 324.168 615.307 324.361 615.541 324.51C615.776 324.654 616.071 324.727 616.426 324.727C616.719 324.727 616.971 324.666 617.182 324.545C617.397 324.42 617.573 324.25 617.709 324.035C617.85 323.82 617.953 323.574 618.02 323.297C618.086 323.016 618.119 322.717 618.119 322.4Z" fill="black" fill-opacity="0.87"/>
<path d="M364.336 345.427V346.5H359.359V345.427H364.336ZM359.619 336.547V346.5H358.3V336.547H359.619ZM370.143 345.235V341.428C370.143 341.136 370.083 340.883 369.965 340.669C369.851 340.45 369.678 340.282 369.445 340.163C369.213 340.045 368.926 339.985 368.584 339.985C368.265 339.985 367.985 340.04 367.743 340.149C367.506 340.259 367.319 340.402 367.183 340.58C367.05 340.758 366.984 340.949 366.984 341.154H365.72C365.72 340.89 365.788 340.628 365.925 340.368C366.061 340.108 366.257 339.874 366.513 339.664C366.772 339.45 367.082 339.281 367.442 339.158C367.807 339.031 368.212 338.967 368.659 338.967C369.197 338.967 369.671 339.058 370.081 339.24C370.496 339.423 370.819 339.698 371.052 340.067C371.289 340.432 371.407 340.89 371.407 341.441V344.887C371.407 345.133 371.428 345.395 371.469 345.673C371.514 345.951 371.58 346.19 371.667 346.391V346.5H370.348C370.284 346.354 370.234 346.16 370.197 345.919C370.161 345.673 370.143 345.445 370.143 345.235ZM370.361 342.016L370.375 342.904H369.097C368.737 342.904 368.415 342.934 368.133 342.993C367.85 343.048 367.613 343.132 367.422 343.246C367.23 343.36 367.085 343.504 366.984 343.677C366.884 343.845 366.834 344.044 366.834 344.271C366.834 344.504 366.886 344.716 366.991 344.907C367.096 345.099 367.253 345.251 367.463 345.365C367.677 345.475 367.939 345.529 368.249 345.529C368.636 345.529 368.978 345.447 369.274 345.283C369.571 345.119 369.805 344.919 369.978 344.682C370.156 344.445 370.252 344.215 370.266 343.991L370.806 344.6C370.774 344.791 370.687 345.003 370.546 345.235C370.405 345.468 370.215 345.691 369.978 345.905C369.746 346.115 369.468 346.29 369.144 346.432C368.825 346.568 368.465 346.637 368.064 346.637C367.563 346.637 367.123 346.539 366.745 346.343C366.371 346.147 366.08 345.885 365.87 345.557C365.665 345.224 365.562 344.853 365.562 344.442C365.562 344.046 365.64 343.697 365.795 343.396C365.95 343.091 366.173 342.838 366.465 342.638C366.756 342.433 367.107 342.278 367.518 342.173C367.928 342.068 368.386 342.016 368.892 342.016H370.361ZM373.516 336H374.787V345.064L374.678 346.5H373.516V336ZM379.784 342.74V342.884C379.784 343.422 379.72 343.921 379.593 344.381C379.465 344.837 379.278 345.233 379.032 345.57C378.786 345.908 378.485 346.17 378.13 346.356C377.774 346.543 377.366 346.637 376.906 346.637C376.437 346.637 376.024 346.557 375.669 346.397C375.318 346.233 375.022 345.999 374.78 345.693C374.539 345.388 374.345 345.019 374.199 344.586C374.058 344.153 373.96 343.665 373.905 343.123V342.494C373.96 341.947 374.058 341.457 374.199 341.024C374.345 340.591 374.539 340.222 374.78 339.917C375.022 339.607 375.318 339.372 375.669 339.213C376.02 339.049 376.428 338.967 376.893 338.967C377.357 338.967 377.77 339.058 378.13 339.24C378.49 339.418 378.791 339.673 379.032 340.006C379.278 340.339 379.465 340.737 379.593 341.202C379.72 341.662 379.784 342.175 379.784 342.74ZM378.513 342.884V342.74C378.513 342.371 378.478 342.025 378.41 341.701C378.342 341.373 378.232 341.086 378.082 340.84C377.932 340.589 377.733 340.393 377.487 340.252C377.241 340.106 376.938 340.033 376.578 340.033C376.259 340.033 375.981 340.088 375.744 340.197C375.512 340.307 375.313 340.455 375.149 340.642C374.985 340.824 374.851 341.034 374.746 341.271C374.646 341.503 374.571 341.744 374.52 341.995V343.643C374.593 343.962 374.712 344.269 374.876 344.565C375.045 344.857 375.268 345.096 375.546 345.283C375.828 345.47 376.177 345.563 376.592 345.563C376.934 345.563 377.225 345.495 377.467 345.358C377.713 345.217 377.911 345.023 378.061 344.777C378.216 344.531 378.33 344.246 378.403 343.923C378.476 343.599 378.513 343.253 378.513 342.884ZM384.579 346.637C384.064 346.637 383.597 346.55 383.178 346.377C382.763 346.199 382.405 345.951 382.104 345.632C381.808 345.313 381.58 344.935 381.421 344.497C381.261 344.06 381.182 343.581 381.182 343.062V342.774C381.182 342.173 381.27 341.637 381.448 341.168C381.626 340.694 381.867 340.293 382.173 339.965C382.478 339.637 382.825 339.388 383.212 339.22C383.599 339.051 384 338.967 384.415 338.967C384.944 338.967 385.399 339.058 385.782 339.24C386.17 339.423 386.486 339.678 386.732 340.006C386.978 340.329 387.161 340.712 387.279 341.154C387.398 341.592 387.457 342.07 387.457 342.59V343.157H381.934V342.125H386.192V342.029C386.174 341.701 386.106 341.382 385.987 341.072C385.873 340.762 385.691 340.507 385.44 340.307C385.19 340.106 384.848 340.006 384.415 340.006C384.128 340.006 383.864 340.067 383.622 340.19C383.381 340.309 383.173 340.487 383 340.724C382.827 340.961 382.692 341.25 382.597 341.592C382.501 341.934 382.453 342.328 382.453 342.774V343.062C382.453 343.412 382.501 343.743 382.597 344.053C382.697 344.358 382.84 344.627 383.027 344.859C383.219 345.092 383.449 345.274 383.718 345.406C383.991 345.538 384.301 345.604 384.647 345.604C385.094 345.604 385.472 345.513 385.782 345.331C386.092 345.149 386.363 344.905 386.596 344.6L387.361 345.208C387.202 345.45 386.999 345.68 386.753 345.898C386.507 346.117 386.204 346.295 385.844 346.432C385.488 346.568 385.067 346.637 384.579 346.637ZM390.434 336V346.5H389.162V336H390.434Z" fill="black" fill-opacity="0.87"/>
<rect x="253" y="41.5" width="20" height="20" fill="#00BD9A"/>
<path d="M285.359 53.625C285.359 53.3594 285.318 53.125 285.234 52.9219C285.156 52.7135 285.015 52.526 284.812 52.3594C284.614 52.1927 284.338 52.0339 283.984 51.8828C283.635 51.7318 283.193 51.5781 282.656 51.4219C282.094 51.2552 281.586 51.0703 281.133 50.8672C280.68 50.6589 280.291 50.4219 279.969 50.1562C279.646 49.8906 279.398 49.5859 279.226 49.2422C279.055 48.8984 278.969 48.5052 278.969 48.0625C278.969 47.6198 279.06 47.2109 279.242 46.8359C279.424 46.4609 279.685 46.1354 280.023 45.8594C280.367 45.5781 280.776 45.3594 281.25 45.2031C281.724 45.0469 282.252 44.9688 282.836 44.9688C283.69 44.9688 284.414 45.1328 285.008 45.4609C285.607 45.7839 286.062 46.2083 286.375 46.7344C286.687 47.2552 286.844 47.8125 286.844 48.4062H285.344C285.344 47.9792 285.252 47.6016 285.07 47.2734C284.888 46.9401 284.612 46.6797 284.242 46.4922C283.872 46.2995 283.403 46.2031 282.836 46.2031C282.299 46.2031 281.857 46.2839 281.508 46.4453C281.159 46.6068 280.898 46.8255 280.726 47.1016C280.56 47.3776 280.476 47.6927 280.476 48.0469C280.476 48.2865 280.526 48.5052 280.625 48.7031C280.729 48.8958 280.888 49.0755 281.101 49.2422C281.32 49.4089 281.596 49.5625 281.93 49.7031C282.268 49.8438 282.672 49.9792 283.14 50.1094C283.786 50.2917 284.344 50.4948 284.812 50.7188C285.281 50.9427 285.666 51.1953 285.969 51.4766C286.276 51.7526 286.502 52.0677 286.648 52.4219C286.799 52.7708 286.875 53.1667 286.875 53.6094C286.875 54.0729 286.781 54.4922 286.594 54.8672C286.406 55.2422 286.138 55.5625 285.789 55.8281C285.44 56.0938 285.021 56.2995 284.531 56.4453C284.047 56.5859 283.505 56.6562 282.906 56.6562C282.38 56.6562 281.862 56.5833 281.351 56.4375C280.846 56.2917 280.385 56.0729 279.969 55.7812C279.557 55.4896 279.226 55.1302 278.976 54.7031C278.732 54.2708 278.609 53.7708 278.609 53.2031H280.109C280.109 53.5938 280.185 53.9297 280.336 54.2109C280.487 54.487 280.693 54.7161 280.953 54.8984C281.219 55.0807 281.518 55.2161 281.851 55.3047C282.19 55.388 282.541 55.4297 282.906 55.4297C283.432 55.4297 283.877 55.3568 284.242 55.2109C284.607 55.0651 284.883 54.8568 285.07 54.5859C285.263 54.3151 285.359 53.9948 285.359 53.625ZM292.23 56.6562C291.641 56.6562 291.107 56.5573 290.628 56.3594C290.154 56.1562 289.745 55.8724 289.402 55.5078C289.063 55.1432 288.803 54.7109 288.62 54.2109C288.438 53.7109 288.347 53.1641 288.347 52.5703V52.2422C288.347 51.5547 288.449 50.9427 288.652 50.4062C288.855 49.8646 289.131 49.4062 289.48 49.0312C289.829 48.6562 290.225 48.3724 290.667 48.1797C291.11 47.987 291.568 47.8906 292.042 47.8906C292.646 47.8906 293.167 47.9948 293.605 48.2031C294.047 48.4115 294.409 48.7031 294.691 49.0781C294.972 49.4479 295.18 49.8854 295.316 50.3906C295.451 50.8906 295.519 51.4375 295.519 52.0312V52.6797H289.206V51.5H294.074V51.3906C294.053 51.0156 293.975 50.651 293.839 50.2969C293.709 49.9427 293.501 49.651 293.214 49.4219C292.928 49.1927 292.537 49.0781 292.042 49.0781C291.714 49.0781 291.412 49.1484 291.136 49.2891C290.86 49.4245 290.623 49.6276 290.425 49.8984C290.227 50.1693 290.074 50.5 289.964 50.8906C289.855 51.2812 289.8 51.7318 289.8 52.2422V52.5703C289.8 52.9714 289.855 53.349 289.964 53.7031C290.079 54.0521 290.243 54.3594 290.456 54.625C290.675 54.8906 290.938 55.099 291.245 55.25C291.558 55.401 291.912 55.4766 292.308 55.4766C292.818 55.4766 293.251 55.3724 293.605 55.1641C293.959 54.9557 294.269 54.6771 294.534 54.3281L295.409 55.0234C295.227 55.2995 294.995 55.5625 294.714 55.8125C294.433 56.0625 294.087 56.2656 293.675 56.4219C293.269 56.5781 292.787 56.6562 292.23 56.6562ZM298.796 49.375V56.5H297.35V48.0469H298.757L298.796 49.375ZM301.436 48L301.428 49.3438C301.309 49.3177 301.194 49.3021 301.085 49.2969C300.981 49.2865 300.861 49.2812 300.725 49.2812C300.392 49.2812 300.098 49.3333 299.843 49.4375C299.587 49.5417 299.371 49.6875 299.194 49.875C299.017 50.0625 298.876 50.2865 298.772 50.5469C298.673 50.8021 298.608 51.0833 298.577 51.3906L298.171 51.625C298.171 51.1146 298.22 50.6354 298.319 50.1875C298.423 49.7396 298.582 49.3438 298.796 49C299.009 48.651 299.28 48.3802 299.608 48.1875C299.941 47.9896 300.337 47.8906 300.796 47.8906C300.9 47.8906 301.02 47.9036 301.155 47.9297C301.29 47.9505 301.384 47.974 301.436 48ZM304.486 48.0469V56.5H303.033V48.0469H304.486ZM302.924 45.8047C302.924 45.5703 302.994 45.3724 303.135 45.2109C303.281 45.0495 303.494 44.9688 303.776 44.9688C304.052 44.9688 304.263 45.0495 304.408 45.2109C304.559 45.3724 304.635 45.5703 304.635 45.8047C304.635 46.0286 304.559 46.2214 304.408 46.3828C304.263 46.5391 304.052 46.6172 303.776 46.6172C303.494 46.6172 303.281 46.5391 303.135 46.3828C302.994 46.2214 302.924 46.0286 302.924 45.8047ZM310.459 56.6562C309.87 56.6562 309.336 56.5573 308.857 56.3594C308.383 56.1562 307.974 55.8724 307.631 55.5078C307.292 55.1432 307.032 54.7109 306.849 54.2109C306.667 53.7109 306.576 53.1641 306.576 52.5703V52.2422C306.576 51.5547 306.677 50.9427 306.881 50.4062C307.084 49.8646 307.36 49.4062 307.709 49.0312C308.058 48.6562 308.453 48.3724 308.896 48.1797C309.339 47.987 309.797 47.8906 310.271 47.8906C310.875 47.8906 311.396 47.9948 311.834 48.2031C312.276 48.4115 312.638 48.7031 312.92 49.0781C313.201 49.4479 313.409 49.8854 313.545 50.3906C313.68 50.8906 313.748 51.4375 313.748 52.0312V52.6797H307.435V51.5H312.302V51.3906C312.282 51.0156 312.203 50.651 312.068 50.2969C311.938 49.9427 311.729 49.651 311.443 49.4219C311.157 49.1927 310.766 49.0781 310.271 49.0781C309.943 49.0781 309.641 49.1484 309.365 49.2891C309.089 49.4245 308.852 49.6276 308.654 49.8984C308.456 50.1693 308.302 50.5 308.193 50.8906C308.084 51.2812 308.029 51.7318 308.029 52.2422V52.5703C308.029 52.9714 308.084 53.349 308.193 53.7031C308.308 54.0521 308.472 54.3594 308.685 54.625C308.904 54.8906 309.167 55.099 309.474 55.25C309.787 55.401 310.141 55.4766 310.537 55.4766C311.047 55.4766 311.479 55.3724 311.834 55.1641C312.188 54.9557 312.498 54.6771 312.763 54.3281L313.638 55.0234C313.456 55.2995 313.224 55.5625 312.943 55.8125C312.662 56.0625 312.315 56.2656 311.904 56.4219C311.498 56.5781 311.016 56.6562 310.459 56.6562ZM320.501 54.2578C320.501 54.0495 320.454 53.8568 320.36 53.6797C320.272 53.4974 320.087 53.3333 319.806 53.1875C319.53 53.0365 319.113 52.9062 318.556 52.7969C318.087 52.6979 317.663 52.5807 317.282 52.4453C316.907 52.3099 316.587 52.1458 316.321 51.9531C316.061 51.7604 315.86 51.5339 315.72 51.2734C315.579 51.013 315.509 50.7083 315.509 50.3594C315.509 50.026 315.582 49.7109 315.728 49.4141C315.879 49.1172 316.09 48.8542 316.36 48.625C316.636 48.3958 316.967 48.2161 317.353 48.0859C317.738 47.9557 318.168 47.8906 318.642 47.8906C319.319 47.8906 319.897 48.0104 320.376 48.25C320.855 48.4896 321.222 48.8099 321.478 49.2109C321.733 49.6068 321.86 50.0469 321.86 50.5312H320.415C320.415 50.2969 320.345 50.0703 320.204 49.8516C320.069 49.6276 319.868 49.4427 319.603 49.2969C319.342 49.151 319.022 49.0781 318.642 49.0781C318.241 49.0781 317.915 49.1406 317.665 49.2656C317.42 49.3854 317.241 49.5391 317.126 49.7266C317.017 49.9141 316.962 50.112 316.962 50.3203C316.962 50.4766 316.988 50.6172 317.04 50.7422C317.097 50.862 317.196 50.974 317.337 51.0781C317.478 51.1771 317.676 51.2708 317.931 51.3594C318.186 51.4479 318.511 51.5365 318.907 51.625C319.6 51.7812 320.17 51.9688 320.618 52.1875C321.066 52.4062 321.4 52.6745 321.618 52.9922C321.837 53.3099 321.946 53.6953 321.946 54.1484C321.946 54.5182 321.868 54.8568 321.712 55.1641C321.561 55.4714 321.34 55.737 321.048 55.9609C320.761 56.1797 320.418 56.3516 320.017 56.4766C319.621 56.5964 319.176 56.6562 318.681 56.6562C317.936 56.6562 317.306 56.5234 316.79 56.2578C316.275 55.9922 315.884 55.6484 315.618 55.2266C315.353 54.8047 315.22 54.3594 315.22 53.8906H316.673C316.694 54.2865 316.808 54.6016 317.017 54.8359C317.225 55.0651 317.48 55.2292 317.782 55.3281C318.084 55.4219 318.384 55.4688 318.681 55.4688C319.077 55.4688 319.407 55.4167 319.673 55.3125C319.944 55.2083 320.15 55.0651 320.29 54.8828C320.431 54.7005 320.501 54.4922 320.501 54.2578ZM332.695 45.0625V56.5H331.25V46.8672L328.336 47.9297V46.625L332.469 45.0625H332.695Z" fill="black" fill-opacity="0.87"/>
<rect x="360" y="41.5" width="20" height="20" fill="#ECA7FD"/>
<path d="M392.359 53.625C392.359 53.3594 392.318 53.125 392.234 52.9219C392.156 52.7135 392.015 52.526 391.812 52.3594C391.614 52.1927 391.338 52.0339 390.984 51.8828C390.635 51.7318 390.193 51.5781 389.656 51.4219C389.094 51.2552 388.586 51.0703 388.133 50.8672C387.68 50.6589 387.291 50.4219 386.969 50.1562C386.646 49.8906 386.398 49.5859 386.226 49.2422C386.055 48.8984 385.969 48.5052 385.969 48.0625C385.969 47.6198 386.06 47.2109 386.242 46.8359C386.424 46.4609 386.685 46.1354 387.023 45.8594C387.367 45.5781 387.776 45.3594 388.25 45.2031C388.724 45.0469 389.252 44.9688 389.836 44.9688C390.69 44.9688 391.414 45.1328 392.008 45.4609C392.607 45.7839 393.062 46.2083 393.375 46.7344C393.687 47.2552 393.844 47.8125 393.844 48.4062H392.344C392.344 47.9792 392.252 47.6016 392.07 47.2734C391.888 46.9401 391.612 46.6797 391.242 46.4922C390.872 46.2995 390.403 46.2031 389.836 46.2031C389.299 46.2031 388.857 46.2839 388.508 46.4453C388.159 46.6068 387.898 46.8255 387.726 47.1016C387.56 47.3776 387.476 47.6927 387.476 48.0469C387.476 48.2865 387.526 48.5052 387.625 48.7031C387.729 48.8958 387.888 49.0755 388.101 49.2422C388.32 49.4089 388.596 49.5625 388.93 49.7031C389.268 49.8438 389.672 49.9792 390.14 50.1094C390.786 50.2917 391.344 50.4948 391.812 50.7188C392.281 50.9427 392.666 51.1953 392.969 51.4766C393.276 51.7526 393.502 52.0677 393.648 52.4219C393.799 52.7708 393.875 53.1667 393.875 53.6094C393.875 54.0729 393.781 54.4922 393.594 54.8672C393.406 55.2422 393.138 55.5625 392.789 55.8281C392.44 56.0938 392.021 56.2995 391.531 56.4453C391.047 56.5859 390.505 56.6562 389.906 56.6562C389.38 56.6562 388.862 56.5833 388.351 56.4375C387.846 56.2917 387.385 56.0729 386.969 55.7812C386.557 55.4896 386.226 55.1302 385.976 54.7031C385.732 54.2708 385.609 53.7708 385.609 53.2031H387.109C387.109 53.5938 387.185 53.9297 387.336 54.2109C387.487 54.487 387.693 54.7161 387.953 54.8984C388.219 55.0807 388.518 55.2161 388.851 55.3047C389.19 55.388 389.541 55.4297 389.906 55.4297C390.432 55.4297 390.877 55.3568 391.242 55.2109C391.607 55.0651 391.883 54.8568 392.07 54.5859C392.263 54.3151 392.359 53.9948 392.359 53.625ZM399.23 56.6562C398.641 56.6562 398.107 56.5573 397.628 56.3594C397.154 56.1562 396.745 55.8724 396.402 55.5078C396.063 55.1432 395.803 54.7109 395.62 54.2109C395.438 53.7109 395.347 53.1641 395.347 52.5703V52.2422C395.347 51.5547 395.449 50.9427 395.652 50.4062C395.855 49.8646 396.131 49.4062 396.48 49.0312C396.829 48.6562 397.225 48.3724 397.667 48.1797C398.11 47.987 398.568 47.8906 399.042 47.8906C399.646 47.8906 400.167 47.9948 400.605 48.2031C401.047 48.4115 401.409 48.7031 401.691 49.0781C401.972 49.4479 402.18 49.8854 402.316 50.3906C402.451 50.8906 402.519 51.4375 402.519 52.0312V52.6797H396.206V51.5H401.074V51.3906C401.053 51.0156 400.975 50.651 400.839 50.2969C400.709 49.9427 400.501 49.651 400.214 49.4219C399.928 49.1927 399.537 49.0781 399.042 49.0781C398.714 49.0781 398.412 49.1484 398.136 49.2891C397.86 49.4245 397.623 49.6276 397.425 49.8984C397.227 50.1693 397.074 50.5 396.964 50.8906C396.855 51.2812 396.8 51.7318 396.8 52.2422V52.5703C396.8 52.9714 396.855 53.349 396.964 53.7031C397.079 54.0521 397.243 54.3594 397.456 54.625C397.675 54.8906 397.938 55.099 398.245 55.25C398.558 55.401 398.912 55.4766 399.308 55.4766C399.818 55.4766 400.251 55.3724 400.605 55.1641C400.959 54.9557 401.269 54.6771 401.534 54.3281L402.409 55.0234C402.227 55.2995 401.995 55.5625 401.714 55.8125C401.433 56.0625 401.087 56.2656 400.675 56.4219C400.269 56.5781 399.787 56.6562 399.23 56.6562ZM405.796 49.375V56.5H404.35V48.0469H405.757L405.796 49.375ZM408.436 48L408.428 49.3438C408.309 49.3177 408.194 49.3021 408.085 49.2969C407.981 49.2865 407.861 49.2812 407.725 49.2812C407.392 49.2812 407.098 49.3333 406.843 49.4375C406.587 49.5417 406.371 49.6875 406.194 49.875C406.017 50.0625 405.876 50.2865 405.772 50.5469C405.673 50.8021 405.608 51.0833 405.577 51.3906L405.171 51.625C405.171 51.1146 405.22 50.6354 405.319 50.1875C405.423 49.7396 405.582 49.3438 405.796 49C406.009 48.651 406.28 48.3802 406.608 48.1875C406.941 47.9896 407.337 47.8906 407.796 47.8906C407.9 47.8906 408.02 47.9036 408.155 47.9297C408.29 47.9505 408.384 47.974 408.436 48ZM411.486 48.0469V56.5H410.033V48.0469H411.486ZM409.924 45.8047C409.924 45.5703 409.994 45.3724 410.135 45.2109C410.281 45.0495 410.494 44.9688 410.776 44.9688C411.052 44.9688 411.263 45.0495 411.408 45.2109C411.559 45.3724 411.635 45.5703 411.635 45.8047C411.635 46.0286 411.559 46.2214 411.408 46.3828C411.263 46.5391 411.052 46.6172 410.776 46.6172C410.494 46.6172 410.281 46.5391 410.135 46.3828C409.994 46.2214 409.924 46.0286 409.924 45.8047ZM417.459 56.6562C416.87 56.6562 416.336 56.5573 415.857 56.3594C415.383 56.1562 414.974 55.8724 414.631 55.5078C414.292 55.1432 414.032 54.7109 413.849 54.2109C413.667 53.7109 413.576 53.1641 413.576 52.5703V52.2422C413.576 51.5547 413.677 50.9427 413.881 50.4062C414.084 49.8646 414.36 49.4062 414.709 49.0312C415.058 48.6562 415.453 48.3724 415.896 48.1797C416.339 47.987 416.797 47.8906 417.271 47.8906C417.875 47.8906 418.396 47.9948 418.834 48.2031C419.276 48.4115 419.638 48.7031 419.92 49.0781C420.201 49.4479 420.409 49.8854 420.545 50.3906C420.68 50.8906 420.748 51.4375 420.748 52.0312V52.6797H414.435V51.5H419.302V51.3906C419.282 51.0156 419.203 50.651 419.068 50.2969C418.938 49.9427 418.729 49.651 418.443 49.4219C418.157 49.1927 417.766 49.0781 417.271 49.0781C416.943 49.0781 416.641 49.1484 416.365 49.2891C416.089 49.4245 415.852 49.6276 415.654 49.8984C415.456 50.1693 415.302 50.5 415.193 50.8906C415.084 51.2812 415.029 51.7318 415.029 52.2422V52.5703C415.029 52.9714 415.084 53.349 415.193 53.7031C415.308 54.0521 415.472 54.3594 415.685 54.625C415.904 54.8906 416.167 55.099 416.474 55.25C416.787 55.401 417.141 55.4766 417.537 55.4766C418.047 55.4766 418.479 55.3724 418.834 55.1641C419.188 54.9557 419.498 54.6771 419.763 54.3281L420.638 55.0234C420.456 55.2995 420.224 55.5625 419.943 55.8125C419.662 56.0625 419.315 56.2656 418.904 56.4219C418.498 56.5781 418.016 56.6562 417.459 56.6562ZM427.501 54.2578C427.501 54.0495 427.454 53.8568 427.36 53.6797C427.272 53.4974 427.087 53.3333 426.806 53.1875C426.53 53.0365 426.113 52.9062 425.556 52.7969C425.087 52.6979 424.663 52.5807 424.282 52.4453C423.907 52.3099 423.587 52.1458 423.321 51.9531C423.061 51.7604 422.86 51.5339 422.72 51.2734C422.579 51.013 422.509 50.7083 422.509 50.3594C422.509 50.026 422.582 49.7109 422.728 49.4141C422.879 49.1172 423.09 48.8542 423.36 48.625C423.636 48.3958 423.967 48.2161 424.353 48.0859C424.738 47.9557 425.168 47.8906 425.642 47.8906C426.319 47.8906 426.897 48.0104 427.376 48.25C427.855 48.4896 428.222 48.8099 428.478 49.2109C428.733 49.6068 428.86 50.0469 428.86 50.5312H427.415C427.415 50.2969 427.345 50.0703 427.204 49.8516C427.069 49.6276 426.868 49.4427 426.603 49.2969C426.342 49.151 426.022 49.0781 425.642 49.0781C425.241 49.0781 424.915 49.1406 424.665 49.2656C424.42 49.3854 424.241 49.5391 424.126 49.7266C424.017 49.9141 423.962 50.112 423.962 50.3203C423.962 50.4766 423.988 50.6172 424.04 50.7422C424.097 50.862 424.196 50.974 424.337 51.0781C424.478 51.1771 424.676 51.2708 424.931 51.3594C425.186 51.4479 425.511 51.5365 425.907 51.625C426.6 51.7812 427.17 51.9688 427.618 52.1875C428.066 52.4062 428.4 52.6745 428.618 52.9922C428.837 53.3099 428.946 53.6953 428.946 54.1484C428.946 54.5182 428.868 54.8568 428.712 55.1641C428.561 55.4714 428.34 55.737 428.048 55.9609C427.761 56.1797 427.418 56.3516 427.017 56.4766C426.621 56.5964 426.176 56.6562 425.681 56.6562C424.936 56.6562 424.306 56.5234 423.79 56.2578C423.275 55.9922 422.884 55.6484 422.618 55.2266C422.353 54.8047 422.22 54.3594 422.22 53.8906H423.673C423.694 54.2865 423.808 54.6016 424.017 54.8359C424.225 55.0651 424.48 55.2292 424.782 55.3281C425.084 55.4219 425.384 55.4688 425.681 55.4688C426.077 55.4688 426.407 55.4167 426.673 55.3125C426.944 55.2083 427.15 55.0651 427.29 54.8828C427.431 54.7005 427.501 54.4922 427.501 54.2578ZM442.398 55.3125V56.5H434.953V55.4609L438.68 51.3125C439.138 50.8021 439.492 50.3698 439.742 50.0156C439.997 49.6562 440.174 49.3359 440.273 49.0547C440.378 48.7682 440.43 48.4766 440.43 48.1797C440.43 47.8047 440.352 47.4661 440.195 47.1641C440.044 46.8568 439.82 46.612 439.523 46.4297C439.227 46.2474 438.867 46.1562 438.445 46.1562C437.94 46.1562 437.518 46.2552 437.18 46.4531C436.846 46.6458 436.596 46.9167 436.43 47.2656C436.263 47.6146 436.18 48.0156 436.18 48.4688H434.734C434.734 47.8281 434.875 47.2422 435.156 46.7109C435.438 46.1797 435.854 45.7578 436.406 45.4453C436.958 45.1276 437.638 44.9688 438.445 44.9688C439.164 44.9688 439.779 45.0964 440.289 45.3516C440.799 45.6016 441.19 45.9557 441.461 46.4141C441.737 46.8672 441.875 47.3984 441.875 48.0078C441.875 48.3411 441.818 48.6797 441.703 49.0234C441.594 49.362 441.44 49.7005 441.242 50.0391C441.049 50.3776 440.823 50.7109 440.562 51.0391C440.307 51.3672 440.034 51.6901 439.742 52.0078L436.695 55.3125H442.398Z" fill="black" fill-opacity="0.87"/>
<defs>
<linearGradient id="paint0_linear_4976_58508" x1="141.833" y1="252" x2="141.833" y2="304.5" gradientUnits="userSpaceOnUse">
<stop stop-color="#43EFCF"/>
<stop offset="1" stop-color="#04C19E"/>
</linearGradient>
<linearGradient id="paint1_linear_4976_58508" x1="223.5" y1="199.5" x2="223.5" y2="304.5" gradientUnits="userSpaceOnUse">
<stop stop-color="#F2C0FF"/>
<stop offset="1" stop-color="#E477FF"/>
</linearGradient>
<linearGradient id="paint2_linear_4976_58508" x1="333.167" y1="252" x2="333.167" y2="304.5" gradientUnits="userSpaceOnUse">
<stop stop-color="#43EFCF"/>
<stop offset="1" stop-color="#04C19E"/>
</linearGradient>
<linearGradient id="paint3_linear_4976_58508" x1="414.833" y1="199.5" x2="414.833" y2="304.5" gradientUnits="userSpaceOnUse">
<stop stop-color="#F2C0FF"/>
<stop offset="1" stop-color="#E477FF"/>
</linearGradient>
<linearGradient id="paint4_linear_4976_58508" x1="524.5" y1="283.5" x2="524.5" y2="304.5" gradientUnits="userSpaceOnUse">
<stop stop-color="#43EFCF"/>
<stop offset="1" stop-color="#04C19E"/>
</linearGradient>
<linearGradient id="paint5_linear_4976_58508" x1="606.167" y1="252" x2="606.167" y2="304.5" gradientUnits="userSpaceOnUse">
<stop stop-color="#F2C0FF"/>
<stop offset="1" stop-color="#E477FF"/>
</linearGradient>
</defs>
</svg>
