<svg width="50" height="47" viewBox="0 0 50 47" fill="none" xmlns="http://www.w3.org/2000/svg">
<g clip-path="url(#clip0_4518_37650)">
<path d="M21.568 1.52262L5.7037 10.3673C5.05069 10.7314 4.12068 12.679 3.55993 14.0313C3.38108 14.4626 3.29834 14.926 3.29834 15.3928V32.8672C3.29834 33.224 3.34385 33.5806 3.46031 33.9179C4.20682 36.0801 5.57735 37.7033 6.39635 38.4526C6.57119 38.6125 6.77117 38.7405 6.98048 38.8518L20.8368 46.2246C21.0106 46.3172 21.1736 46.4278 21.3466 46.522C22.913 47.3736 26.3425 46.9121 28.3082 46.4777C28.6333 46.4059 28.9428 46.2824 29.2343 46.1219L42.2692 38.9469C42.5857 38.7728 42.8805 38.5596 43.1126 38.2834C44.3019 36.8679 45.3372 34.5505 45.8855 33.0864C46.0436 32.6644 46.1069 32.2174 46.0942 31.767C45.9364 26.1448 45.7443 16.0153 46.1138 15.6467C46.4281 15.3331 45.4803 13.2909 44.6855 11.7684C44.3684 11.161 43.8774 10.6641 43.2857 10.3169L27.833 1.24823C26.8092 0.567291 24.1968 0.84238 22.6117 1.13652C22.2442 1.20474 21.8944 1.34067 21.568 1.52262Z" fill="#2043DF" stroke="#2043DF" stroke-width="1.5"/>
<path d="M18.1007 30.2713L16.7758 33.0342L13.6843 32.8368L20.9714 17.2468L26.2711 27.7059H22.9587L24.006 30.1392H30.0251L22.5172 14.0893L24.5045 10.3398L34.6623 31.4554C34.8095 31.9159 34.839 32.8368 33.779 32.8368L25.3878 33.0342L24.006 30.1392L24.0629 30.2713H18.1007Z" fill="white"/>
<path d="M19.3987 27.663L21.1656 24.373L22.9326 27.663H19.3987Z" fill="#2043DF"/>
</g>
<defs>
<clipPath id="clip0_4518_37650">
<rect width="49.4737" height="47" fill="white"/>
</clipPath>
</defs>
</svg>
