<svg width="34" height="28" viewBox="0 0 34 28" fill="none" xmlns="http://www.w3.org/2000/svg">
<path d="M8.14172 23.6552C6.37948 23.4871 4.64042 22.6464 3.29555 21.1813C0.234815 17.8428 0.234815 12.3666 3.29555 9.02808L8.3736 3.5039C11.4343 0.165366 16.466 0.165366 19.5499 3.5039C22.6106 6.84244 22.6106 12.3186 19.5499 15.6571L17.0225 18.4192" stroke="#292D32" stroke-width="1.6" stroke-linecap="round" stroke-linejoin="round"/>
<path d="M25.8581 4.34473C27.6204 4.51285 29.3594 5.35349 30.7043 6.81861C33.765 10.1572 33.765 15.6334 30.7043 18.9719L25.6263 24.4961C22.5655 27.8346 17.5338 27.8346 14.4499 24.4961C11.3891 21.1576 11.3891 15.6814 14.4499 12.3429L16.9773 9.58075" stroke="#292D32" stroke-width="1.6" stroke-linecap="round" stroke-linejoin="round"/>
</svg>
