<svg width="32" height="26" viewBox="0 0 32 26" fill="none" xmlns="http://www.w3.org/2000/svg">
<path d="M7.6949 22.1359C6.04291 21.9838 4.41266 21.223 3.15194 19.8971C0.282688 16.8757 0.282688 11.9197 3.15194 8.89828L7.91228 3.89887C10.7815 0.877462 15.4984 0.877462 18.3894 3.89887C21.2586 6.92027 21.2586 11.8762 18.3894 14.8976L16.0201 17.3973" stroke="white" stroke-width="1.5" stroke-linecap="round" stroke-linejoin="round"/>
<path d="M24.3025 4.65918C25.9545 4.81134 27.5847 5.57212 28.8455 6.89806C31.7147 9.91946 31.7147 14.8754 28.8455 17.8968L24.0851 22.8963C21.2159 25.9177 16.499 25.9177 13.608 22.8963C10.7387 19.8748 10.7387 14.9189 13.608 11.8975L15.9773 9.39777" stroke="white" stroke-width="1.5" stroke-linecap="round" stroke-linejoin="round"/>
</svg>
