<svg width="50" height="50" viewBox="0 0 50 50" fill="none" xmlns="http://www.w3.org/2000/svg">
<rect x="-0.5" y="0.5" width="49" height="49" rx="11.5" transform="matrix(-1 0 0 1 49 0)" fill="#F8F8F8" stroke="#EBEBEB"/>
<path d="M17.02 18.97C15.75 20.65 15 22.74 15 25C15 30.52 19.48 35 25 35C30.52 35 35 30.52 35 25C35 19.48 30.52 15 25 15" stroke="#292D32" stroke-width="1.5" stroke-linecap="round" stroke-linejoin="round"/>
<path d="M18 25C18 28.87 21.13 32 25 32C28.87 32 32 28.87 32 25C32 21.13 28.87 18 25 18" stroke="#292D32" stroke-width="1.5" stroke-linecap="round" stroke-linejoin="round"/>
<path d="M25 29C27.21 29 29 27.21 29 25C29 22.79 27.21 21 25 21" stroke="#292D32" stroke-width="1.5" stroke-linecap="round" stroke-linejoin="round"/>
</svg>
