<svg width="50" height="50" viewBox="0 0 50 50" fill="none" xmlns="http://www.w3.org/2000/svg">
<rect x="-0.5" y="0.5" width="49" height="49" rx="11.5" transform="matrix(-1 0 0 1 49 0)" fill="#F8F8F8" stroke="#EBEBEB"/>
<path d="M32 35C32 35.5523 31.5523 36 31 36C30.4477 36 30 35.5523 30 35C30 34.4477 30.4477 34 31 34C31.5523 34 32 34.4477 32 35Z" fill="black"/>
<path d="M36 31C36 31.5523 35.5523 32 35 32C34.4477 32 34 31.5523 34 31C34 30.4477 34.4477 30 35 30C35.5523 30 36 30.4477 36 31Z" fill="black"/>
<path d="M16 19C16 19.5523 15.5523 20 15 20C14.4477 20 14 19.5523 14 19C14 18.4477 14.4477 18 15 18C15.5523 18 16 18.4477 16 19Z" fill="black"/>
<path d="M20 15C20 15.5523 19.5523 16 19 16C18.4477 16 18 15.5523 18 15C18 14.4477 18.4477 14 19 14C19.5523 14 20 14.4477 20 15Z" fill="black"/>
<path fill-rule="evenodd" clip-rule="evenodd" d="M25 19.4829L24.3478 22.1726C24.0871 23.2477 23.2477 24.0871 22.1726 24.3478L19.4829 25L22.1726 25.6522C23.2477 25.9129 24.0871 26.7523 24.3478 27.8274L25 30.5171L25.6522 27.8274C25.9129 26.7523 26.7523 25.9129 27.8274 25.6522L30.5171 25L27.8274 24.3478C26.7523 24.0871 25.9129 23.2477 25.6522 22.1726L25 19.4829ZM26.3052 18.0266C25.9733 16.6578 24.0267 16.6578 23.6948 18.0266L22.7815 21.7928C22.663 22.2815 22.2815 22.663 21.7928 22.7815L18.0266 23.6948C16.6578 24.0267 16.6578 25.9733 18.0266 26.3052L21.7928 27.2185C22.2815 27.337 22.663 27.7185 22.7815 28.2072L23.6948 31.9734C24.0267 33.3422 25.9733 33.3422 26.3052 31.9734L27.2185 28.2072C27.337 27.7185 27.7185 27.337 28.2072 27.2185L31.9734 26.3052C33.3422 25.9733 33.3422 24.0267 31.9734 23.6948L28.2072 22.7815C27.7185 22.663 27.337 22.2815 27.2185 21.7928L26.3052 18.0266Z" fill="black"/>
<path fill-rule="evenodd" clip-rule="evenodd" d="M22.0046 35.3147C21.8308 35.7804 21.3124 36.017 20.8467 35.8432C17.8303 34.7173 15.4073 32.3801 14.1697 29.4228C13.9778 28.9643 14.194 28.4371 14.6525 28.2452C15.111 28.0533 15.6383 28.2694 15.8302 28.728C16.8762 31.2274 18.9265 33.2052 21.4761 34.1568C21.9418 34.3306 22.1784 34.849 22.0046 35.3147Z" fill="black"/>
<path fill-rule="evenodd" clip-rule="evenodd" d="M35.3153 22.0208C34.8498 22.1949 34.3312 21.9587 34.157 21.4932C33.1979 18.9295 31.1971 16.8707 28.6693 15.8325C28.2095 15.6437 27.9899 15.1178 28.1787 14.6581C28.3676 14.1983 28.8934 13.9786 29.3532 14.1675C32.3427 15.3953 34.7076 17.828 35.8429 20.8625C36.0171 21.328 35.7809 21.8466 35.3153 22.0208Z" fill="black"/>
</svg>
