<svg width="769" height="468" viewBox="0 0 769 468" fill="none" xmlns="http://www.w3.org/2000/svg">
<path d="M292.136 114.935H219.807C206.457 114.935 195.634 104.113 195.634 90.7628V56.0632C195.634 42.7133 206.457 31.8906 219.807 31.8906H292.136C305.486 31.8906 316.309 42.7133 316.309 56.0632V90.7628C316.309 104.114 305.486 114.935 292.136 114.935Z" fill="#F5C679"/>
<path d="M246.516 68.8867H225.401V71.6412H246.516V68.8867Z" fill="white"/>
<path d="M273.504 61.5449H225.401V64.2994H273.504V61.5449Z" fill="white"/>
<path d="M490.604 236.876H446.446C438.295 236.876 431.688 230.268 431.688 222.118V200.933C431.688 192.782 438.295 186.175 446.446 186.175H490.604C498.755 186.175 505.362 192.782 505.362 200.933V222.118C505.361 230.268 498.755 236.876 490.604 236.876Z" fill="#F5C679"/>
<path d="M479.859 216.81H492.751V215.129H479.859V216.81Z" fill="white"/>
<path d="M463.385 221.293H492.753V219.612H463.385V221.293Z" fill="white"/>
<path d="M521.506 121.22H496.405C493.472 121.22 491.095 118.842 491.095 115.91C491.095 112.977 493.472 110.601 496.405 110.601H521.506C524.439 110.601 526.816 112.978 526.816 115.91C526.816 118.842 524.439 121.22 521.506 121.22Z" fill="#FFB264"/>
<path d="M502.479 131.766H507.159V127.086H502.479V131.766Z" fill="#E37059"/>
<path d="M495.031 131.766H499.711V127.086H495.031V131.766Z" fill="#E37059"/>
<path d="M495.031 138.713H499.711V134.033H495.031V138.713Z" fill="#E37059"/>
<path d="M673.266 142.655V136.929C673.266 124.571 663.247 114.553 650.89 114.553H528.908" stroke="white" stroke-miterlimit="10"/>
<path d="M768.916 273.047H572.679V152.457C572.679 147.179 576.958 142.9 582.235 142.9H759.359C764.638 142.9 768.916 147.178 768.916 152.457V273.047Z" fill="white"/>
<path d="M572.679 158.152H768.916" stroke="#F5C679" stroke-width="0.8925" stroke-miterlimit="10"/>
<path d="M586.914 154.762C589.16 154.762 590.98 152.942 590.98 150.696C590.98 148.45 589.16 146.629 586.914 146.629C584.668 146.629 582.847 148.45 582.847 150.696C582.847 152.942 584.668 154.762 586.914 154.762Z" fill="#F5C679"/>
<path d="M601.826 154.762C604.072 154.762 605.893 152.942 605.893 150.696C605.893 148.45 604.072 146.629 601.826 146.629C599.58 146.629 597.759 148.45 597.759 150.696C597.759 152.942 599.58 154.762 601.826 154.762Z" fill="#E37059"/>
<path d="M616.738 154.762C618.984 154.762 620.805 152.942 620.805 150.696C620.805 148.45 618.984 146.629 616.738 146.629C614.493 146.629 612.672 148.45 612.672 150.696C612.672 152.942 614.493 154.762 616.738 154.762Z" fill="#4475AB"/>
<g opacity="0.88">
<path d="M621.953 213.646C622.183 201.682 631.947 192.053 643.965 192.053V172.388C620.941 172.388 602.278 191.052 602.278 214.075C602.278 213.543 611.936 213.522 621.953 213.646Z" fill="#FFB264"/>
<path d="M665.989 214.075C665.989 226.237 656.129 236.097 643.966 236.097V255.763C666.99 255.763 685.654 237.099 685.654 214.075H665.989Z" fill="#FFB264"/>
<path d="M621.943 214.075C621.943 213.931 621.951 213.788 621.954 213.646C611.936 213.524 602.279 213.543 602.279 214.075C602.279 237.099 620.944 255.763 643.966 255.763V236.097C631.803 236.098 621.943 226.239 621.943 214.075Z" fill="#4475AB"/>
<path d="M665.989 214.075H685.654C685.654 191.051 666.989 172.388 643.966 172.388V192.053C656.129 192.053 665.989 201.913 665.989 214.075Z" fill="#4475AB"/>
<path d="M643.965 201.164C636.919 201.164 631.194 206.81 631.06 213.824C637.39 213.902 643.965 214.077 643.965 214.077V201.164Z" fill="#1B314F"/>
<path d="M643.965 226.988C651.097 226.988 656.878 221.207 656.878 214.075H643.965V226.988Z" fill="#1B314F"/>
<path d="M631.06 213.824C631.059 213.909 631.053 213.992 631.053 214.077C631.053 221.207 636.834 226.989 643.966 226.989V214.077C643.966 214.077 637.39 213.902 631.06 213.824Z" fill="#1B314F"/>
<path d="M643.965 201.164V214.077H656.878C656.878 206.945 651.097 201.164 643.965 201.164Z" fill="#D4603F"/>
</g>
<path d="M727.771 186.197H708.925V188.655H727.771V186.197Z" fill="#FFB264"/>
<path d="M751.855 192.75H708.925V195.208H751.855V192.75Z" fill="#FFB264"/>
<path d="M761.12 177.132H701.921V207.861H761.12V177.132Z" stroke="#F5C679" stroke-width="0.8925" stroke-miterlimit="10"/>
<path d="M738.842 239.975H719.997V242.432H738.842V239.975Z" fill="#FFB264"/>
<path d="M714.349 241.528C714.349 239.157 712.427 237.235 710.056 237.235C707.685 237.235 705.763 239.157 705.763 241.528C705.763 243.899 707.685 245.821 710.056 245.821C712.427 245.821 714.349 243.899 714.349 241.528Z" fill="#4475AB"/>
<path d="M196.237 396.091H0V275.5C0 270.222 4.27791 265.943 9.55621 265.943H186.681C191.959 265.943 196.237 270.221 196.237 275.5V396.091Z" fill="white"/>
<path d="M0 281.196H196.237" stroke="#F5C679" stroke-width="0.8925" stroke-miterlimit="10"/>
<path d="M18.3017 273.739C18.3017 271.492 16.4814 269.672 14.2351 269.672C11.9888 269.672 10.1685 271.493 10.1685 273.739C10.1685 275.985 11.9888 277.805 14.2351 277.805C16.4814 277.806 18.3017 275.985 18.3017 273.739Z" fill="#F5C679"/>
<path d="M33.2148 273.739C33.2148 271.492 31.3945 269.672 29.1482 269.672C26.9019 269.672 25.0815 271.493 25.0815 273.739C25.0815 275.985 26.903 277.805 29.1482 277.805C31.3934 277.806 33.2148 275.985 33.2148 273.739Z" fill="#E37059"/>
<path d="M48.1274 273.739C48.1274 271.492 46.3071 269.672 44.0608 269.672C41.8145 269.672 39.9941 271.493 39.9941 273.739C39.9941 275.985 41.8145 277.805 44.0608 277.805C46.3071 277.805 48.1274 275.985 48.1274 273.739Z" fill="#4475AB"/>
<g opacity="0.88">
<path d="M71.2875 306.181C54.4043 306.181 40.6889 319.708 40.3657 336.514C55.5326 336.7 71.2875 337.118 71.2875 337.118V306.181Z" fill="#1B314F"/>
<path d="M71.2876 368.055C88.3741 368.055 102.225 354.204 102.225 337.117H71.2876V368.055Z" fill="#1B314F"/>
<path d="M40.3659 336.514C40.3625 336.716 40.3511 336.916 40.3511 337.118C40.3511 354.204 54.2023 368.056 71.2877 368.056V337.118C71.2877 337.118 55.5328 336.699 40.3659 336.514Z" fill="#4475AB"/>
<path d="M71.2876 306.181V337.117H102.225C102.225 320.032 88.3741 306.181 71.2876 306.181Z" fill="#D4603F"/>
</g>
<path d="M155.092 309.239H136.247V311.697H155.092V309.239Z" fill="#FFB264"/>
<path d="M179.177 315.791H136.247V318.249H179.177V315.791Z" fill="#FFB264"/>
<path d="M188.441 300.174H129.242V330.903H188.441V300.174Z" stroke="#F5C679" stroke-width="0.8925" stroke-miterlimit="10"/>
<path d="M166.164 363.016H147.318V365.474H166.164V363.016Z" fill="#FFB264"/>
<path d="M141.67 364.57C141.67 362.199 139.749 360.277 137.378 360.277C135.007 360.277 133.085 362.199 133.085 364.57C133.085 366.941 135.007 368.863 137.378 368.863C139.749 368.863 141.67 366.941 141.67 364.57Z" fill="#E37059"/>
<path d="M109.545 120.51H82.5045C70.6517 120.51 61.043 130.119 61.043 141.971V267.443" stroke="white" stroke-miterlimit="10"/>
<path d="M114.854 125.82H139.955C142.888 125.82 145.266 123.442 145.266 120.509C145.266 117.577 142.888 115.199 139.955 115.199H114.854C111.922 115.199 109.544 117.577 109.544 120.509C109.544 123.442 111.922 125.82 114.854 125.82Z" fill="#E37059"/>
<path d="M133.883 131.685H129.203V136.364H133.883V131.685Z" fill="#F5C679"/>
<path d="M141.329 131.685H136.649V136.364H141.329V131.685Z" fill="#F5C679"/>
<path d="M141.329 138.63H136.649V143.31H141.329V138.63Z" fill="#F5C679"/>
<path d="M262.998 201.012C262.998 201.012 225.339 240.603 218.649 234.189L230.871 211.128C230.922 211.74 257.289 191.078 257.289 191.078C257.289 191.078 262.698 177.505 264.8 177.518C266.862 177.531 262.523 185.256 263.259 186.249C263.994 187.244 276.885 170.832 278.357 172.822C279.148 173.891 270.293 182.584 271.027 183.99C271.408 184.721 281.327 178.484 282.36 178.785C285.241 179.629 271.342 186.218 272.164 186.636C272.986 187.054 283.254 180.688 283.406 182.834C283.499 184.161 273.965 188.793 274.124 189.702C274.282 190.609 279.583 187.098 281.311 187.769C283.039 188.441 274.185 192.836 273.603 193.575C273.022 194.314 267.96 198.981 262.998 201.012Z" fill="#FFB264"/>
<path d="M208.693 172.149C208.693 172.149 217.862 175.218 220.052 182.172C222.242 189.125 232.028 209.997 232.028 209.997L218.835 234.396C218.835 234.396 180.791 185.818 208.693 172.149Z" fill="#FFB264"/>
<path d="M207.932 169.871C217.806 168.352 223.264 179.851 232.07 201.08L209.534 219.163C209.534 219.163 177.225 174.595 207.932 169.871Z" fill="white"/>
<path d="M208.052 127.103C203.342 121.214 192.422 117.313 183.437 120.974C183.437 120.974 183.385 120.991 183.286 121.024C177.555 122.97 173.607 128.423 173.832 134.472C173.979 138.43 174.966 142.341 176.651 145.362C180.679 152.578 188.32 155.635 196.286 155.174C197.967 155.077 199.256 155.603 200.165 156.471L209.423 140.598C210.539 138.387 210.797 130.533 208.052 127.103Z" fill="#151F36"/>
<path d="M171.374 150.507C175.837 148.648 177.948 143.523 176.089 139.06C174.23 134.597 169.105 132.486 164.642 134.345C160.179 136.204 158.068 141.329 159.927 145.792C161.786 150.255 166.911 152.366 171.374 150.507Z" fill="#151F36"/>
<path d="M185.864 142.885C185.763 143.197 184.638 140.782 184.33 140.67C183.043 140.204 180.167 138.867 178.542 142.088C176.9 145.345 179.463 148.423 181.379 149.227C181.932 149.459 183.715 150.684 183.99 151.217C186.397 155.901 183.222 165.853 182.883 169.659C182.134 178.064 175.315 168.845 175.315 168.845C175.315 168.845 198.059 186.733 201.418 176.737C198.672 171.934 196.963 156.812 199.373 157.714C202.536 158.897 209.183 154.914 209.993 140.521C206.304 129.825 201.694 128.165 201.646 127.33C201.325 134.806 197.084 139.785 185.864 142.885Z" fill="#FFB264"/>
<path d="M179.659 143.59C179.659 143.59 183.211 140.04 183.736 146.684L179.659 143.59Z" fill="#E68522"/>
<path d="M196.267 144.317C197.952 144.877 198.864 146.696 198.306 148.38C197.746 150.065 195.927 150.977 194.243 150.419C192.558 149.859 191.646 148.04 192.204 146.356C192.764 144.67 194.583 143.757 196.267 144.317Z" fill="#E68522"/>
<path d="M208.476 149.953C207.181 149.207 206.543 147.63 207.033 146.156C207.41 145.019 208.361 144.234 209.456 144.016C209.456 144.016 209.553 147.825 208.476 149.953Z" fill="#E68522"/>
<path d="M204.151 142.87L203.705 146.425L205.561 146.289C205.904 146.264 206.095 145.882 205.909 145.594L204.151 142.87Z" fill="#E68522"/>
<path d="M198.671 139.52C198.071 139.937 199 138.067 199.817 137.854C200.636 137.639 201.448 138.039 201.633 138.746C201.633 138.746 200.112 138.52 198.671 139.52Z" fill="black"/>
<path d="M208.549 139.335C209.145 139.757 208.235 137.879 207.419 137.657C206.602 137.434 205.786 137.826 205.594 138.531C205.594 138.531 207.118 138.32 208.549 139.335Z" fill="black"/>
<path d="M200.467 142.893C200.493 143.524 200.761 144.025 201.067 144.013C201.373 144 201.601 143.478 201.576 142.848C201.549 142.217 201.281 141.715 200.975 141.728C200.669 141.739 200.442 142.261 200.467 142.893Z" fill="black"/>
<path d="M205.468 142.384C205.492 142.987 205.749 143.466 206.042 143.454C206.334 143.442 206.551 142.944 206.527 142.341C206.503 141.738 206.246 141.259 205.954 141.271C205.66 141.283 205.443 141.782 205.468 142.384Z" fill="black"/>
<path d="M198.652 157.677C198.652 157.677 194.197 156.1 191.361 154.876C188.524 153.652 195.546 165.331 198.652 157.677Z" fill="#E68522"/>
<path d="M192.814 434.883L195.036 450.658C195.036 450.658 198.599 461.12 201.907 457.071C205.215 453.021 208.491 450.88 208.491 450.88L209.577 434.479L192.814 434.883Z" fill="#FFAA06"/>
<path d="M140.086 433.671L135.177 449.408C135.177 449.408 131.44 452.684 130.092 452.599C127.639 452.445 126.352 448.213 126.352 448.213L125.947 433.672H140.086V433.671Z" fill="#FFAA06"/>
<path d="M209.581 450.797L222.793 461.506C223.469 462.009 222.986 462.854 222.02 462.862L202.517 463.021C202.048 463.024 201.626 462.811 201.47 462.49L199.999 459.474C199.574 458.602 198.727 458.531 198.806 459.454L198.085 462.365C198.124 462.824 193.461 462.699 193.42 462.282C193.164 459.693 193.703 451.226 194.168 448.869C194.234 448.531 194.581 448.26 195.042 448.194H195.044C195.457 448.135 195.881 448.249 196.134 448.495C197.45 449.768 201.661 453.6 203.903 452.825C205.407 452.305 207.355 451.373 207.962 450.838C208.372 450.475 209.13 450.462 209.581 450.797Z" fill="#D4603F"/>
<path d="M126.171 447.666L118.668 460.232C117.867 461.454 118.313 462.912 119.761 463.775C122.107 465.171 124.024 467.957 125.5 467.998C128.167 468.072 132.313 465.263 134.729 464.21C136.351 463.503 137.621 462.467 137.421 461.11L135.556 448.505C135.533 448.35 135.258 448.291 135.122 448.415L132.25 451.018C131.309 451.872 128.754 451.757 128.12 450.736C127.668 450.008 126.606 447.656 126.606 447.656C126.509 447.531 126.256 447.537 126.171 447.666Z" fill="#D4603F"/>
<path d="M170.713 222.771C164.656 233.48 156.704 244.92 153.223 258.534C149.186 274.323 126.101 408.475 124.197 437.193C129.173 438.393 136.632 437.618 139.775 437.444C149.778 408.782 180.004 303.805 184.292 285.748C184.951 282.972 189.241 283.581 188.906 286.415C186.471 307.035 192.676 383.154 192.676 439.707C195.285 441.035 206.625 440.085 209.639 439.707C212.917 404.341 231.056 268.897 204.797 225.498C192.79 223.843 182.888 222.409 170.713 222.771Z" fill="#1B314F"/>
<mask id="mask0_4508_32054" style="mask-type:luminance" maskUnits="userSpaceOnUse" x="124" y="222" width="95" height="219">
<path d="M170.713 222.771C164.656 233.48 156.704 244.92 153.223 258.534C149.186 274.323 126.101 408.475 124.197 437.193C129.173 438.393 136.632 437.618 139.775 437.444C149.778 408.782 180.004 303.805 184.292 285.748C184.951 282.972 189.241 283.581 188.906 286.415C186.471 307.035 192.676 383.154 192.676 439.707C195.285 441.035 206.625 440.085 209.639 439.707C212.917 404.341 231.056 268.897 204.797 225.498C192.79 223.843 182.888 222.409 170.713 222.771Z" fill="white"/>
</mask>
<g mask="url(#mask0_4508_32054)">
<path d="M171.803 220.386C171.867 225.888 174.593 230.795 177.356 235.392C179.993 239.777 182.926 244.008 186.362 247.81C193.014 255.168 201.766 260.683 211.862 261.315C217.338 261.657 222.841 260.45 227.458 257.433C227.918 257.133 227.489 256.391 227.026 256.693C218.822 262.053 208.073 261.358 199.549 257.098C190.863 252.757 184.398 245.003 179.307 236.928C176.162 231.939 172.73 226.466 172.659 220.386C172.652 219.834 171.796 219.833 171.803 220.386Z" fill="#4475AB"/>
<path d="M153.405 246.584C158.902 259.006 164.57 271.879 164.84 285.694C164.968 292.242 163.867 298.884 160.982 304.803C158.518 309.856 154.862 314.237 150.563 317.834C145.569 322.014 139.742 325.125 133.624 327.31C133.109 327.493 133.331 328.321 133.851 328.135C144.635 324.286 154.834 317.431 160.615 307.321C167.338 295.563 166.577 281.284 162.925 268.674C160.68 260.921 157.403 253.521 154.142 246.153C153.921 245.649 153.183 246.084 153.405 246.584Z" fill="#4475AB"/>
<path d="M216.379 279.183C207.081 285.894 202.984 297.761 203.796 308.936C204.748 322.024 212.077 333.792 220.648 343.331C225.67 348.92 231.363 354.054 238.258 357.203C238.756 357.43 239.191 356.693 238.691 356.463C232.814 353.778 227.817 349.643 223.37 345.007C218.924 340.37 214.875 335.297 211.624 329.747C205.54 319.361 202.55 307.072 206.158 295.307C208.027 289.21 211.608 283.678 216.812 279.922C217.254 279.603 216.827 278.86 216.379 279.183Z" fill="#4475AB"/>
<path d="M132.42 359.639C143.675 367.43 152.538 378.428 157.747 391.089C157.954 391.592 158.783 391.371 158.573 390.862C153.272 377.978 144.308 366.831 132.852 358.899C132.398 358.585 131.97 359.327 132.42 359.639Z" fill="#4475AB"/>
<path d="M124.24 373.186C137.604 387.036 146.676 404.808 150.206 423.722C151.216 429.136 151.75 434.625 151.828 440.132C151.836 440.683 152.693 440.685 152.685 440.132C152.406 420.673 146.246 401.416 135.262 385.355C132.154 380.812 128.668 376.542 124.847 372.582C124.463 372.183 123.858 372.79 124.24 373.186Z" fill="#4475AB"/>
<path d="M226.214 366.878C205.687 380.109 191.847 402.681 188.554 426.806C187.629 433.583 187.551 440.45 188.36 447.244C188.425 447.784 189.282 447.791 189.217 447.244C186.353 423.213 194.839 398.393 211.188 380.644C215.77 375.668 220.96 371.283 226.647 367.617C227.108 367.32 226.68 366.578 226.214 366.878Z" fill="#4475AB"/>
<path d="M207.327 445.153C205.94 441.747 204.563 438.143 204.682 434.406C204.799 430.711 206.685 427.599 209.223 425.029C214.11 420.079 220.459 416.263 226.648 413.18C227.141 412.935 226.708 412.196 226.216 412.44C222.648 414.217 219.207 416.238 215.935 418.518C213.008 420.559 210.042 422.745 207.673 425.433C205.5 427.897 204.003 430.827 203.834 434.149C203.634 438.047 205.057 441.831 206.502 445.38C206.705 445.885 207.534 445.665 207.327 445.153Z" fill="#4475AB"/>
</g>
<path d="M199.325 168.733C200.504 169.676 211.625 195.917 211.209 204.231C210.79 212.607 215.149 228.582 215.149 228.582C215.149 228.582 201.585 233.674 165.735 228.029C156.883 208.942 151.825 186.453 163.628 174.558C163.628 174.558 179.846 164.353 182.885 164.129C182.885 164.129 193.629 179.683 198.06 179.621C200.073 179.592 199.554 171.707 199.325 168.733Z" fill="white"/>
<path d="M181.097 164.934L181.35 158.605L204.135 164.175L202.616 171.517C202.616 171.517 210.212 188.986 200.591 186.201C190.97 183.416 181.097 164.934 181.097 164.934Z" fill="white"/>
<path d="M166.916 184.795C169.128 196.16 173.726 206.968 176.895 218.086C178.017 222.022 179.09 225.968 180.142 229.922C175.999 229.504 171.231 228.893 165.732 228.027C158.725 212.919 158.312 191.576 164.296 177.434C165.169 179.888 166.042 182.341 166.916 184.795Z" fill="#39194B"/>
<path d="M212.109 240.886C212.109 240.886 162.679 250.646 159.959 241.786L156.46 214.196L178.061 207.897L180.59 227.595C180.337 228.154 218.322 232.037 218.322 232.037C218.322 232.037 226.014 231.972 230.339 234.05C230.567 234.16 239.073 240.506 241.732 244.304L225.543 245.465C223.84 245.429 212.109 240.886 212.109 240.886Z" fill="#FFB264"/>
<path d="M172.815 172.394C172.815 172.394 180.584 178.038 179.112 185.179C177.64 192.319 178.565 209.493 178.565 209.493L155.699 215.381C155.699 215.381 141.79 170.751 172.815 172.394Z" fill="white"/>
<path d="M392.983 238.866C443.054 230.558 476.909 183.231 468.6 133.161C460.291 83.0896 412.965 49.2348 362.894 57.5435C312.823 65.8523 278.969 113.178 287.277 163.249C295.586 213.32 342.912 247.175 392.983 238.866Z" fill="#4475AB"/>
<path d="M469.841 148.226C469.841 97.4703 428.695 56.3242 377.939 56.3242C327.183 56.3242 286.037 97.4703 286.037 148.226" fill="white"/>
<path d="M376.42 148.226H286.037C286.037 97.4703 327.183 56.3242 377.939 56.3242L376.42 148.226Z" fill="#1B314F"/>
<path d="M452.048 222.341C492.98 181.409 492.98 115.046 452.048 74.1139C411.116 33.1821 344.753 33.1821 303.821 74.1139C262.889 115.046 262.889 181.409 303.821 222.341C344.753 263.273 411.116 263.273 452.048 222.341Z" stroke="white" stroke-miterlimit="10"/>
<path d="M406.167 101.814L441.106 66.876H583.136" stroke="#1B314F" stroke-width="0.75" stroke-miterlimit="10" stroke-linecap="round"/>
<path d="M583.136 71.5139C586.117 71.5139 588.533 69.0975 588.533 66.1168C588.533 63.1361 586.117 60.7197 583.136 60.7197C580.155 60.7197 577.739 63.1361 577.739 66.1168C577.739 69.0975 580.155 71.5139 583.136 71.5139Z" fill="#1B314F"/>
<path d="M372.749 224.938L407.687 259.875H549.717" stroke="#1B314F" stroke-width="0.75" stroke-miterlimit="10" stroke-linecap="round"/>
<path d="M549.717 266.032C552.698 266.032 555.114 263.616 555.114 260.635C555.114 257.655 552.698 255.238 549.717 255.238C546.736 255.238 544.32 257.655 544.32 260.635C544.32 263.616 546.736 266.032 549.717 266.032Z" fill="#1B314F"/>
<path d="M518.496 252.987H428.042C425.062 252.987 422.644 250.57 422.644 247.589C422.644 244.608 425.06 242.19 428.042 242.19H518.496C521.477 242.19 523.894 244.607 523.894 247.589C523.894 250.57 521.477 252.987 518.496 252.987Z" fill="#D4603F"/>
<path d="M510.687 50.9541H444.087C441.892 50.9541 440.113 49.1749 440.113 46.98C440.113 44.7851 441.892 43.0059 444.087 43.0059H510.687C512.882 43.0059 514.661 44.7851 514.661 46.98C514.661 49.1749 512.882 50.9541 510.687 50.9541Z" fill="#D4603F"/>
<path d="M491.614 34.2447H443.012C441.41 34.2447 440.112 32.9462 440.112 31.344C440.112 29.7418 441.41 28.4434 443.012 28.4434H491.614C493.216 28.4434 494.514 29.7418 494.514 31.344C494.514 32.9462 493.216 34.2447 491.614 34.2447Z" fill="white"/>
<path d="M557.907 432.789L556.122 454.744L524.532 461.456L540.824 445.233L544.758 431.473L557.907 432.789Z" fill="#FFA47E"/>
<path d="M540.813 443.307L518.461 463.001L560.755 463.44L557.907 443.526L549.579 451.634L540.813 443.307Z" fill="#D4603F"/>
<path d="M536.627 445.819L540.523 448.319" stroke="white" stroke-width="0.5266" stroke-miterlimit="10"/>
<path d="M533.15 447.458L537.046 449.956" stroke="white" stroke-width="0.5266" stroke-miterlimit="10"/>
<path d="M595.8 437.002L592.881 455.637L625.677 462.943L608.126 446.39L609.237 436.261L595.8 437.002Z" fill="#FFA47E"/>
<path d="M609.623 445.279L629.147 463.936L591.235 463.497L594.148 446.078L599.98 454.045L609.623 445.279Z" fill="#D4603F"/>
<path d="M613.407 447.65L609.397 449.964" stroke="white" stroke-width="0.5266" stroke-miterlimit="10"/>
<path d="M616.803 449.449L612.794 451.762" stroke="white" stroke-width="0.5266" stroke-miterlimit="10"/>
<path d="M606.34 226.44L568.782 230.067C568.782 230.067 563.444 233.982 558.106 254.266C551.603 278.982 541.859 343.297 538.656 436.002L562.946 436.732L582.841 295.242C583.436 293.18 586.488 293.68 586.395 295.823L592.92 438.32L616.855 437.39C616.855 437.39 624.055 282.371 617.744 258.173C611.794 235.365 606.34 226.44 606.34 226.44Z" fill="#25334C"/>
<mask id="mask1_4508_32054" style="mask-type:luminance" maskUnits="userSpaceOnUse" x="538" y="226" width="83" height="213">
<path d="M606.34 226.44L568.782 230.067C568.782 230.067 563.444 233.982 558.107 254.266C551.603 278.982 541.86 343.297 538.656 436.002L562.947 436.732L582.841 295.242C583.436 293.18 586.489 293.68 586.395 295.823L592.92 438.32L616.856 437.39C616.856 437.39 624.056 282.371 617.744 258.173C611.794 235.365 606.34 226.44 606.34 226.44Z" fill="white"/>
</mask>
<g mask="url(#mask1_4508_32054)">
<path d="M544.949 251.346C547.974 258.567 551.378 266.595 558.601 270.545C561.664 272.219 565.248 273.111 568.73 272.544C572.375 271.95 575.026 269.596 577.666 267.199C580.392 264.723 583.435 262.34 587.35 262.944C590.383 263.412 593.003 265.356 595.385 267.165C600.462 271.02 605.798 275.419 612.531 272.84C616.723 271.234 619.897 267.952 623.839 265.916C627.574 263.987 632.909 262.823 636.051 266.399C636.409 266.805 636.999 266.21 636.644 265.806C631.698 260.179 623.612 264.807 618.874 268.149C615.498 270.532 611.743 273.182 607.395 272.797C604.214 272.515 601.42 270.669 598.921 268.817C594.506 265.548 589.42 260.56 583.404 262.401C580.201 263.38 577.867 265.957 575.421 268.097C572.172 270.938 568.509 272.424 564.156 271.661C553.961 269.874 549.333 259.659 545.757 251.126C545.553 250.632 544.741 250.848 544.949 251.346Z" fill="#4475AB"/>
</g>
<mask id="mask2_4508_32054" style="mask-type:luminance" maskUnits="userSpaceOnUse" x="538" y="226" width="83" height="213">
<path d="M606.34 226.44L568.782 230.067C568.782 230.067 563.444 233.982 558.107 254.266C551.603 278.982 541.86 343.297 538.656 436.002L562.947 436.732L582.841 295.242C583.436 293.18 586.489 293.68 586.395 295.823L592.92 438.32L616.856 437.39C616.856 437.39 624.056 282.371 617.744 258.173C611.794 235.365 606.34 226.44 606.34 226.44Z" fill="white"/>
</mask>
<g mask="url(#mask2_4508_32054)">
<path d="M537.537 284.613C542.396 292.388 547.896 301.279 556.73 304.988C564.7 308.332 570.664 302.354 576.816 298.209C580.309 295.854 584.232 294.166 588.505 295.202C592.998 296.29 596.587 299.638 599.809 302.77C602.491 305.376 605.66 309.752 609.831 309.596C614.051 309.438 616.735 305.237 619.993 303.143C630.801 296.203 643.433 303.927 652.555 309.979C653.006 310.278 653.427 309.552 652.979 309.255C645.013 303.97 636.097 298.319 626.083 299.976C623.93 300.333 621.823 301.057 619.949 302.184C618.147 303.268 616.665 304.759 615.073 306.112C613.311 307.61 611.166 309.135 608.719 308.678C606.196 308.208 604.305 306.02 602.562 304.301C597.143 298.961 590.492 292.036 582.094 294.59C574.971 296.755 570.176 304.493 562.531 305.166C556.885 305.662 551.619 301.403 547.954 297.565C544.138 293.568 541.179 288.855 538.262 284.188C537.975 283.733 537.249 284.153 537.537 284.613Z" fill="#4475AB"/>
</g>
<mask id="mask3_4508_32054" style="mask-type:luminance" maskUnits="userSpaceOnUse" x="538" y="226" width="83" height="213">
<path d="M606.34 226.44L568.782 230.067C568.782 230.067 563.444 233.982 558.107 254.266C551.603 278.982 541.86 343.297 538.656 436.002L562.947 436.732L582.841 295.242C583.436 293.18 586.489 293.68 586.395 295.823L592.92 438.32L616.856 437.39C616.856 437.39 624.056 282.371 617.744 258.173C611.794 235.365 606.34 226.44 606.34 226.44Z" fill="white"/>
</mask>
<g mask="url(#mask3_4508_32054)">
<path d="M536.266 319.338C540.643 326.935 546.017 333.941 552.264 340.095C554.563 342.36 557.612 346.345 561.222 344.507C564.874 342.646 567.137 338.737 569.877 335.848C572.841 332.721 577.402 330.014 581.624 332.423C584.551 334.094 586.286 337.282 588.48 339.726C590.848 342.364 593.802 343.927 597.39 344.028C601.502 344.144 605.405 342.626 609.065 340.906C613.413 338.863 618.072 336.201 623.042 336.484C627.221 336.722 631.946 339.239 632.479 343.778C632.54 344.308 633.38 344.314 633.317 343.778C632.484 336.681 624.06 334.702 618.199 336.218C613.854 337.343 610.002 339.738 605.871 341.414C601.787 343.071 596.77 344.155 592.642 342.05C586.9 339.122 584.771 329.704 577.092 330.703C573.168 331.214 570.153 334.148 567.714 337.025C566.342 338.645 565.031 340.329 563.478 341.782C562.569 342.633 561.491 343.609 560.289 344.013C558.781 344.519 557.55 343.791 556.417 342.835C548.595 336.229 542.079 327.754 536.988 318.918C536.72 318.446 535.995 318.869 536.266 319.338Z" fill="#4475AB"/>
</g>
<mask id="mask4_4508_32054" style="mask-type:luminance" maskUnits="userSpaceOnUse" x="538" y="226" width="83" height="213">
<path d="M606.34 226.44L568.782 230.067C568.782 230.067 563.444 233.982 558.107 254.266C551.603 278.982 541.86 343.297 538.656 436.002L562.947 436.732L582.841 295.242C583.436 293.18 586.489 293.68 586.395 295.823L592.92 438.32L616.856 437.39C616.856 437.39 624.056 282.371 617.744 258.173C611.794 235.365 606.34 226.44 606.34 226.44Z" fill="white"/>
</mask>
<g mask="url(#mask4_4508_32054)">
<path d="M532.792 356.222C538.236 363.539 540.21 373.538 548.144 378.842C551.298 380.952 555.298 382.258 559.068 381.219C563.099 380.109 565.336 376.504 568.425 374.007C572.593 370.638 578.15 371.343 582.485 374.035C584.657 375.383 586.537 377.144 588.296 378.986C589.85 380.614 591.249 382.653 593.103 383.952C596.035 386.004 598.538 383.872 599.979 381.261C600.868 379.651 601.505 377.881 602.543 376.355C603.724 374.62 605.472 373.416 607.434 372.719C617.721 369.064 627.01 377.776 636.968 378.627C637.506 378.672 637.503 377.834 636.968 377.788C627.918 377.015 620.318 370.297 611 371.128C607.709 371.422 604.396 372.638 602.289 375.292C601.234 376.621 600.583 378.217 599.834 379.724C599.09 381.222 598.167 383.252 596.447 383.824C594.004 384.636 592.117 381.917 590.713 380.366C589.135 378.623 587.528 376.892 585.725 375.376C582.528 372.688 578.565 370.662 574.284 370.869C570.013 371.076 567.326 373.793 564.48 376.645C562.861 378.269 561.106 379.789 558.848 380.412C556.786 380.98 554.61 380.777 552.594 380.118C541.759 376.577 539.596 363.968 533.52 355.799C533.198 355.37 532.469 355.788 532.792 356.222Z" fill="#4475AB"/>
</g>
<mask id="mask5_4508_32054" style="mask-type:luminance" maskUnits="userSpaceOnUse" x="538" y="226" width="83" height="213">
<path d="M606.34 226.44L568.782 230.067C568.782 230.067 563.444 233.982 558.107 254.266C551.603 278.982 541.86 343.297 538.656 436.002L562.947 436.732L582.841 295.242C583.436 293.18 586.489 293.68 586.395 295.823L592.92 438.32L616.856 437.39C616.856 437.39 624.056 282.371 617.744 258.173C611.794 235.365 606.34 226.44 606.34 226.44Z" fill="white"/>
</mask>
<g mask="url(#mask5_4508_32054)">
<path d="M527.419 389.562C531.063 398.047 536.317 406.521 544.932 410.647C548.709 412.456 552.954 413.37 557.134 412.835C561.784 412.239 565.786 409.732 569.825 407.545C574.256 405.146 578.827 403.541 583.937 404.051C586.59 404.314 589.204 405.09 591.557 406.346C593.628 407.452 595.439 409.006 597.582 409.984C599.277 410.759 601.153 411.107 602.912 410.314C604.639 409.537 605.729 407.919 606.889 406.499C609.706 403.048 613.723 400.778 618.116 400.054C623.476 399.17 628.137 401.064 632.74 403.62C636.847 405.9 641.048 408.418 645.91 408.254C646.448 408.236 646.451 407.398 645.91 407.416C637.2 407.71 630.94 399.617 622.332 399.018C618.476 398.749 614.533 399.714 611.209 401.678C609.517 402.677 607.976 403.941 606.694 405.43C605.3 407.048 604.085 409.195 601.888 409.799C599.328 410.503 596.783 408.683 594.762 407.351C592.886 406.115 591 405.004 588.866 404.272C584.798 402.878 580.285 402.72 576.143 403.89C571.718 405.138 567.917 407.833 563.821 409.822C559.342 411.997 554.627 412.752 549.754 411.519C538.849 408.763 532.329 398.881 528.145 389.141C527.93 388.644 527.207 389.071 527.419 389.562Z" fill="#4475AB"/>
</g>
<path d="M564.918 436.293L566.179 428.235L536.927 427.244L536.43 437.169L564.918 436.293Z" fill="#4475AB"/>
<path d="M591.962 438.151C592.45 437.659 590.971 428.73 590.971 428.73L618.736 427.739L618.609 438.046L591.962 438.151Z" fill="#4475AB"/>
<path d="M527.137 175.715C527.137 175.715 544.964 228.358 553.852 225.781L553.716 199.716C553.387 200.234 538.538 170.744 538.538 170.744C538.538 170.744 534.063 163.341 532.054 162.179C530.749 162 529.528 162.863 529.261 164.153L527.014 174.999" fill="#FFA47E"/>
<path d="M532.712 174.133L537.302 151.521" stroke="white" stroke-width="3.045" stroke-miterlimit="10" stroke-linecap="round"/>
<path d="M538.178 170.509C538.178 170.509 538.124 162.983 537.069 162.84C536.015 162.697 531.026 163.074 530.547 164.785C530.067 166.497 534.292 166.408 534.292 166.408C534.292 166.408 532.309 169.919 534.013 171.059C535.718 172.2 538.178 170.509 538.178 170.509Z" fill="#FFA47E"/>
<path d="M585.503 154.201C585.503 154.201 570.452 163.304 565.293 168.443C560.135 173.582 554.528 199.665 554.528 199.665L542.008 172.148L525.399 183.427C525.399 183.427 544.841 226.919 553.289 227.183C561.735 227.448 603.863 179.215 585.503 154.201Z" fill="white"/>
<path d="M564.456 126.533C564.206 134.23 566.727 142.278 573.325 146.846C579.543 151.151 588.258 150.125 593.939 145.289C603.241 137.374 600.415 119.211 590.102 115.006C588.683 114.427 584.733 114.027 584.137 112.91C576.059 111.538 567.298 115.221 565.419 121.359C565.19 122.11 564.711 123.275 564.201 124.586C564.385 125.164 564.48 125.81 564.456 126.533Z" fill="#1E2F4D"/>
<path d="M587.501 132.494C587.598 132.806 587.93 132.978 588.239 132.87C589.53 132.42 592.419 131.119 594.002 134.356C595.603 137.628 593.006 140.671 591.084 141.451C590.529 141.676 589.263 142.24 589.023 142.79C588.284 144.477 588.694 147.469 588.987 151.273C589.636 159.675 596.906 161.115 596.906 161.115C596.906 161.115 578.161 177.103 574.926 167.081C576.198 164.943 575.431 148.839 573.014 149.711C569.843 150.855 563.577 149.435 562.941 135.054C562.35 121.731 571.522 119.542 573.914 119.166C575.932 118.849 582.684 116.992 587.501 132.494Z" fill="#FFA47E"/>
<path d="M567.261 120.123C567.261 120.123 585.296 132.256 587.924 132.874C587.924 132.874 589.501 109.957 567.261 120.123Z" fill="#1E2F4D"/>
<path d="M592.869 135.841C592.869 135.841 589.365 132.254 588.76 138.882L592.869 135.841Z" fill="#E07B51"/>
<path d="M576.273 136.369C574.584 136.907 573.651 138.714 574.189 140.403C574.728 142.092 576.533 143.025 578.222 142.487C579.911 141.949 580.844 140.142 580.306 138.453C579.767 136.764 577.962 135.831 576.273 136.369Z" fill="#E07B51"/>
<path d="M564.015 141.85C565.318 141.12 565.973 139.553 565.502 138.076C565.139 136.936 564.199 136.141 563.107 135.909C563.107 135.909 562.965 139.713 564.015 141.85Z" fill="#E07B51"/>
<path d="M568.748 135.378L569.151 138.933L567.299 138.775C566.957 138.747 566.771 138.362 566.961 138.076L568.748 135.378Z" fill="#E07B51"/>
<path d="M573.932 131.549C574.526 131.972 573.62 130.095 572.806 129.872C571.991 129.648 571.175 130.037 570.981 130.741C570.981 130.741 572.504 130.533 573.932 131.549Z" fill="black"/>
<path d="M564.069 131.246C563.469 131.661 564.4 129.796 565.218 129.583C566.035 129.371 566.846 129.772 567.03 130.477C567.03 130.477 565.51 130.25 564.069 131.246Z" fill="black"/>
<path d="M571.717 135.877C571.684 136.507 571.409 137.004 571.104 136.988C570.799 136.972 570.578 136.448 570.611 135.819C570.644 135.188 570.918 134.69 571.224 134.707C571.529 134.723 571.75 135.248 571.717 135.877Z" fill="black"/>
<path d="M566.213 135.547C566.181 136.149 565.92 136.624 565.628 136.608C565.337 136.593 565.126 136.093 565.157 135.491C565.189 134.889 565.45 134.414 565.743 134.429C566.034 134.445 566.244 134.945 566.213 135.547Z" fill="black"/>
<path d="M573.732 149.682C573.732 149.682 578.201 148.161 581.048 146.972C583.896 145.783 576.742 157.363 573.732 149.682Z" fill="#E07B51"/>
<path d="M590.597 160.139C590.597 160.139 593.737 159.272 593.21 159.933C592.684 160.593 591.564 161.319 590.445 162.045L590.597 160.139Z" fill="#C20600"/>
<path d="M574.113 160.374C574.452 161.224 560.323 187.715 560.64 196.023C560.958 204.393 566.503 231.249 566.042 232.503C566.042 232.503 578.9 239.087 614.769 233.878C618.24 202.642 619.209 176.156 607.58 166.323C607.58 166.323 594.994 157.287 591.962 157.026C591.962 157.026 578.642 173.497 574.113 160.374Z" fill="white"/>
<path d="M605.677 162.944C600.439 160.348 593.74 157.178 591.962 157.026C591.962 157.026 589.651 159.879 586.629 162.265C586.741 162.942 586.735 163.675 586.57 164.462C581.65 187.76 577.901 220.333 580.806 244.041C588.212 244.354 610.742 247.019 623.57 245.156C621.937 221.757 622.909 195.659 618.993 179.487C617.245 172.272 612.328 166.241 605.677 162.944Z" fill="#D4603F"/>
<path d="M574.484 245.529C571.797 221.732 571.909 187.449 576.644 163.967C576.137 163.247 575.547 160.141 575.157 159.009C575.496 159.86 560.324 187.714 560.64 196.022C560.959 204.392 555.98 243.904 555.521 245.156C555.521 245.156 569.376 244.576 574.484 245.529Z" fill="#D4603F"/>
<path d="M562.426 202.754C562.303 201.896 562.174 201.02 561.775 200.25C561.376 199.481 560.652 198.824 559.789 198.746C558.65 198.643 557.659 199.548 557.073 200.53C556.799 200.989 556.577 201.48 556.412 201.988C556.368 202.124 556.341 202.302 556.459 202.384C556.529 202.431 556.621 202.421 556.705 202.411C558.466 202.205 560.221 203.094 561.979 202.869" fill="#35445C"/>
<path d="M556.142 203.688L562.468 203.764C562.879 203.768 563.216 203.439 563.22 203.028C563.225 202.617 562.896 202.28 562.485 202.275L556.159 202.199C555.748 202.195 555.411 202.524 555.406 202.935C555.402 203.346 555.731 203.683 556.142 203.688Z" fill="#ADBEDE"/>
<path d="M556.733 211.831L547.17 180.533C546.64 178.798 545.408 177.388 543.793 176.667L523.553 167.636C522.954 167.369 522.329 167.958 522.532 168.6L532.206 199.267C532.727 200.917 533.886 202.271 535.407 203.004L555.69 212.781C556.287 213.067 556.932 212.482 556.733 211.831Z" fill="#F5C679"/>
<path d="M555.414 213.797L545.851 182.499C545.321 180.764 544.089 179.354 542.474 178.633L522.235 169.602C521.635 169.335 521.01 169.924 521.213 170.566L530.886 201.233C531.407 202.883 532.566 204.237 534.087 204.97L554.37 214.746C554.969 215.033 555.613 214.448 555.414 213.797Z" fill="#4475AB"/>
<path d="M555.334 207.972C555.334 207.972 586.977 244.983 593.984 238.937L583.004 215.297C582.92 215.904 557.138 195.28 557.138 195.28C557.138 195.28 539.56 188.151 539.116 190.43C538.808 192.014 549.646 193.268 548.618 193.255C548.508 193.254 539.061 191.547 538.137 192.449C536.771 193.781 547.827 195.931 547.691 196.679C547.691 196.679 536.646 196.752 536.3 197.855C535.955 198.958 547.321 199.776 547.096 200.106C546.871 200.436 537.628 199.322 538.973 200.164C540.46 201.093 555.334 207.972 555.334 207.972Z" fill="#FFA47E"/>
<path d="M550.835 193.696C550.835 193.696 546.642 185.197 548.513 186.217C550.384 187.237 559.975 197.823 559.975 197.823" fill="#FFA47E"/>
<path d="M611.599 169.918C609.019 166.033 603.159 166.431 600.983 170.557C598.586 175.106 596.681 183.319 595.311 186.986C592.762 193.806 581.908 214.109 581.908 214.109L560.4 197.197L554.136 211.791C554.136 211.791 585.565 244.373 593.355 241.095C600.297 238.174 625.221 190.428 611.599 169.918Z" fill="white"/>
<path d="M588.614 118.075C593.801 118.075 598.005 113.871 598.005 108.685C598.005 103.498 593.801 99.2939 588.614 99.2939C583.428 99.2939 579.224 103.498 579.224 108.685C579.224 113.871 583.428 118.075 588.614 118.075Z" fill="#1E2F4D"/>
<path d="M606.758 75.666C606.758 72.5198 604.208 69.9697 601.062 69.9697C597.916 69.9697 595.366 72.5198 595.366 75.666C595.366 78.8122 597.916 81.3623 601.062 81.3623C604.208 81.3623 606.758 78.8122 606.758 75.666Z" fill="white"/>
<path d="M658.027 343.399C660.544 343.399 662.585 341.358 662.585 338.841C662.585 336.324 660.544 334.283 658.027 334.283C655.51 334.283 653.469 336.324 653.469 338.841C653.469 341.358 655.51 343.399 658.027 343.399Z" fill="white"/>
<path d="M124.842 58.576C127.359 58.576 129.399 56.536 129.399 54.0194C129.399 51.5029 127.359 49.4629 124.842 49.4629C122.326 49.4629 120.286 51.5029 120.286 54.0194C120.286 56.536 122.326 58.576 124.842 58.576Z" fill="white"/>
<path d="M133.197 242.381C133.197 238.605 130.136 235.545 126.361 235.545C122.585 235.545 119.525 238.605 119.525 242.381C119.525 246.156 122.585 249.217 126.361 249.217C130.136 249.217 133.197 246.156 133.197 242.381Z" fill="white"/>
<path d="M617.013 64.2725C622.046 64.2725 626.127 60.1919 626.127 55.1582C626.127 50.1245 622.046 46.0439 617.013 46.0439C611.979 46.0439 607.898 50.1245 607.898 55.1582C607.898 60.1919 611.979 64.2725 617.013 64.2725Z" stroke="#F5C679" stroke-width="2" stroke-miterlimit="10"/>
<path d="M666.001 392.386C666.001 387.981 662.43 384.411 658.026 384.411C653.623 384.411 650.052 387.982 650.052 392.386C650.052 396.79 653.623 400.36 658.026 400.36C662.43 400.36 666.001 396.79 666.001 392.386Z" fill="#F5C679"/>
<path d="M735.497 334.282C738.643 334.282 741.193 331.732 741.193 328.586C741.193 325.44 738.643 322.89 735.497 322.89C732.351 322.89 729.801 325.44 729.801 328.586C729.801 331.732 732.351 334.282 735.497 334.282Z" stroke="#F5C679" stroke-width="2" stroke-miterlimit="10"/>
<path d="M56.1069 109.084C56.1069 105.938 53.5568 103.388 50.4106 103.388C47.2644 103.388 44.7144 105.938 44.7144 109.084C44.7144 112.23 47.2644 114.78 50.4106 114.78C53.5557 114.78 56.1069 112.23 56.1069 109.084Z" stroke="#F5C679" stroke-width="2" stroke-miterlimit="10"/>
<path d="M308.267 394.664C310.784 394.664 312.824 392.624 312.824 390.107C312.824 387.591 310.784 385.551 308.267 385.551C305.751 385.551 303.711 387.591 303.711 390.107C303.711 392.624 305.751 394.664 308.267 394.664Z" fill="#F5C679"/>
<path d="M95.8263 226.074C102.562 224.484 106.733 217.734 105.143 210.998C103.552 204.262 96.8024 200.091 90.0665 201.682C83.3306 203.272 79.1595 210.022 80.75 216.758C82.3406 223.494 89.0905 227.665 95.8263 226.074Z" stroke="#F5C679" stroke-width="2" stroke-miterlimit="10"/>
<path d="M86.1064 415.171C86.1064 412.025 83.5563 409.475 80.4101 409.475C77.2639 409.475 74.7139 412.025 74.7139 415.171C74.7139 418.318 77.2639 420.868 80.4101 420.868C83.5563 420.869 86.1064 418.318 86.1064 415.171Z" stroke="#F5C679" stroke-width="2" stroke-miterlimit="10"/>
<path d="M552.642 422.792H332.761V287.671C332.761 281.758 337.555 276.964 343.469 276.964H541.935C547.848 276.964 552.642 281.758 552.642 287.671V422.792Z" fill="white"/>
<path d="M332.761 294.053H552.642" stroke="#F5C679" stroke-miterlimit="10"/>
<path d="M348.711 290.255C351.227 290.255 353.267 288.215 353.267 285.698C353.267 283.182 351.227 281.142 348.711 281.142C346.194 281.142 344.154 283.182 344.154 285.698C344.154 288.215 346.194 290.255 348.711 290.255Z" fill="#F5C679"/>
<path d="M365.422 290.255C367.938 290.255 369.978 288.215 369.978 285.698C369.978 283.182 367.938 281.142 365.422 281.142C362.905 281.142 360.865 283.182 360.865 285.698C360.865 288.215 362.905 290.255 365.422 290.255Z" fill="#E37059"/>
<path d="M382.131 290.255C384.648 290.255 386.688 288.215 386.688 285.698C386.688 283.182 384.648 281.142 382.131 281.142C379.615 281.142 377.575 283.182 377.575 285.698C377.575 288.215 379.615 290.255 382.131 290.255Z" fill="#4475AB"/>
<path d="M360.104 322.155V404.943H534.035" stroke="#F5C679" stroke-miterlimit="10"/>
<path d="M360.104 376.841C360.104 376.841 371.245 339.794 388.966 340.384C411.752 341.143 410.232 379.879 423.904 378.36C448.803 375.593 442.133 317.598 468.716 323.674C480.486 326.365 476.417 379.172 487.704 387.474C494.807 392.699 510.367 372.641 517.325 368.486C524.283 364.332 531.757 366.208 531.757 366.208L532.516 404.184L360.104 404.943V376.841Z" fill="#F5C679"/>
<path d="M461.843 317.598H486.945C489.877 317.598 492.255 315.22 492.255 312.288C492.255 309.355 489.877 306.978 486.945 306.978H461.843C458.911 306.978 456.533 309.355 456.533 312.288C456.533 315.22 458.911 317.598 461.843 317.598Z" fill="#4475AB"/>
<path d="M480.871 323.463H476.191V328.143H480.871V323.463Z" fill="#F5C679"/>
<path d="M488.318 323.463H483.638V328.143H488.318V323.463Z" fill="#F5C679"/>
<path d="M488.318 330.409H483.638V335.089H488.318V330.409Z" fill="#F5C679"/>
<path d="M262.886 255.317V423.171C262.886 442.047 278.189 457.35 297.065 457.35H398.841C417.717 457.35 433.02 442.047 433.02 423.171" stroke="white" stroke-miterlimit="10"/>
<path d="M262.886 341.903C268.339 341.903 272.76 337.482 272.76 332.029C272.76 326.576 268.339 322.155 262.886 322.155C257.433 322.155 253.012 326.576 253.012 332.029C253.012 337.482 257.433 341.903 262.886 341.903Z" fill="white"/>
<path d="M262.886 348.911C272.21 348.911 279.768 341.352 279.768 332.029C279.768 322.705 272.21 315.146 262.886 315.146C253.562 315.146 246.004 322.705 246.004 332.029C246.004 341.352 253.562 348.911 262.886 348.911Z" stroke="white" stroke-miterlimit="10"/>
<path d="M235.38 242.972H190.837V248.195H235.38V242.972Z" fill="#000307"/>
<path d="M190.837 242.972H219.942L217.653 248.196H190.837V242.972Z" fill="white"/>
<path d="M291.059 248.196H220.856L237.802 199.779H308.005L291.059 248.196Z" fill="white"/>
<path d="M268.56 225.349C268.56 222.914 266.587 220.94 264.153 220.94C261.719 220.94 259.745 222.914 259.745 225.349C259.745 227.783 261.719 229.757 264.153 229.757C266.587 229.757 268.56 227.783 268.56 225.349Z" fill="#000307"/>
<path d="M334.581 248.177H178.565V255.184H334.581V248.177Z" fill="#4475AB"/>
</svg>
