<svg width="24" height="24" viewBox="0 0 24 24" fill="none" xmlns="http://www.w3.org/2000/svg">
<path fill-rule="evenodd" clip-rule="evenodd" d="M21.8701 11.5004C21.2301 10.3904 17.7101 4.82036 11.7301 5.00036C6.20007 5.14036 3.00007 10.0004 2.13007 11.5004C1.95144 11.8098 1.95144 12.191 2.13007 12.5004C2.76007 13.5904 6.13007 19.0004 12.0201 19.0004H12.2701C17.8001 18.8604 21.0101 14.0004 21.8701 12.5004C22.0487 12.191 22.0487 11.8098 21.8701 11.5004ZM12.0001 15.5004C10.0671 15.5004 8.50007 13.9334 8.50007 12.0004C8.50007 10.0674 10.0671 8.50036 12.0001 8.50036C13.9331 8.50036 15.5001 10.0674 15.5001 12.0004C15.5001 13.9334 13.9331 15.5004 12.0001 15.5004ZM12.0001 13.5004C12.8285 13.5004 13.5001 12.8288 13.5001 12.0004C13.5001 11.1719 12.8285 10.5004 12.0001 10.5004C11.1716 10.5004 10.5001 11.1719 10.5001 12.0004C10.5001 12.8288 11.1716 13.5004 12.0001 13.5004Z" fill="#353535"/>
</svg>
