<svg width="661" height="664" viewBox="0 0 661 664" fill="none" xmlns="http://www.w3.org/2000/svg">
<path d="M594.781 663.553H36.3975C43.6329 515.62 165.864 397.913 315.589 397.913C465.315 397.913 587.546 515.62 594.781 663.553Z" fill="#FB7857"/>
<path d="M284.123 158.807C327.976 158.807 363.526 123.257 363.526 79.4034C363.526 35.5501 327.976 0 284.123 0C240.269 0 204.719 35.5501 204.719 79.4034C204.719 123.257 240.269 158.807 284.123 158.807Z" fill="#FB7857"/>
<path d="M443.425 233.192H276.017C269.584 233.192 264.37 227.977 264.37 221.545V89.9956C264.37 83.5629 269.585 78.3486 276.017 78.3486H443.425C449.858 78.3486 455.072 83.5635 455.072 89.9956V221.545C455.072 227.977 449.857 233.192 443.425 233.192Z" stroke="white" stroke-width="2" stroke-miterlimit="10"/>
<path d="M343.837 105.463C315.427 105.463 292.395 128.494 292.395 156.905C292.395 173.037 299.824 187.434 311.445 196.865L343.837 156.905V105.463Z" fill="#59DEEB"/>
<path d="M395.278 156.904C395.278 128.493 372.247 105.462 343.836 105.462V156.904L354.822 207.165C377.953 202.132 395.278 181.543 395.278 156.904Z" fill="white"/>
<path d="M311.444 196.864C320.288 204.041 331.559 208.345 343.836 208.345C347.607 208.345 351.282 207.935 354.822 207.165L343.836 156.903L311.444 196.864Z" fill="#FFD9A6"/>
<path d="M343.837 105.463V156.905L385.302 187.348" stroke="#BABABA" stroke-width="2" stroke-miterlimit="10"/>
<path d="M412.998 118.422H374.264V126.017H412.998V118.422Z" stroke="#BABABA" stroke-width="2" stroke-miterlimit="10"/>
<path d="M425.657 170.32H386.923V177.915H425.657V170.32Z" stroke="#BABABA" stroke-width="2" stroke-miterlimit="10"/>
<path d="M404.138 134.625H428.948" stroke="#BABABA" stroke-width="2" stroke-miterlimit="10"/>
<path d="M404.138 139.688H428.948" stroke="#BABABA" stroke-width="2" stroke-miterlimit="10"/>
<path d="M404.138 144.752H428.948" stroke="#BABABA" stroke-width="2" stroke-miterlimit="10"/>
<path d="M404.138 187.348H428.948" stroke="#BABABA" stroke-width="2" stroke-miterlimit="10"/>
<path d="M404.138 192.411H428.948" stroke="#BABABA" stroke-width="2" stroke-miterlimit="10"/>
<path d="M404.138 197.475H428.948" stroke="#BABABA" stroke-width="2" stroke-miterlimit="10"/>
<path d="M253.543 325.977H219.602V332.632H253.543V325.977Z" stroke="#3D3E49" stroke-width="2" stroke-miterlimit="10"/>
<path d="M247.937 318.025H225.209C222.112 318.025 219.603 315.515 219.603 312.419V298.473C219.603 295.377 222.113 292.867 225.209 292.867H247.937C251.034 292.867 253.543 295.377 253.543 298.473V312.419C253.543 315.515 251.033 318.025 247.937 318.025Z" fill="white"/>
<path d="M219.602 339.244H241.342" stroke="#3D3E49" stroke-width="2" stroke-miterlimit="10"/>
<path d="M219.602 343.682H241.342" stroke="#3D3E49" stroke-width="2" stroke-miterlimit="10"/>
<path d="M219.602 348.117H241.342" stroke="#3D3E49" stroke-width="2" stroke-miterlimit="10"/>
<path d="M268.433 376.589H22.9814C16.5926 376.589 11.4136 371.41 11.4136 365.021V220.709C11.4136 214.321 16.5926 209.142 22.9814 209.142H268.433C274.822 209.142 280.001 214.321 280.001 220.709V365.022C280.001 371.411 274.822 376.589 268.433 376.589Z" stroke="white" stroke-width="2" stroke-miterlimit="10"/>
<path d="M199.994 209.142V376.589" stroke="white" stroke-width="2" stroke-miterlimit="10"/>
<path d="M168.629 209.142V376.589" stroke="white" stroke-width="2" stroke-miterlimit="10"/>
<path d="M137.264 209.142V376.589" stroke="white" stroke-width="2" stroke-miterlimit="10"/>
<path d="M105.899 209.142V376.589" stroke="white" stroke-width="2" stroke-miterlimit="10"/>
<path d="M74.5342 209.142V376.589" stroke="white" stroke-width="2" stroke-miterlimit="10"/>
<path d="M43.168 209.142V376.589" stroke="white" stroke-width="2" stroke-miterlimit="10"/>
<path d="M11.4141 313.859L39.8039 295.09C41.8345 293.747 44.4785 293.783 46.4726 295.179L67.4438 309.864C70.4346 311.958 74.5899 310.876 76.1797 307.589L99.404 259.562C101.739 254.732 108.777 255.242 110.392 260.357L132.646 330.821C134.278 335.988 141.415 336.437 143.682 331.516L164.316 286.726C166.229 282.573 171.926 282.059 174.551 285.803L199.995 322.077" stroke="white" stroke-width="2" stroke-miterlimit="10"/>
<path d="M92.8231 281.979C92.8231 284.458 90.8134 286.467 88.3351 286.467C85.8568 286.467 83.8472 284.457 83.8472 281.979C83.8472 279.501 85.8568 277.491 88.3351 277.491C90.8134 277.491 92.8231 279.501 92.8231 281.979Z" fill="#59DEEB"/>
<path d="M82.0556 275.483L75.4173 268.689H27.7394C25.1143 268.689 22.9863 266.561 22.9863 263.936V243.5C22.9863 240.875 25.1143 238.747 27.7394 238.747H80.687C83.312 238.747 85.44 240.875 85.44 243.5V268.689V274.105C85.4407 275.873 83.2924 276.749 82.0556 275.483Z" fill="#FFD9A6"/>
<path d="M5.88232 357.386H16.4792" stroke="#3D3E49" stroke-width="2" stroke-miterlimit="10"/>
<path d="M5.88232 335.513H16.4792" stroke="#3D3E49" stroke-width="2" stroke-miterlimit="10"/>
<path d="M5.88232 313.639H16.4792" stroke="#3D3E49" stroke-width="2" stroke-miterlimit="10"/>
<path d="M5.88232 291.766H16.4792" stroke="#3D3E49" stroke-width="2" stroke-miterlimit="10"/>
<path d="M5.88232 269.892H16.4792" stroke="#3D3E49" stroke-width="2" stroke-miterlimit="10"/>
<path d="M5.88232 248.018H16.4792" stroke="#3D3E49" stroke-width="2" stroke-miterlimit="10"/>
<path d="M5.88232 226.145H16.4792" stroke="#3D3E49" stroke-width="2" stroke-miterlimit="10"/>
<path d="M155.31 314.295C159.835 314.295 163.504 310.627 163.504 306.101C163.504 301.575 159.835 297.907 155.31 297.907C150.784 297.907 147.116 301.575 147.116 306.101C147.116 310.627 150.784 314.295 155.31 314.295Z" stroke="#3D3E49" stroke-width="2" stroke-miterlimit="10"/>
<path d="M280.001 221.187H199.994" stroke="white" stroke-width="2" stroke-miterlimit="10"/>
<path d="M344.054 436.764H280.216C272.108 436.764 265.535 430.191 265.535 422.082V373.744C265.535 365.636 272.108 359.062 280.216 359.062H344.054C352.162 359.062 358.735 365.636 358.735 373.744V422.082C358.735 430.191 352.163 436.764 344.054 436.764Z" stroke="white" stroke-width="2" stroke-miterlimit="10"/>
<path d="M289.105 373.207C289.105 371.755 287.927 370.577 286.474 370.577C285.022 370.577 283.844 371.755 283.844 373.207C283.844 374.66 285.022 375.838 286.474 375.838C287.927 375.837 289.105 374.66 289.105 373.207Z" fill="#FFA33E"/>
<path d="M306.005 373.207C306.005 371.755 304.827 370.577 303.375 370.577C301.922 370.577 300.744 371.755 300.744 373.207C300.744 374.66 301.921 375.838 303.375 375.838C304.828 375.837 306.005 374.66 306.005 373.207Z" stroke="white" stroke-width="2" stroke-miterlimit="10"/>
<path d="M322.905 373.207C322.905 371.755 321.728 370.577 320.275 370.577C318.822 370.577 317.645 371.755 317.645 373.207C317.645 374.66 318.822 375.838 320.275 375.838C321.727 375.838 322.905 374.66 322.905 373.207Z" fill="#59DEEB"/>
<path d="M339.806 373.207C339.806 371.755 338.629 370.577 337.176 370.577C335.723 370.577 334.545 371.755 334.545 373.207C334.545 374.66 335.723 375.838 337.176 375.838C338.629 375.837 339.806 374.66 339.806 373.207Z" stroke="white" stroke-width="2" stroke-miterlimit="10"/>
<path d="M289.105 389.375C289.105 387.923 287.927 386.745 286.474 386.745C285.022 386.745 283.844 387.922 283.844 389.375C283.844 390.828 285.022 392.005 286.474 392.005C287.927 392.005 289.105 390.828 289.105 389.375Z" stroke="white" stroke-width="2" stroke-miterlimit="10"/>
<path d="M306.005 389.375C306.005 387.923 304.827 386.745 303.375 386.745C301.922 386.745 300.744 387.922 300.744 389.375C300.744 390.828 301.921 392.005 303.375 392.005C304.828 392.005 306.005 390.828 306.005 389.375Z" stroke="white" stroke-width="2" stroke-miterlimit="10"/>
<path d="M322.905 389.375C322.905 387.923 321.728 386.745 320.275 386.745C318.822 386.745 317.645 387.922 317.645 389.375C317.645 390.828 318.822 392.005 320.275 392.005C321.727 392.005 322.905 390.828 322.905 389.375Z" fill="white"/>
<path d="M339.806 389.375C339.806 387.923 338.629 386.745 337.176 386.745C335.723 386.745 334.545 387.922 334.545 389.375C334.545 390.828 335.723 392.005 337.176 392.005C338.629 392.005 339.806 390.828 339.806 389.375Z" fill="#FFA33E"/>
<path d="M289.105 405.544C289.105 404.091 287.927 402.913 286.474 402.913C285.022 402.913 283.844 404.091 283.844 405.544C283.844 406.996 285.022 408.174 286.474 408.174C287.927 408.174 289.105 406.996 289.105 405.544Z" stroke="white" stroke-width="2" stroke-miterlimit="10"/>
<path d="M306.005 405.544C306.005 404.091 304.827 402.913 303.375 402.913C301.922 402.913 300.744 404.091 300.744 405.544C300.744 406.996 301.921 408.174 303.375 408.174C304.828 408.174 306.005 406.996 306.005 405.544Z" stroke="white" stroke-width="2" stroke-miterlimit="10"/>
<path d="M322.905 405.544C322.905 404.091 321.728 402.913 320.275 402.913C318.822 402.913 317.645 404.091 317.645 405.544C317.645 406.996 318.822 408.174 320.275 408.174C321.727 408.174 322.905 406.996 322.905 405.544Z" stroke="white" stroke-width="2" stroke-miterlimit="10"/>
<path d="M339.806 405.544C339.806 404.091 338.629 402.913 337.176 402.913C335.723 402.913 334.545 404.091 334.545 405.544C334.545 406.996 335.723 408.174 337.176 408.174C338.629 408.174 339.806 406.996 339.806 405.544Z" stroke="white" stroke-width="2" stroke-miterlimit="10"/>
<path d="M289.105 421.712C289.105 420.259 287.927 419.081 286.474 419.081C285.022 419.081 283.844 420.258 283.844 421.712C283.844 423.164 285.022 424.342 286.474 424.342C287.927 424.341 289.105 423.164 289.105 421.712Z" fill="#59DEEB"/>
<path d="M306.005 421.712C306.005 420.259 304.827 419.081 303.375 419.081C301.922 419.081 300.744 420.258 300.744 421.712C300.744 423.164 301.921 424.342 303.375 424.342C304.828 424.341 306.005 423.164 306.005 421.712Z" stroke="white" stroke-width="2" stroke-miterlimit="10"/>
<path d="M320.275 424.342C321.728 424.342 322.905 423.164 322.905 421.712C322.905 420.259 321.728 419.081 320.275 419.081C318.822 419.081 317.645 420.259 317.645 421.712C317.645 423.164 318.822 424.342 320.275 424.342Z" fill="#FFA33E"/>
<path d="M337.176 424.342C338.629 424.342 339.807 423.164 339.807 421.712C339.807 420.259 338.629 419.081 337.176 419.081C335.724 419.081 334.546 420.259 334.546 421.712C334.546 423.164 335.724 424.342 337.176 424.342Z" stroke="white" stroke-width="2" stroke-miterlimit="10"/>
<path d="M585.02 229.69H531.962V254.862H585.02V229.69Z" fill="#59DEEB"/>
<path d="M531.962 329.758H486.372V354.93H531.962V329.758Z" fill="#59DEEB"/>
<path d="M630.609 354.931H585.019V380.102H630.609V354.931Z" fill="#FFA33E"/>
<path d="M585.02 280.033H531.962V330.376H585.02V280.033Z" fill="#FFD9A6"/>
<path d="M620.873 407.46H496.107C490.731 407.46 486.372 403.102 486.372 397.725V203.344C486.372 197.967 490.731 193.608 496.107 193.608H620.873C626.25 193.608 630.609 197.967 630.609 203.344V397.725C630.609 403.102 626.25 407.46 620.873 407.46Z" stroke="white" stroke-width="2" stroke-miterlimit="10"/>
<path d="M531.962 193.607V407.459" stroke="white" stroke-width="2" stroke-miterlimit="10"/>
<path d="M585.019 193.607V407.459" stroke="white" stroke-width="2" stroke-miterlimit="10"/>
<path d="M486.372 229.69H630.609" stroke="white" stroke-width="2" stroke-miterlimit="10"/>
<path d="M486.372 254.863H630.609" stroke="white" stroke-width="2" stroke-miterlimit="10"/>
<path d="M486.372 280.033H630.609" stroke="white" stroke-width="2" stroke-miterlimit="10"/>
<path d="M486.372 305.206H630.609" stroke="white" stroke-width="2" stroke-miterlimit="10"/>
<path d="M486.372 330.378H630.609" stroke="white" stroke-width="2" stroke-miterlimit="10"/>
<path d="M486.372 355.549H630.609" stroke="white" stroke-width="2" stroke-miterlimit="10"/>
<path d="M486.372 380.722H630.609" stroke="white" stroke-width="2" stroke-miterlimit="10"/>
<path d="M636.221 371.189C649.44 368.068 657.626 354.821 654.504 341.602C651.383 328.383 638.137 320.198 624.918 323.319C611.699 326.44 603.513 339.687 606.634 352.906C609.756 366.125 623.002 374.311 636.221 371.189Z" fill="white"/>
<path d="M620.285 350.277L625.138 354.848C626.278 355.922 628.106 355.739 629.011 354.459L640.932 337.587" stroke="white" stroke-width="2" stroke-miterlimit="10"/>
<path d="M630.609 367.717C641.868 367.717 650.995 358.59 650.995 347.331C650.995 336.072 641.868 326.945 630.609 326.945C619.35 326.945 610.223 336.072 610.223 347.331C610.223 358.59 619.35 367.717 630.609 367.717Z" stroke="#3D3E49" stroke-width="2" stroke-miterlimit="10"/>
<path d="M43.1676 454.274L35.3428 446.449L27.5179 454.274L35.3428 462.098L43.1676 454.274Z" fill="#FFA33E"/>
<path d="M618.043 478.805L610.218 470.98L602.393 478.805L610.218 486.63L618.043 478.805Z" fill="white"/>
<path d="M224.492 160.043L216.667 152.218L208.842 160.043L216.667 167.867L224.492 160.043Z" fill="#59DEEB"/>
<path d="M566.309 46.7438L558.484 38.9189L550.66 46.7438L558.484 54.5686L566.309 46.7438Z" fill="#FFA33E"/>
<path d="M589.459 451.938C591.917 449.48 591.917 445.494 589.459 443.035C587 440.577 583.014 440.577 580.556 443.035C578.097 445.494 578.097 449.48 580.556 451.938C583.014 454.397 587 454.397 589.459 451.938Z" stroke="white" stroke-width="2" stroke-miterlimit="10"/>
<path d="M58.6578 423.533C61.1163 421.074 61.1163 417.088 58.6578 414.63C56.1993 412.171 52.2133 412.171 49.7548 414.63C47.2962 417.088 47.2962 421.074 49.7548 423.533C52.2133 425.991 56.1993 425.991 58.6578 423.533Z" stroke="white" stroke-width="2" stroke-miterlimit="10"/>
<path d="M389.945 248.632V352.434" stroke="white" stroke-width="2" stroke-miterlimit="10"/>
<path d="M441.846 300.533H338.044" stroke="white" stroke-width="2" stroke-miterlimit="10"/>
<path d="M426.645 263.833L353.246 337.232" stroke="white" stroke-width="2" stroke-miterlimit="10"/>
<path d="M426.645 337.232L353.246 263.833" stroke="white" stroke-width="2" stroke-miterlimit="10"/>
<path d="M578.723 133.519V114.665H567.802C566.949 111.427 565.662 108.368 564.015 105.543L571.744 97.8154L558.412 84.484L550.684 92.2124C547.86 90.5651 544.8 89.2783 541.562 88.4256V77.5049H522.708V88.4256C519.471 89.279 516.411 90.5658 513.586 92.2124L505.858 84.484L492.527 97.8154L500.255 105.543C498.608 108.368 497.322 111.427 496.469 114.665H485.548V133.519H496.469C497.322 136.757 498.609 139.816 500.255 142.641L492.527 150.369L505.858 163.7L513.586 155.972C516.411 157.62 519.47 158.906 522.708 159.76V170.681H541.562V159.76C544.799 158.907 547.859 157.62 550.684 155.972L558.412 163.7L571.744 150.369L564.015 142.641C565.663 139.816 566.949 136.757 567.802 133.519H578.723ZM532.135 143.764C521.27 143.764 512.463 134.957 512.463 124.092C512.463 113.227 521.27 104.42 532.135 104.42C543 104.42 551.807 113.227 551.807 124.092C551.807 134.957 543 143.764 532.135 143.764Z" stroke="white" stroke-width="2" stroke-miterlimit="10"/>
<path d="M281.037 532.238L268.698 492.601L352.464 475.043L390.091 395.938C395.693 384.163 405.853 375.19 418.225 371.079L431.686 366.605C430.038 374.723 432.133 382.199 444.369 383.704C467.99 386.615 483.791 369.646 488.764 363.37L520.127 379.534C533.458 386.407 541.18 400.789 539.54 415.696L532.474 545.194H386.849L388.392 523.692L387.822 524.905L281.037 532.238Z" fill="#FFA33E"/>
<path d="M244.204 545.197H388.36V530.528H244.204V545.197Z" fill="white"/>
<path d="M123.639 545.196H287.377L248.473 424.912H84.7349L123.639 545.196Z" fill="white"/>
<path d="M286.458 542.355L248.473 424.913" stroke="#3D3E49" stroke-width="2" stroke-miterlimit="10"/>
<path d="M181.758 498.955C187.474 497.194 190.377 490.151 188.243 483.223C186.109 476.295 179.745 472.106 174.03 473.866C168.314 475.627 165.411 482.671 167.545 489.599C169.679 496.527 176.043 500.716 181.758 498.955Z" stroke="#3D3E49" stroke-width="2" stroke-miterlimit="10"/>
<path d="M386.193 527.777C377.476 536.529 363.764 539.918 351.973 536.235L337.605 535.993L327.345 541.63C324.663 543.276 321.42 543.737 318.386 542.903L312.135 541.186L297.591 532.686L339.502 509.319L381.921 506.711L386.193 527.777Z" fill="#A07252"/>
<path d="M312.135 541.187L332.34 528.405L341.892 527.04" stroke="#3D3E49" stroke-width="2" stroke-miterlimit="10"/>
<path d="M305.518 537.862L325.722 525.08L334.644 522.43" stroke="#3D3E49" stroke-width="2" stroke-miterlimit="10"/>
<path d="M301.317 534.755L321.522 521.973L329.864 518.077" stroke="#3D3E49" stroke-width="2" stroke-miterlimit="10"/>
<path d="M532.474 430.381L485.521 530.527L378.736 537.861L368.25 504.178L450.164 480.663L484.021 417.134L532.474 430.381Z" fill="#FFA33E"/>
<path d="M531.706 432.021L496.433 507.255C490.639 519.613 478.765 528.005 465.183 529.344L378.736 537.863" stroke="#3D3E49" stroke-width="2" stroke-miterlimit="10"/>
<path d="M484.021 417.134L450.164 480.663L368.25 504.178" stroke="#3D3E49" stroke-width="2" stroke-miterlimit="10"/>
<path d="M421.526 390.128L402.127 436.565C399.268 443.408 398.253 450.881 399.18 458.239L403.466 492.246" stroke="#3D3E49" stroke-width="2" stroke-miterlimit="10"/>
<path d="M366.203 472.633L334.463 478.817" stroke="#3D3E49" stroke-width="2" stroke-miterlimit="10"/>
<path d="M511.137 347.27C515.691 343.95 520.021 340.112 522.802 335.21C525.584 330.308 526.637 324.177 524.494 318.964C522.518 314.156 518.045 310.466 517.06 305.361C515.914 299.419 519.759 292.72 516.687 287.507C513.426 281.974 504.996 282.5 500.168 278.265C495.962 274.576 494.795 267.536 489.524 265.662C484.575 263.902 479.387 267.972 474.139 267.779C466.55 267.499 460.801 258.516 453.307 259.743C446.088 260.926 443.156 270.74 436.11 272.711C432.464 273.73 428.106 272.491 425.102 274.795C421.426 277.613 422.533 283.385 420.821 287.689C418.172 294.349 408.7 297.476 408.367 304.636C408.136 309.579 412.675 313.763 412.576 318.711C412.52 321.47 411.02 323.973 410.364 326.653C408.534 334.121 413.432 341.577 419.006 346.873C428.291 355.693 440.283 361.513 452.87 363.735C466.187 366.086 477.997 363.461 490.397 358.618C497.757 355.745 504.751 351.926 511.137 347.27Z" fill="#3D3E49"/>
<path d="M431.686 366.605L445.945 361.865L450.126 345.947L458.043 315.803H478.624V356.659V358.144L488.765 363.37C483.791 369.647 467.99 386.615 444.369 383.704C432.133 382.199 430.039 374.723 431.686 366.605Z" fill="#A07252"/>
<path d="M429.782 326.244C429.848 329.495 430.554 332.706 431.864 335.688L433.144 338.604L437.026 347.454C439.282 352.595 445.022 355.242 450.397 353.611L460.186 350.639C467.751 348.343 473.913 342.82 477.027 335.556L479.055 330.826L482.631 322.469L483.484 309.001L483.718 305.343C484.49 293.115 476.341 282.101 464.418 279.261L461.497 278.57C453.206 276.599 444.483 278.951 438.315 284.824H438.311C433.525 289.386 430.726 295.64 430.513 302.249L429.786 324.908C429.771 325.355 429.771 325.802 429.782 326.244Z" fill="#A07252"/>
<path d="M471.773 321.971C472.316 328.882 482.516 333.716 489.426 333.173C496.337 332.629 501.499 326.585 500.955 319.674C500.411 312.763 494.368 307.602 487.457 308.146C480.545 308.69 471.228 315.061 471.773 321.971Z" fill="#A07252"/>
<path d="M473.13 341.977C473.13 341.977 469.979 347.668 460.188 350.64L450.396 353.611" stroke="#3D3E49" stroke-width="2" stroke-miterlimit="10"/>
<path d="M451.885 320.992C451.885 321.813 452.551 322.479 453.373 322.479C454.194 322.479 454.861 321.813 454.861 320.992C454.861 320.17 454.194 319.504 453.373 319.504C452.551 319.504 451.885 320.17 451.885 320.992Z" fill="#3D3E49"/>
<path d="M431.719 320.455C431.719 321.277 432.385 321.943 433.206 321.943C434.028 321.943 434.694 321.277 434.694 320.455C434.694 319.634 434.028 318.968 433.206 318.968C432.385 318.968 431.719 319.634 431.719 320.455Z" fill="#3D3E49"/>
<path d="M462.7 338.155C466.608 338.155 469.775 334.988 469.775 331.08C469.775 327.173 466.608 324.005 462.7 324.005C458.793 324.005 455.625 327.173 455.625 331.08C455.625 334.988 458.793 338.155 462.7 338.155Z" fill="#7A563D"/>
<path d="M429.782 326.245C429.848 329.496 430.554 332.706 431.864 335.689L433.145 338.605C434.673 337.309 435.639 335.373 435.639 333.215C435.639 329.719 433.109 326.818 429.782 326.245Z" fill="#7A563D"/>
<path d="M438.437 329.162L441.595 326.335L443.203 321.279C443.35 320.817 444.018 320.859 444.106 321.336L445.651 329.694C445.749 330.224 445.374 330.726 444.838 330.782L439.424 331.352C438.212 331.479 437.538 329.985 438.437 329.162Z" fill="#7A563D"/>
<path d="M457.224 329.655C457.224 329.655 453.192 339.039 442.591 336.259" stroke="#3D3E49" stroke-width="2" stroke-miterlimit="10"/>
<path d="M485.547 332.755C485.547 331.043 486.936 329.655 488.648 329.655C490.36 329.655 491.748 331.043 491.748 332.755C491.748 334.467 490.36 335.856 488.648 335.856C486.936 335.856 485.547 334.468 485.547 332.755Z" fill="white"/>
<path d="M460.289 312.119C456.81 310.74 452.988 310.235 449.27 310.663" stroke="#3D3E49" stroke-width="2" stroke-miterlimit="10"/>
<path d="M437.909 310.708C434.846 310.865 431.814 311.613 429.03 312.902" stroke="#3D3E49" stroke-width="2" stroke-miterlimit="10"/>
<path d="M425.453 293.649C428.339 296.168 432.178 297.568 436.008 297.499C439.838 297.43 443.666 296.095 446.459 293.472C447.912 296.271 450.458 298.483 453.432 299.532C456.405 300.581 459.76 300.656 462.648 299.39C463.39 304.114 465.762 308.622 469.456 311.66C473.148 314.698 478.171 316.163 482.87 315.271C487.567 314.378 491.8 311.035 493.472 306.555C495.481 301.174 496.208 294.978 493.355 289.993C490.503 285.009 484.997 281.651 479.26 281.397C478.392 278.004 475.088 275.362 472.009 273.692C468.93 272.022 465.424 271.312 461.948 270.879C459.05 270.519 456.103 270.337 453.217 270.777C450.331 271.217 447.49 272.315 445.316 274.265C439.754 274.266 433.753 276.149 429.731 279.992C425.707 283.834 421.262 289.991 425.453 293.649Z" fill="#3D3E49"/>
<path d="M0 545.196H620.285" stroke="#3D3E49" stroke-width="2" stroke-miterlimit="10"/>
<path d="M167.59 174.117H88.1017C85.7525 174.117 83.8477 176.021 83.8477 178.371C83.8477 180.721 85.7525 182.625 88.1017 182.625H167.59C169.939 182.625 171.844 180.721 171.844 178.371C171.844 176.021 169.939 174.117 167.59 174.117Z" fill="#FFD9A6"/>
<path d="M620.285 502.458H566.27C563.921 502.458 562.016 504.362 562.016 506.712C562.016 509.061 563.92 510.966 566.27 510.966H620.285C622.634 510.966 624.539 509.061 624.539 506.712C624.539 504.362 622.635 502.458 620.285 502.458Z" fill="#FFD9A6"/>
<path d="M70.6271 507.586V453.571C70.6271 451.222 68.723 449.317 66.3732 449.317C64.0233 449.317 62.1191 451.222 62.1191 453.571V507.586C62.1191 509.935 64.024 511.84 66.3732 511.84C68.7223 511.84 70.6271 509.935 70.6271 507.586Z" fill="#FFD9A6"/>
<path d="M601.785 73.7608V19.7462C601.785 17.3971 599.881 15.4922 597.531 15.4922C595.182 15.4922 593.277 17.3971 593.277 19.7462V73.7608C593.277 76.11 595.181 78.0148 597.531 78.0148C599.881 78.0148 601.785 76.1106 601.785 73.7608Z" fill="#FFD9A6"/>
</svg>
