<svg fill="none" xmlns="http://www.w3.org/2000/svg" viewBox="0.18 -0.03 265.78 133.08">
<path d="M260.07 133.035C263.384 133.035 266.084 130.347 265.935 127.037C264.902 104.147 257.973 81.909 245.822 62.4836C244.064 59.6743 240.315 58.9958 237.588 60.878L222.265 71.4531C219.538 73.3353 218.869 77.0636 220.589 79.8964C229.256 94.1764 234.299 110.363 235.277 127.038C235.471 130.346 238.139 133.035 241.453 133.035H260.07Z" fill="#FD6A6A"/>
<path d="M233.94 55.8592C236.572 53.846 237.084 50.0706 234.955 47.532C222.47 32.6503 206.86 20.6635 189.208 12.441C171.556 4.21848 152.336 -0.0181192 132.911 4.23133e-05C129.598 0.00314048 127.037 2.82437 127.189 6.13457L128.046 24.7326C128.199 28.0428 131.007 30.5843 134.321 30.6258C148.804 30.8076 163.109 34.0603 176.28 40.1955C189.451 46.3307 201.145 55.1881 210.603 66.1584C212.767 68.6681 216.52 69.1829 219.152 67.1698L233.94 55.8592Z" fill="#A595FA"/>
<path d="M119.493 6.7239C119.139 3.42907 116.179 1.03058 112.904 1.53194C82.7599 6.14578 55.0464 20.993 34.4812 43.6737C13.916 66.3544 1.84461 95.3847 0.194903 125.835C0.0156377 129.144 2.69163 131.856 6.0052 131.886L24.6222 132.054C27.9358 132.084 30.628 129.419 30.8519 126.113C32.4051 103.175 41.6417 81.3582 57.1632 64.2401C72.6847 47.1219 93.4954 35.8001 116.173 32.0154C119.441 31.4699 121.831 28.5304 121.477 25.2356L119.493 6.7239Z" fill="#1DBB6E"/>
</svg>