<svg width="39" height="40" viewBox="0 0 39 40" fill="none" xmlns="http://www.w3.org/2000/svg">
<path d="M30.6285 34.1671L27.5783 37.2334C26.7435 38.0681 25.3629 38.0681 24.496 37.2334L21.9596 34.6808C21.1248 33.83 21.1248 32.4655 21.9596 31.5986L25.0258 28.5645L30.6285 34.1671Z" fill="#FB7857"/>
<path d="M36.7446 28.0665L32.2335 32.5615L26.6309 26.9588L31.1258 22.4318C31.9767 21.597 33.3573 21.597 34.2081 22.4318L36.7446 24.9843C37.5794 25.8351 37.5794 27.2318 36.7446 28.0665Z" fill="#FB7857"/>
<path d="M11.8844 4.18949C12.4371 4.14544 12.8895 4.59858 12.8895 5.15303V12.4585C12.8895 13.0108 12.4417 13.4585 11.8895 13.4585H4.65869C4.10641 13.4585 3.6542 13.0095 3.69439 12.4587C4.04948 7.59261 7.03621 4.57581 11.8844 4.18949Z" fill="#FB7857"/>
<path d="M34.0477 13.4585H27.5347C26.9824 13.4585 26.5347 13.0108 26.5347 12.4585V5.15371C26.5347 4.59899 26.9875 4.14576 27.5404 4.19024C32.117 4.55841 35.0387 7.27038 35.6531 11.6605C35.7815 12.6077 35.0109 13.4585 34.0477 13.4585Z" fill="#FB7857"/>
<path d="M11.8895 27.1035C12.4417 27.1035 12.8895 27.5512 12.8895 28.1035V34.5202C12.8895 35.4835 12.0386 36.254 11.0754 36.1256C6.75225 35.4824 4.10179 32.6088 3.70853 28.1155C3.65995 27.5604 4.1142 27.1035 4.67143 27.1035H11.8895Z" fill="#FB7857"/>
<path d="M12.8895 16.8662C12.8895 16.3139 12.4417 15.8662 11.8895 15.8662H4.65869C4.10641 15.8662 3.65869 16.3139 3.65869 16.8662V23.6956C3.65869 24.2479 4.10641 24.6956 4.65869 24.6956H11.8895C12.4417 24.6956 12.8895 24.2479 12.8895 23.6956V16.8662Z" fill="#FB7857"/>
<path d="M24.1268 16.8662C24.1268 16.3139 23.6791 15.8662 23.1268 15.8662H16.2974C15.7451 15.8662 15.2974 16.3139 15.2974 16.8662V23.6956C15.2974 24.2479 15.7451 24.6956 16.2974 24.6956H22.5214C23.4044 24.6956 24.1268 23.9732 24.1268 23.0903V16.8662Z" fill="#FB7857"/>
<path d="M24.1268 5.14746C24.1268 4.59518 23.6791 4.14746 23.1268 4.14746H16.2974C15.7451 4.14746 15.2974 4.59518 15.2974 5.14746V12.4585C15.2974 13.0108 15.7451 13.4585 16.2974 13.4585H23.1268C23.6791 13.4585 24.1268 13.0108 24.1268 12.4585V5.14746Z" fill="#FB7857"/>
</svg>
