<svg width="76" height="72" viewBox="0 0 76 72" fill="none" xmlns="http://www.w3.org/2000/svg">
<g filter="url(#filter0_d_4976_53052)">
<rect x="6" y="2.5" width="64.1334" height="60" rx="12" fill="white"/>
</g>
<path d="M52.9567 28.4263C49.2484 22.5988 43.8223 19.2437 38.1072 19.2437C35.2497 19.2437 32.4724 20.0784 29.936 21.6356C27.3995 23.2089 25.1199 25.5045 23.2577 28.4263C21.6524 30.9467 21.6524 35.0403 23.2577 37.5607C26.9661 43.4042 32.3922 46.7433 38.1072 46.7433C40.9647 46.7433 43.742 45.9085 46.2785 44.3513C48.8149 42.7781 51.0945 40.4824 52.9567 37.5607C54.5621 35.0564 54.5621 30.9467 52.9567 28.4263ZM38.1072 39.4871C34.5112 39.4871 31.6216 36.5814 31.6216 33.0015C31.6216 29.4216 34.5112 26.5159 38.1072 26.5159C41.7032 26.5159 44.5928 29.4216 44.5928 33.0015C44.5928 36.5814 41.7032 39.4871 38.1072 39.4871Z" fill="#FB7857"/>
<path d="M38.107 28.4102C35.5866 28.4102 33.5317 30.465 33.5317 33.0015C33.5317 35.5219 35.5866 37.5767 38.107 37.5767C40.6274 37.5767 42.6983 35.5219 42.6983 33.0015C42.6983 30.4811 40.6274 28.4102 38.107 28.4102Z" fill="#FB7857"/>
<defs>
<filter id="filter0_d_4976_53052" x="0.5" y="0.5" width="75.1333" height="71" filterUnits="userSpaceOnUse" color-interpolation-filters="sRGB">
<feFlood flood-opacity="0" result="BackgroundImageFix"/>
<feColorMatrix in="SourceAlpha" type="matrix" values="0 0 0 0 0 0 0 0 0 0 0 0 0 0 0 0 0 0 127 0" result="hardAlpha"/>
<feOffset dy="3.5"/>
<feGaussianBlur stdDeviation="2.75"/>
<feColorMatrix type="matrix" values="0 0 0 0 0 0 0 0 0 0 0 0 0 0 0 0 0 0 0.02 0"/>
<feBlend mode="normal" in2="BackgroundImageFix" result="effect1_dropShadow_4976_53052"/>
<feBlend mode="normal" in="SourceGraphic" in2="effect1_dropShadow_4976_53052" result="shape"/>
</filter>
</defs>
</svg>
