<svg width="76" height="72" viewBox="0 0 76 72" fill="none" xmlns="http://www.w3.org/2000/svg">
<g filter="url(#filter0_d_4976_53019)">
<rect x="6" y="2.5" width="64.1334" height="60" rx="12" fill="white"/>
</g>
<path d="M49.6285 47.1671L46.5783 50.2334C45.7435 51.0681 44.3629 51.0681 43.496 50.2334L40.9596 47.6808C40.1248 46.83 40.1248 45.4655 40.9596 44.5986L44.0258 41.5645L49.6285 47.1671Z" fill="#FB7857"/>
<path d="M55.7446 41.0665L51.2335 45.5615L45.6309 39.9588L50.1258 35.4318C50.9767 34.597 52.3573 34.597 53.2081 35.4318L55.7446 37.9843C56.5794 38.8351 56.5794 40.2318 55.7446 41.0665Z" fill="#FB7857"/>
<path d="M30.8844 17.1895C31.4371 17.1454 31.8895 17.5986 31.8895 18.153V25.4585C31.8895 26.0108 31.4417 26.4585 30.8895 26.4585H23.6587C23.1064 26.4585 22.6542 26.0095 22.6944 25.4587C23.0495 20.5926 26.0362 17.5758 30.8844 17.1895Z" fill="#FB7857"/>
<path d="M53.0477 26.4585H46.5347C45.9824 26.4585 45.5347 26.0108 45.5347 25.4585V18.1537C45.5347 17.599 45.9875 17.1458 46.5404 17.1902C51.117 17.5584 54.0387 20.2704 54.6531 24.6605C54.7815 25.6077 54.0109 26.4585 53.0477 26.4585Z" fill="#FB7857"/>
<path d="M30.8895 40.1035C31.4417 40.1035 31.8895 40.5512 31.8895 41.1035V47.5202C31.8895 48.4835 31.0386 49.254 30.0754 49.1256C25.7523 48.4824 23.1018 45.6088 22.7085 41.1155C22.6599 40.5604 23.1142 40.1035 23.6714 40.1035H30.8895Z" fill="#FB7857"/>
<path d="M31.8895 29.8662C31.8895 29.3139 31.4417 28.8662 30.8895 28.8662H23.6587C23.1064 28.8662 22.6587 29.3139 22.6587 29.8662V36.6956C22.6587 37.2479 23.1064 37.6956 23.6587 37.6956H30.8895C31.4417 37.6956 31.8895 37.2479 31.8895 36.6956V29.8662Z" fill="#FB7857"/>
<path d="M43.1268 29.8662C43.1268 29.3139 42.6791 28.8662 42.1268 28.8662H35.2974C34.7451 28.8662 34.2974 29.3139 34.2974 29.8662V36.6956C34.2974 37.2479 34.7451 37.6956 35.2974 37.6956H41.5214C42.4044 37.6956 43.1268 36.9732 43.1268 36.0903V29.8662Z" fill="#FB7857"/>
<path d="M43.1268 18.1475C43.1268 17.5952 42.6791 17.1475 42.1268 17.1475H35.2974C34.7451 17.1475 34.2974 17.5952 34.2974 18.1475V25.4585C34.2974 26.0108 34.7451 26.4585 35.2974 26.4585H42.1268C42.6791 26.4585 43.1268 26.0108 43.1268 25.4585V18.1475Z" fill="#FB7857"/>
<defs>
<filter id="filter0_d_4976_53019" x="0.5" y="0.5" width="75.1333" height="71" filterUnits="userSpaceOnUse" color-interpolation-filters="sRGB">
<feFlood flood-opacity="0" result="BackgroundImageFix"/>
<feColorMatrix in="SourceAlpha" type="matrix" values="0 0 0 0 0 0 0 0 0 0 0 0 0 0 0 0 0 0 127 0" result="hardAlpha"/>
<feOffset dy="3.5"/>
<feGaussianBlur stdDeviation="2.75"/>
<feColorMatrix type="matrix" values="0 0 0 0 0 0 0 0 0 0 0 0 0 0 0 0 0 0 0.02 0"/>
<feBlend mode="normal" in2="BackgroundImageFix" result="effect1_dropShadow_4976_53019"/>
<feBlend mode="normal" in="SourceGraphic" in2="effect1_dropShadow_4976_53019" result="shape"/>
</filter>
</defs>
</svg>
