<svg width="76" height="71" viewBox="0 0 76 71" fill="none" xmlns="http://www.w3.org/2000/svg">
<g filter="url(#filter0_d_4976_53075)">
<rect x="5.95215" y="2" width="64.1334" height="60" rx="12" fill="white"/>
</g>
<path d="M53.1125 29.4917H24.2162C23.3332 29.4917 22.6108 30.2141 22.6108 31.0971V39.4288C22.6108 39.7499 22.6269 40.071 22.659 40.392C22.9801 45.3365 26.0302 48.3867 30.9747 48.7078C31.2958 48.7399 31.6169 48.7559 31.9379 48.7559H45.3908C45.7118 48.7559 46.0329 48.7399 46.354 48.7078C51.2985 48.3867 54.3486 45.3365 54.6697 40.392C54.7018 40.071 54.7179 39.7499 54.7179 39.4288V31.0971C54.7179 30.2141 53.9955 29.4917 53.1125 29.4917ZM32.2429 39.3646C32.7888 40.1673 33.5272 40.8255 34.3781 41.2589C34.9881 41.5479 35.2289 42.2703 34.9239 42.8803C34.7152 43.2977 34.2817 43.5385 33.8483 43.5385C33.6717 43.5385 33.4791 43.4904 33.3185 43.4101C32.0664 42.8001 31.0068 41.8529 30.2523 40.7131C29.6102 39.7499 29.6102 38.4977 30.2523 37.5345C31.0068 36.3947 32.0664 35.4476 33.3185 34.8375C33.9125 34.5325 34.6349 34.7733 34.9239 35.3673C35.2289 35.9773 34.9881 36.6997 34.3781 36.9887C33.5272 37.4221 32.7888 38.0803 32.2429 38.883C32.1466 39.0275 32.1466 39.2201 32.2429 39.3646ZM47.4135 40.7131C46.6429 41.8529 45.5834 42.8001 44.3473 43.4101C44.1707 43.4904 43.9941 43.5385 43.8175 43.5385C43.368 43.5385 42.9506 43.2977 42.7419 42.8803C42.4369 42.2703 42.6777 41.5479 43.2717 41.2589C44.1386 40.8255 44.8771 40.1673 45.4068 39.3646C45.5192 39.2201 45.5192 39.0275 45.4068 38.883C44.8771 38.0803 44.1386 37.4221 43.2717 36.9887C42.6777 36.6997 42.4369 35.9773 42.7419 35.3673C43.0309 34.7733 43.7533 34.5325 44.3473 34.8375C45.5834 35.4476 46.6429 36.3947 47.4135 37.5345C48.0557 38.4977 48.0557 39.7499 47.4135 40.7131Z" fill="#FB7857"/>
<path d="M54.7179 25.976V26.281C54.7179 27.164 53.9955 27.8864 53.1125 27.8864L24.2162 27.9024C23.3332 27.9024 22.6108 27.18 22.6108 26.2971V25.976C22.6108 25.6549 22.6269 25.3339 22.659 25.0128C22.9801 20.0683 26.0302 17.0182 30.9747 16.6971C31.2958 16.665 31.6169 16.6489 31.9379 16.6489H45.3908C45.7118 16.6489 46.0329 16.665 46.354 16.6971C51.2985 17.0182 54.3486 20.0683 54.6697 25.0128C54.7018 25.3339 54.7179 25.6549 54.7179 25.976Z" fill="#FB7857"/>
<defs>
<filter id="filter0_d_4976_53075" x="0.452148" y="-2.38419e-07" width="75.1333" height="71" filterUnits="userSpaceOnUse" color-interpolation-filters="sRGB">
<feFlood flood-opacity="0" result="BackgroundImageFix"/>
<feColorMatrix in="SourceAlpha" type="matrix" values="0 0 0 0 0 0 0 0 0 0 0 0 0 0 0 0 0 0 127 0" result="hardAlpha"/>
<feOffset dy="3.5"/>
<feGaussianBlur stdDeviation="2.75"/>
<feColorMatrix type="matrix" values="0 0 0 0 0 0 0 0 0 0 0 0 0 0 0 0 0 0 0.02 0"/>
<feBlend mode="normal" in2="BackgroundImageFix" result="effect1_dropShadow_4976_53075"/>
<feBlend mode="normal" in="SourceGraphic" in2="effect1_dropShadow_4976_53075" result="shape"/>
</filter>
</defs>
</svg>
