<svg width="76" height="71" viewBox="0 0 76 71" fill="none" xmlns="http://www.w3.org/2000/svg">
<g filter="url(#filter0_d_4976_53042)">
<rect x="5.63477" y="2" width="64.1334" height="60" rx="12" fill="white"/>
</g>
<path d="M38.347 16.6475C29.4854 16.6475 22.2935 23.8394 22.2935 32.701C22.2935 41.5625 29.4854 48.7545 38.347 48.7545C47.2085 48.7545 54.4005 41.5625 54.4005 32.701C54.4005 23.8394 47.2085 16.6475 38.347 16.6475ZM38.347 45.1424C31.4921 45.1424 25.9055 39.5558 25.9055 32.701C25.9055 30.5177 26.4834 28.3826 27.559 26.5043C27.8801 25.9264 28.6185 25.7337 29.1965 26.0548L38.9409 31.6575C39.5189 31.9946 39.7115 32.717 39.3904 33.295C39.0533 33.8729 38.3309 34.0655 37.753 33.7445L33.0814 31.0635C32.9209 31.5933 32.8085 32.1391 32.8085 32.701C32.8085 35.7511 35.2968 38.2394 38.347 38.2394C41.3971 38.2394 43.8854 35.7511 43.8854 32.701C43.8854 29.6508 41.3971 27.1625 38.347 27.1625C37.5282 27.1625 36.7256 27.3391 35.9871 27.6923C35.3771 27.9812 34.6707 27.7244 34.3818 27.1144C34.0928 26.5204 34.3496 25.798 34.9597 25.509C36.0192 25.0113 37.159 24.7545 38.347 24.7545C42.7296 24.7545 46.2935 28.3184 46.2935 32.701C46.2935 37.0836 42.7296 40.6475 38.347 40.6475C33.9644 40.6475 30.4005 37.0836 30.4005 32.701C30.4005 31.7217 30.5931 30.7424 30.9463 29.8274L29.1001 28.7839C28.5864 30.02 28.3135 31.3525 28.3135 32.701C28.3135 38.2394 32.8085 42.7344 38.347 42.7344C43.8854 42.7344 48.3804 38.2394 48.3804 32.701C48.3804 27.1625 43.8854 22.6675 38.347 22.6675C36.1637 22.6675 34.0767 23.3578 32.3269 24.6742C31.7971 25.0756 31.0426 24.9632 30.6413 24.4334C30.2399 23.9036 30.3523 23.1491 30.8821 22.7478C33.0493 21.1264 35.6339 20.2595 38.347 20.2595C45.2018 20.2595 50.7884 25.8461 50.7884 32.701C50.7884 39.5558 45.2018 45.1424 38.347 45.1424Z" fill="#FB7857"/>
<defs>
<filter id="filter0_d_4976_53042" x="0.134765" y="-2.38419e-07" width="75.1333" height="71" filterUnits="userSpaceOnUse" color-interpolation-filters="sRGB">
<feFlood flood-opacity="0" result="BackgroundImageFix"/>
<feColorMatrix in="SourceAlpha" type="matrix" values="0 0 0 0 0 0 0 0 0 0 0 0 0 0 0 0 0 0 127 0" result="hardAlpha"/>
<feOffset dy="3.5"/>
<feGaussianBlur stdDeviation="2.75"/>
<feColorMatrix type="matrix" values="0 0 0 0 0 0 0 0 0 0 0 0 0 0 0 0 0 0 0.02 0"/>
<feBlend mode="normal" in2="BackgroundImageFix" result="effect1_dropShadow_4976_53042"/>
<feBlend mode="normal" in="SourceGraphic" in2="effect1_dropShadow_4976_53042" result="shape"/>
</filter>
</defs>
</svg>
