<svg width="121" height="123" viewBox="0 0 121 123" fill="none" xmlns="http://www.w3.org/2000/svg">
<path d="M54.0309 108.911C52.4809 110.541 51.7209 112.651 51.7509 114.761C51.7809 116.871 52.5909 118.961 54.1909 120.551L54.3109 120.671C55.8909 122.171 57.9109 122.901 59.9209 122.871C61.9309 122.841 63.9309 122.051 65.4709 120.501C83.1309 102.841 100.601 84.8909 118.151 67.1009C118.221 67.0509 118.281 67.0009 118.341 66.9409C119.891 65.3109 120.651 63.1809 120.621 61.0709C120.591 58.9609 119.771 56.8609 118.171 55.2709L117.901 55.0109C100.431 37.4709 82.9809 19.8709 65.4609 2.36089C63.9309 0.820888 61.9309 0.030888 59.9209 0.000888004C57.9109 -0.029112 55.8909 0.700888 54.3109 2.21089L54.1609 2.36089C52.5909 3.94089 51.7809 6.02089 51.7509 8.12089C51.7209 10.2209 52.4809 12.3409 54.0309 13.9709L101.251 61.2409L54.0309 108.911ZM2.26087 106.911C0.720865 108.531 -0.0291347 110.641 0.000865313 112.741C0.0308653 114.851 0.840865 116.941 2.44087 118.531L2.56087 118.651C4.13087 120.151 6.16087 120.881 8.17087 120.861C10.1809 120.831 12.1909 120.041 13.7209 118.491C31.0109 101.201 48.8709 84.2009 66.3909 67.1209C66.4609 67.0709 66.5309 67.0109 66.6009 66.9509C68.1509 65.3209 68.9109 63.1909 68.8809 61.0809C68.8509 58.9709 68.0309 56.8709 66.4309 55.2809C48.9409 38.3309 31.3609 21.4409 13.8309 4.51089L13.7109 4.38089C12.1809 2.84089 10.1809 2.06089 8.17087 2.03089C6.16087 2.00089 4.14087 2.73089 2.56087 4.23089L2.41087 4.38089C0.840865 5.96089 0.0308653 8.05089 0.000865313 10.1409C-0.0291347 12.2409 0.730865 14.3609 2.28087 15.9909L49.4609 61.2309L2.26087 106.911Z" fill="black"/>
</svg>
