<svg width="10" height="10" viewBox="0 0 10 10" fill="none" xmlns="http://www.w3.org/2000/svg">
<path d="M0.3 9.59999H1.5858C1.7514 9.59999 1.8858 9.46589 1.8858 9.29999V7.10579C1.8858 6.93989 1.7514 6.80579 1.5858 6.80579H0.3C0.1344 6.80579 0 6.93989 0 7.10579V9.29999C0 9.46559 0.1344 9.59999 0.3 9.59999ZM0.6 7.40549H1.2858V8.99969H0.6V7.40549Z" fill="white"/>
<path d="M4.15807 9.59998C4.32367 9.59998 4.45807 9.46588 4.45807 9.29998V3.10798C4.45807 2.94208 4.32367 2.80798 4.15807 2.80798H2.87227C2.70667 2.80798 2.57227 2.94208 2.57227 3.10798V9.29998C2.57227 9.46588 2.70667 9.59998 2.87227 9.59998H4.15807ZM3.17227 3.40798H3.85807V8.99998H3.17227V3.40798Z" fill="white"/>
<path d="M6.73003 9.60003C6.89563 9.60003 7.03003 9.46593 7.03003 9.30003V5.15913C7.03003 4.99323 6.89563 4.85913 6.73003 4.85913H5.44453C5.27893 4.85913 5.14453 4.99323 5.14453 5.15913V9.30003C5.14453 9.46593 5.27893 9.60003 5.44453 9.60003H6.73003ZM5.74453 5.45913H6.43033V9.00003H5.74453V5.45913Z" fill="white"/>
<path d="M7.71484 0.3V9.3C7.71484 9.4659 7.84924 9.6 8.01484 9.6H9.30064C9.46624 9.6 9.60064 9.4659 9.60064 9.3V0.3C9.60064 0.1341 9.46624 0 9.30064 0H8.01484C7.84924 0 7.71484 0.1341 7.71484 0.3ZM8.31484 0.6H9.00064V9H8.31484V0.6Z" fill="white"/>
</svg>
